<svg id="Livello_1" data-name="Livello 1" xmlns="http://www.w3.org/2000/svg" viewBox="0 0 83.25 104.52"><defs><style>.cls-1{fill:#60c0c1;fill-rule:evenodd;}</style></defs><path class="cls-1" d="M43.79,2.6c-.09.5,0,.46-.24.72-1.68,1-5.77-.17-7.2.48-.6.47-.6.89-1.44,1.2-1.08-1.69-2-.43-2.64-1.68h.24V3.08a23.06,23.06,0,0,0,5.52-1C39.39,1.75,41.94,2.6,43.79,2.6Z"/><path class="cls-1" d="M45.47,2.36c5.08-.07,9.19,1.57,13,2.64v.48h-1.2c-1.12.43-4.69-.83-6-1.2a1.77,1.77,0,0,1-1,1C49.05,4,46.46,3.57,44.51,3.08V2.84h.24C44.94,2.68,45.29,2.52,45.47,2.36Z"/><path class="cls-1" d="M40.19,4.28c.78.2.37-.12.72.48L40.19,5Z"/><path class="cls-1" d="M43.55,5.24C52.63,6.76,61.13,7,67.79,10.76V11c-.42.15-.23.05-.48.24C64.37,10.53,61,9.38,58.19,8.6c-1.76-.5-3.34,0-5.28-.48s-3.95-1-6-1.44c-3.88-.87-10.37.32-13.2,1a4.32,4.32,0,0,1-2.4-.48l-4.56.24V7.16h-.24l.24-.72a49.5,49.5,0,0,1,11-1C39.37,5.48,42.47,5.93,43.55,5.24Z"/><path class="cls-1" d="M60.11,5.48c.56.32.44.29.48.48a2.66,2.66,0,0,1-.72.48A3.1,3.1,0,0,1,60.11,5.48Z"/><path class="cls-1" d="M55.79,6h1v.48h-1Z"/><path class="cls-1" d="M24.83,7.16c.78.2.37-.12.72.48h-.24c-.41.32-.38.41-.72.24s-.08-.07-.24-.48C24.77,7.25,24.59,7.35,24.83,7.16Z"/><path class="cls-1" d="M40.19,7.16a3.36,3.36,0,0,1,1.2.24l-.24.48a3.32,3.32,0,0,1-1,.24V7.88H40Z"/><path class="cls-1" d="M42.59,7.16a7.18,7.18,0,0,1,3.12.48v.24h-.24a3.78,3.78,0,0,1-1.92.24,2.11,2.11,0,0,0-1.2-.24l-.24-.48C42.53,7.25,42.35,7.35,42.59,7.16Z"/><path class="cls-1" d="M47.87,7.4l.72.24v.48h-.48V7.88C47.92,7.63,48,7.81,47.87,7.4Z"/><path class="cls-1" d="M32,8.12a30.85,30.85,0,0,1,6.24.48h8.88c.77.16,3.79-.16,5.52.24a90.79,90.79,0,0,1,10.08,2.64c2.65,1,6.87.46,7.44,3.36H70c-1-.72-2.58-.7-3.84-1.2-4.49-1.81-12.81-4-18.24-2.88a2,2,0,0,0-.72-1c-1.53,1.34-5.39,0-8.4,0-3.61,0-8.06-.57-11.28.24-2.52.64-4.7,1.94-7.68,2.16v-.48a28.83,28.83,0,0,1,7.68-2.64C29.12,8.66,30.91,9,32,8.12Z"/><path class="cls-1" d="M33.23,10.52a34.1,34.1,0,0,1,7.44.48v.24h-.24c-2.12,1.32-6.4.07-9.12.72-4.87,1.16-9.78,3.14-14.88,3.84v-.48A48.56,48.56,0,0,1,27,11.48C28.86,11,31.71,11.51,33.23,10.52Z"/><path class="cls-1" d="M42.59,11.24c8.46-.09,18.64,1,24.72,4.08,1.55.78,4.33,1.33,4.8,3.12h-.48c-2.17-1.75-7.19-3.37-10.32-4.08H57.23c-1.73-.42-4-1-6-1.44H45.47l-2.4-.24c-1.36.3-2.66,1.18-3.84,1.44-.9.2-1.12-.4-1.44-.48-.87-.22-2.24.56-2.88.72-2.34.59-4.52.11-6.72.72-4.39,1.21-8.4,3.48-13.68,3.6v-.24h.24C17.59,16,28,14,32.51,12.92,36.2,12.05,40.08,13.09,42.59,11.24Z"/><path class="cls-1" d="M43.55,13.4c11.2-.28,19,3.86,25.92,8.4,1.91,1.25,5.28,2,5.76,4.56H75l-2.16-.72c-1.87-1.2-3.35-3.17-5.76-3.84V22c.43.45.45.19.24.72-.17.21-.3.27-.48.48-5.43-2.15-10.87-3.93-17-5.76a20,20,0,0,0-6-1c-2,.27-5.24-1.08-7.92-.48-5.76,1.3-11.25,2-16.32,3.84-2.22.82-5.19,2.92-7.2,2.88v-.48c8.26-5.09,25.72-9.82,38.88-6,2.38.69,5,1.81,7.2,2.64,1.86.69,3.39.71,5.28,1.44,1.1.42,1.47,1.09,3.12,1.2v-.24c-4.7-2.11-9.82-4.58-15.36-6-1.86-.48-8.17-.25-8.88-1.44h.24v-.24C43.33,13.55,43.3,13.58,43.55,13.4Z"/><path class="cls-1" d="M60.11,15.32c4.51.07,12.62,4.42,14.4,7.2h-1.2C70,19.24,64.6,18.19,60.11,16Z"/><path class="cls-1" d="M36.59,17.24V18h-.48c-.91.6-2,.15-3.36.48-2.05.5-4.13,1-6.24,1.68-4.81,1.6-9.18,4.29-14.16,5.52v-.72C18.15,21.41,27.82,17.43,36.59,17.24Z"/><path class="cls-1" d="M41.63,17.48c6.94-.18,12.12,1.76,17,3.6,2.89,1.08,5.48,1.36,8.4,2.4,1.86.66,3.54,2.3,5,3.36,2,1.44,4.91,2.72,5.76,5.28h-.72c-6.59-6.73-15.75-9.41-26.4-12.24-2.21-.59-7.58-1.89-10.56-1.2-3.62.84-7.09,1.26-10.56,2.4l-7.2,2.4v-.72c4-2.16,9.5-2.81,14.16-4.32C37.78,18.06,40.72,18.07,41.63,17.48Z"/><path class="cls-1" d="M13.31,18.68c.44.38.34.21.48,1h-.48Z"/><path class="cls-1" d="M42.35,20.12a51.41,51.41,0,0,1,24.72,6c2.22,1.22,4,3.32,6,4.8,2.57,1.92,6.93,5.13,7.2,9.12h-.48c-5-7.58-12.13-12.45-21.36-15.84-1.35-.5-7.1-2.9-8.16-2.4-3.25-.26-8.11-1.38-12-.48-4.59,1.06-9.05,1.83-13.2,3.36-2.23.83-4.35,2.38-7,2.64-.21-.26,0,0-.24-.24l.24-.72c2.11-.7,3.68-1.64,5.52-2.4L34,21.08C35.53,20.64,41.4,20.73,42.35,20.12Z"/><path class="cls-1" d="M3.23,41.72V41c2-.8,4-4.42,5.76-5.76,4.58-3.47,9.24-7,14.88-9.36,3-1.26,6.38-1.83,9.6-2.64,17.35-4.38,34.26,4,41.52,13.68,2.73,3.62,5.9,7.13,7.44,12h-1.2c-.86-3.78-4-6.8-6-9.6-6.5-9-22.89-19.58-40.08-15.36-3.77.93-7.85,1.67-11.28,3.12-5.15,2.18-9.25,5.49-13.44,8.64C8.27,37.35,6.29,41.24,3.23,41.72Z"/><path class="cls-1" d="M10.91,23c.74.25.7.23,1,1h-.48C11.07,23.5,11.09,23.75,10.91,23Z"/><path class="cls-1" d="M21.71,23.24V24c-3.88.87-7.8,3.27-10.8,5.28-.95.64-2.3,2.43-3.6,1.92-.19-.25-.08-.07-.24-.48C8.54,30.19,9.62,29,10.67,28,12.33,26.61,18.92,23.42,21.71,23.24Z"/><path class="cls-1" d="M39.71,24.2c19.35-.22,29.63,8.28,37,20.16,2,3.17,4.65,6.45,5.28,10.8h-.24c-.24-.19-.06-.09-.48-.24L73.31,40.28c-.86-1.19-2.41-2-3.6-2.88-1.61-1.22-2.68-3.35-4.32-4.56C62,30.3,58.33,28.93,53.87,27.32c-3-1.07-11.45-2.93-16.08-1.92-2.72.59-5.64.61-8.16,1.44S25,29.22,22.19,29.48v-.24h.24c1.76-2.33,9.69-3.72,13.2-4.56C37.06,24.34,38.67,24.87,39.71,24.2Z"/><path class="cls-1" d="M10.19,25.88a4,4,0,0,1,1.44.24c-.24.19-.06.08-.48.24a1.62,1.62,0,0,1-1.68.48c-.19-.25-.08-.07-.24-.48.26-.22,0,0,.24-.24C10,26,9.94,26.06,10.19,25.88Z"/><path class="cls-1" d="M39,26.12C49.36,26,63.3,30.25,67.55,36c1.38,1.85,2,4.07,3.12,6.24a112.2,112.2,0,0,1,6,12.72,23.38,23.38,0,0,1-.48,17c-.43,1-1.47,1.87-1.92,2.88-1.61,3.62-2.21,5.33-4.8,7.92-1.34,1.35-3.3,4-5.28,4.56a1.68,1.68,0,0,0-1-.48v-.72c7-3.54,10.91-11.21,13-19.68,1.32-5.41-1.55-10.88-2.88-13.92-3.87-8.88-5.69-17.85-14.64-21.6C50,27.29,35.74,25.43,27,30a98.17,98.17,0,0,0-10.56,7c-1.39,1-2.72,2.35-4.56,2.88v-.72A56.8,56.8,0,0,1,29.15,28a47.79,47.79,0,0,1,5.52-1.44C36,26.27,38,26.78,39,26.12Z"/><path class="cls-1" d="M75.71,26.84l1.2.24a3.1,3.1,0,0,1,.24,1h-.48V27.8C75.93,27.55,76,27.57,75.71,26.84Z"/><path class="cls-1" d="M16.19,27.32l1.2.24V28h-.24c-.9,1.25-2.22,1.35-3.6,2.16C11.06,31.67,8.76,35,5.63,35.48l-.24-.72C8.45,33,11,30.5,13.79,28.52,14.52,28,15.51,27.88,16.19,27.32Z"/><path class="cls-1" d="M37.55,28c12.67-.12,22.89,5.31,27.6,13,2.19,3.55,3.29,7.57,4.8,11.76,2.2,6.07,3.58,11.57,1,18-.51,1.25-.47,2.6-1.2,3.6-1.11.72-1.89,0-2.64,1-.5.58-1,2.13-2.64,2.4v-.48l1.68-3.36c1.28,0,1.66,0,2.16-.72.88-1.1.73-2.52,1.2-4.08,1.66-5.54.14-11.59-1.44-16.32-3.35-10.07-8.25-17.38-18.24-21.6-3.23-1.37-9.15-3-14.16-1.68-7.65,2-11.53,5.1-17,8.88-3.2,2.2-6.63,4.07-9.12,7-2,2.37-5,10.1-7.68,11V54.92c1.44-1.46,1.41-2.68,2.4-4.56,1.19-2.25,4.06-7,6-8.4,1.68-1.24,3.49-1.93,5.28-3.12,4.49-3,8.65-6.6,13.92-8.88l5.76-1.68C36,28.07,37,28.4,37.55,28Z"/><path class="cls-1" d="M39.23,29.72a29.67,29.67,0,0,1,7.44,1v.24h-.24c-1,.57-2.44-.17-3.6-.24-3.14-.18-6.19.05-8.16,1v.24h.48c2-1.35,10-.29,12,.24s3.14.38,4.56,1c8,3.28,12,10.2,15.12,18.48a5.59,5.59,0,0,1-1.92.48c-2.37-9.7-12.4-22.47-26.4-19.44-2.4.52-5.37-.53-7.44.24-3.63,1.35-9.07,5.59-12.24,7.92-1.49,1.1-2.77,3.39-4.8,3.84a2.57,2.57,0,0,1-.48-1.2c1.29-.82,2.17-2.23,3.36-3.12,3.34-2.5,7.12-5.46,11-7.2a47.71,47.71,0,0,1,7-2.88C36.18,29.86,38.22,30.36,39.23,29.72Z"/><path class="cls-1" d="M20.27,30.2h1v.48c-.65.45-1.05,1.24-1.68,1.68-2.18,1.55-4.6,2.5-6.72,4.08-1.13.84-1.56,2.2-2.4,3.36a34.81,34.81,0,0,1-3.84,3.84c-1.47,1.48-2.52,5-4.56,5.76v-.72c1-1,1.13-2.63,1.92-3.84.9-1.36,2.11-2.73,3.12-4.08a53.14,53.14,0,0,1,9.6-8.64C17.82,31.36,19.3,31.12,20.27,30.2Z"/><path class="cls-1" d="M54.59,30.44a11.33,11.33,0,0,1,3.84,1.68c9.14,4.75,9.53,9.35,13.44,19,.84,2.05,2.1,4.34,2.88,6.48C76.3,61.78,75,73,71.39,73.64c-.15-.42,0-.23-.24-.48a20.22,20.22,0,0,1,1.2-2.88l1-5.76c.73-3.34-.66-6.78-1.44-8.88-2.43-6.62-4.54-13.3-8.4-18.48a20.52,20.52,0,0,0-5.28-4.32c-1.12-.68-2.55-.7-3.36-1.68C54.65,30.9,54.69,30.93,54.59,30.44Z"/><path class="cls-1" d="M49.31,31.4c.82.23.75.09,1,1h-.48v-.24C49.4,31.8,49.52,32,49.31,31.4Z"/><path class="cls-1" d="M36.83,33.32a41.39,41.39,0,0,1,10.8,1.2V35h-.24c-.28.19-.4.19-1,.24-1-.8-2.5-.38-4.08-.72-5.5-1.19-12.11,1-15.36,3.12-1.38.92-2.33,2.6-4.32,2.88-.15-.42,0-.23-.24-.48v.48c.18.26.15.23.24.72-1.76,1.19-3.87,4.68-6.24,4.8-.24-.19-.06-.09-.48-.24l-.24-.72c1.17-.75,1.82-2.08,2.88-2.88,2.5-1.87,4.21-3.13,6.72-4.8,1.91-1.27,4.54-1.63,5.52-3.84C31.63,33.94,35.78,34,36.83,33.32Z"/><path class="cls-1" d="M48.11,34.76c4.5.46,8.24,3.71,10.32,6.72.76,1.09,2.15,2,1.68,3.6.59-.07.12-.16.72,0,1.15,2.53,2.9,5.07,3.36,8.16-.72.24-.71.47-1.44.72v-.48c-.7-1-.7-2.44-1.2-3.6-.4-.94-1.56-2.07-1.92-2.88s.33-1.32.48-1.68c-1.75.45-1.82-1.25-2.64-2.4a24.24,24.24,0,0,0-6.48-6C49.8,36.19,48.38,36.48,48.11,34.76Z"/><path class="cls-1" d="M37.31,35.48c3.07-.06,6.25-.1,8.4.72-.15.42,0,.23-.24.48a2.11,2.11,0,0,1-1.2.24c-1.14-.77-4.35-.58-5.76-.24-3.63.87-6.64,1-9.36,2.64-1.51.92-2.77,2.59-4.32,3.36a4.77,4.77,0,0,1-.72-1.2h.24c1-2,7.13-4.48,9.6-5.28C35.06,35.84,36.43,36.06,37.31,35.48Z"/><path class="cls-1" d="M46.43,37.64v-1c.26-.22,0,0,.24-.24C53.17,38.06,55,43.06,58.91,47c-.15.42,0,.23-.24.48-.22.9-.22,1-1.2,1.2C56.42,45.26,50.2,38.19,46.43,37.64Z"/><path class="cls-1" d="M43.79,38.84a40.74,40.74,0,0,0-6.72,0v-1.2c2.37-.1,4.72-.28,6.72.48Z"/><path class="cls-1" d="M36.59,39.08c-3.94.54-6.65,4.63-9.6,5-.38-.55-.51-.36-.72-1.2a12.64,12.64,0,0,0,3.84-2.16c-.6-.35-.51-.14-.72-1,2.16,0,6.3-2.47,7.2-1.92C36.81,38.31,36.67,38.31,36.59,39.08Z"/><path class="cls-1" d="M44.51,39.56l.24-1.2h.48c1.32,1,3.18,1.28,4.56,2.16,2,1.26,6.73,6.79,7.2,9.36-.19.24-.08.07-.24.48a3.86,3.86,0,0,1-1.2.24A16.72,16.72,0,0,0,52.91,46c-.14-.19-.86-.32-1-.48-.31-.5,0-1.53-.24-1.92-.1.86.12.6-.48,1C50.54,42.6,46.82,39.9,44.51,39.56Z"/><path class="cls-1" d="M70.67,39.32c2.19.6,4,6.31,5,8.4,1.82,3.5,4,7.3,5,11.52L81,64c0,.18-.67.59-.72.72-.63,1.6-.17,3.08-.72,4.56-1.51,4.09-3.81,7.3-6,10.56h-.24V79.4a2.11,2.11,0,0,1-.24-1.2c1.87-1.06,2.36-3.59,3.36-5.52a25,25,0,0,0,2.4-4.8c2.53-9.4-2.56-16.64-5.76-22.8C72.18,43.36,70.9,41.66,70.67,39.32Z"/><path class="cls-1" d="M41.87,39.8c-.09.5,0,.46-.24.72a3.16,3.16,0,0,1-1.68.24,3.17,3.17,0,0,0-2.4,0l-.24-1h2.16C40.15,39.35,41,39.7,41.87,39.8Z"/><path class="cls-1" d="M43.55,40a12.81,12.81,0,0,1,7.68,5.76l.72.48c.09.35-.28.72,0,1.2V47h.48v.24c1.12,1.22,1.51,3.12,2.88,4.08v.24h-.24c-.51.65-1.33.87-1.92,1.44h-.48v-.48C51.78,51.24,52,49,51.47,48c-.31.59.11.16-.48.48-.69-2.49-3.09-4.71-5-6-.89-.59-2.4-.66-2.88-1.68C43.46,40.44,43.34,40.61,43.55,40Z"/><path class="cls-1" d="M35.87,40.28h.72v.48c.36.46.45.8.24,1.2-.74.5-1.93,0-2.88.48-1.91,1-3.22,3.25-5.28,4.32A4.32,4.32,0,0,0,28,45.32c1.41-.88,2.68-2.23,4.08-3.12C33.2,41.46,34.88,41.2,35.87,40.28Z"/><path class="cls-1" d="M40.43,42v.72h-1.2l-1-1.2h1.2C39.85,41.92,39.69,41.81,40.43,42Z"/><path class="cls-1" d="M23.15,42a1.7,1.7,0,0,1,1.44,1.44C22.65,44.73,22.41,47,19.07,47l-.24-.72A28.46,28.46,0,0,0,23.15,42Z"/><path class="cls-1" d="M42.11,42.44c3.55,0,5.67,2.65,7,4.56.5.73,1.91,2,1.44,2.88-.24.66-.34.53-.72,1-.42-.15-.23-.05-.48-.24a30.13,30.13,0,0,1-2.16-3.36c-.27-.81.24-1,0-1.44-.32.39-.15.27-.72.48C45.52,45,42,43.44,42.11,42.44Z"/><path class="cls-1" d="M39.23,44.6c-3.74-.34-4.78.85-6.48,3.12-.58.77-1.2.67-1.44,1.92a6.63,6.63,0,0,1-2.16-.48v-.48c2.83-2.26,4.29-6.14,9.84-5v.24h.24Z"/><path class="cls-1" d="M25.31,43.88c.75.25.87.58,1.44,1v.48c-1.12.38-1.92,1.59-2.64,2.4a8.35,8.35,0,0,1-1.92-.24V47A14.88,14.88,0,0,0,25.31,43.88Z"/><path class="cls-1" d="M2.27,62.6c0-4.64,5-11,7.44-14.4,1-1.38,2-3.35,3.6-4.08v.24c.53.22.35.21.72.48-.57,1.68-2.45,2.84-3.36,4.32C8.92,52,7.89,55,6.11,57.8A57.14,57.14,0,0,0,3,62.6Z"/><path class="cls-1" d="M40.91,44.12c2.24.47,3.68,1.8,5.28,2.88-.4.85-.46,1.1-1.68,1.2l-1.44-1.92-2.4-1.2C40.47,44.59,40.85,44.38,40.91,44.12Z"/><path class="cls-1" d="M37.31,45.56l.72.24c-.15.42,0,.23-.24.48-.5.55-1.49.85-1.92,1.44-.93,1.29-.59,2.88-2.64,3.12a1.68,1.68,0,0,0-1-.48v-.72c.95-.67,1.27-2,2.16-2.64S36.41,46.21,37.31,45.56Z"/><path class="cls-1" d="M15,45.8A2,2,0,0,1,16.91,47c-1.43,1.16-2.1,3-3.12,4.56-1.52,2.41-3.53,4.76-5,7.2-.93,1.5-1.18,4.36-3.12,4.8a2.57,2.57,0,0,1-.48-1.2c1.79-1.93,2.44-4.89,3.84-7.2.84-1.38,1.49-3.08,2.4-4.56C12.43,48.93,14,47.5,15,45.8Z"/><path class="cls-1" d="M27,46a4,4,0,0,1,1,2.4,3.32,3.32,0,0,1-1,.24c-.47-.41-1.09-.38-1.44-1Z"/><path class="cls-1" d="M40,46c2.16.82,2.54,1.47,4.08,2.64l-.24.72c-.89.07-1.26.26-1.44.48-.19-.28,0-.78-.24-1.2-.52-1-1.69-1-2.64-1.68A1.65,1.65,0,0,0,40,46Z"/><path class="cls-1" d="M17.87,47.24l2.16.48v.48C17,50.66,15.91,55.57,13.79,59,12.3,61.42,10,63.08,8.51,65.48c-.42-.15-.23,0-.48-.24-.6-.35-.37-.11-.48-1,2-2.16,3-5.34,4.56-7.92C13.94,53.38,16.26,50.32,17.87,47.24Z"/><path class="cls-1" d="M37.07,48c.61.35.27-.05.48.72-.54.78-.62,2.16-1,3.12h-.48V50.36A17.92,17.92,0,0,0,37.07,48Z"/><path class="cls-1" d="M46.19,48c1.47.29,2.23,2.3,2.4,3.84A5.44,5.44,0,0,0,46.67,54h-.48C46.11,50.75,44.87,50.06,46.19,48Z"/><path class="cls-1" d="M60.11,56.12c0-3.14-1.7-4.38-1.92-7.2.49-.46.45-.69,1.2-1v.24a11,11,0,0,1,2.4,7C61.12,55.6,61.12,55.92,60.11,56.12Z"/><path class="cls-1" d="M39.23,50.6V48.68a2.62,2.62,0,0,1,1.2-.48c.36.58,1,1.42.72,1.92A2.79,2.79,0,0,1,39.23,50.6Z"/><path class="cls-1" d="M23.39,48.68c-.35,2.4-2.44,4.48-3.6,6.24-.77,1.18-.92,2.61-1.68,3.84-.55.9-1.64,1.73-2.16,2.64l-.24,2.4c-.37,1.3-1.19,2.46-1.44,4.08a2.5,2.5,0,0,1-1.68-.48c-.19-.25-.08-.07-.24-.48,1.18-1.38.34-2.86,1-5,.39-1.33,1.5-2.34,2.16-3.36.5-.76.47-1.64,1-2.4.95-1.46,2.19-3.33,3.12-4.8s.62-2.79,2.88-2.88A1.64,1.64,0,0,0,23.39,48.68Z"/><path class="cls-1" d="M17.63,68.6a4.6,4.6,0,0,1-2.4-.48,81.14,81.14,0,0,1,7.2-14.88c1-1.7.83-3.82,3.6-3.84a4.78,4.78,0,0,0,1,.48c-.5,2-1.75,3-2.64,4.56l-.72,2.4C21.56,60.4,18.12,63.57,17.63,68.6Z"/><path class="cls-1" d="M42.59,58.52V50.84a7.1,7.1,0,0,1,2.16-1v.48c.93,1.21.39,4.74.48,6.48C44.32,57.43,43.84,58.27,42.59,58.52Z"/><path class="cls-1" d="M28.19,50.36a8.78,8.78,0,0,1,2.4.48v.48c-1.05.83-4.83,8.19-5.28,9.84-.76,0-.32-.41-.72.24.1.2-3.56,7.42-4.08,7.68H19.07c-.37-.36-.44-.19-.72-.72,1.15-1.28,1.23-3.28,2.16-4.8,1.83-3,4.06-6.23,5.76-9.36.4-.73-.35-1,0-1.68S27.72,51.25,28.19,50.36Z"/><path class="cls-1" d="M50.27,54l-.48-2.4a2.6,2.6,0,0,0,1-1.2H51v.24a5.31,5.31,0,0,1,1,2.88h-.24v.24Z"/><path class="cls-1" d="M58,59.72a27.5,27.5,0,0,0-.24-4.32c-.35-1.38-1.18-2.54-1.44-4.08.63-.48.44-.75,1.44-1C58.28,52.06,61.12,58.87,58,59.72Z"/><path class="cls-1" d="M31.31,51.32h1.2c.48.63.75.44,1,1.44-1.41,1.18-1.6,3.45-2.4,5.28-1.22,2.82-3.19,5.31-4.56,7.92H26V62.84c-.18-.26-.14-.23-.24-.72C28.42,60,30.35,55,31.31,51.32Z"/><path class="cls-1" d="M41.63,51.56c0,3.2.23,6,.24,8.88,0,.81-1.52,2.76-1.68,4.32h-.72v-.48c-1-1.27-.74-2.64-.48-4.08h-.48v.24h-.24l-.48-2.16A2.62,2.62,0,0,1,39,57.8c.1.73-.08,1.61.24,2.16v-.24h.24c.53-1.47,0-4.94,0-7.68H40A3.58,3.58,0,0,1,41.63,51.56Z"/><path class="cls-1" d="M68.27,72.68a16.16,16.16,0,0,0-2.88.72c-.31,2.51-3.89,8.49-6.24,8.88-.31-.59.11-.16-.48-.48-.63,1.06-1.78,3-3.12,3.36.11-2.85,3.22-8,4.56-10.08.64-1,1.46-1.09,1.68-2.64-.44-.8.8-9,1-9.12.4-.47.35-.4,1.2-.48a35.52,35.52,0,0,1-1.44,11.28c-.53,1.63-1.33,2.86-1.44,5h.24v-.48c2.43-3.11,3.56-11.09,3.6-16.8a2.84,2.84,0,0,0,1-1h-.24c-.25.18-.22.14-.72.24l-.24-4.08h-.24v.24c-.68,1.14,0,3.57-.72,4.56a2.11,2.11,0,0,1-1.2.24c-.11-4.16.2-6,1.68-8.16h.48c.68,2.75,1.82,5.31,2.4,7.92.86,3.85-2.18,6.4-1,10.08h.24v-.24c.56-.64.21-1.09.48-2.16.62-2.46,1.28-6.83.48-9.84-.58-2.21-1.68-4.5-1.92-7,.74-.22.9-.5,1.68-.72.47,3.55,1.85,6.64,2.64,10.32C70.57,66.28,68.28,68.86,68.27,72.68Z"/><path class="cls-1" d="M55.07,52.28h1l.24.72c.9,1.19,1,6.5,1.2,8.4-.44.31-.41.47-1,.72v.24h-.24v-.24c-1.55-1.43-.53-7-1.92-7.92v.72c1.34,2-.32,8.93-.72,10.32h-.48c-.35-.51-.68-.6-1-1.2,1.61-2.26.78-7.15.72-10.32h.48c.46-.29,1.28-.14,1.44-.24C55.06,53.1,54.91,52.82,55.07,52.28Z"/><path class="cls-1" d="M33.71,52.76h1a2.37,2.37,0,0,0,.72,1.2c-.52,3-1.67,4.95-2.64,7.2-.27.64-1,4-1.2,4.32l-1,.24a10.55,10.55,0,0,0-2.4,3.36h-.48a4,4,0,0,1-1-2.16C29.51,64,33.07,57.6,33.71,52.76Z"/><path class="cls-1" d="M37.79,52.76l.72.24A23.83,23.83,0,0,0,38,56.36h-.48V53.72C37.75,53.44,37.74,53.32,37.79,52.76Z"/><path class="cls-1" d="M49.31,53.48a1.65,1.65,0,0,1,.48,1l-1,.24A2.34,2.34,0,0,1,49.31,53.48Z"/><path class="cls-1" d="M47.87,53.72c.6.31.17-.1.48.48-.19.28-.18.4-.24,1l-1,.24v-.72A4.31,4.31,0,0,0,47.87,53.72Z"/><path class="cls-1" d="M52.19,54.68c.28,4.58.08,14.88-3.6,15.6a1.62,1.62,0,0,0-.48-1c.29-1.25,1.06-2.07,1.44-3.12a24.76,24.76,0,0,0,1-7.44H50c-.23,3.08-1.09,8.23-2.64,10.8-.46.77-1.44,1.39-1.92,2.16-.8,1.29-.18,2.67-2.16,2.88-.24-.19-.06-.09-.48-.24v-.72A18.53,18.53,0,0,0,44,70.76c2-3.93,4.16-8.25,4.32-14.16a3.91,3.91,0,0,1,1-.48,1.64,1.64,0,0,1,1-.24A4.55,4.55,0,0,0,50.51,58a9.9,9.9,0,0,0,0-2.88A6,6,0,0,1,52.19,54.68Z"/><path class="cls-1" d="M47.63,57.32c.14,4.91-1.73,8.28-3.36,11.52-.67,1.34-.67,3.06-2.16,3.6a22.41,22.41,0,0,1-.48-2.88c1.22-1.44,2.81-3.59,2.88-6h-.24v-.24c-.19.24-.08.07-.24.48a8.72,8.72,0,0,0-1.68,3.36h-.48V65c1.13-1.83.52-4.45,2.88-5l-.48,2.88h.24V62.6c1-1.08.92-3,1.44-4.56A4.88,4.88,0,0,1,47.63,57.32Z"/><path class="cls-1" d="M61.31,57.56c.6.31.17-.1.48.48-.52.81-.47,3.22-.48,4.32a3.44,3.44,0,0,0-1,.48c0-1.54-.25-2.29-.24-3.12A5.77,5.77,0,0,0,61.31,57.56Z"/><path class="cls-1" d="M28.91,69.8v-.72c2.41-1.69,4.23-5.38,5.76-7.92.76-1.26.4-2.41,1.68-3.12v2.4a4.43,4.43,0,0,1,.24,2.16C34.13,64.37,33,67.87,30.83,70A3.78,3.78,0,0,0,28.91,69.8Z"/><path class="cls-1" d="M23.87,60.2c-.08.33.34.35.48.48C24.52,60.42,23.94,60.27,23.87,60.2Z"/><path class="cls-1" d="M11.87,63.08h.48c.07,1.69-.35,3.51-1.68,3.84-.41-.41-.66-.36-1-1A35.43,35.43,0,0,0,11.87,63.08Z"/><path class="cls-1" d="M55.55,63.08c.5.09.47.06.72.24.4.59.27,2.14.24,3.12-.73.37-.79,1-1,1.92h-.48v-.48a3.53,3.53,0,0,1,0-3.84A3.31,3.31,0,0,1,55.55,63.08Z"/><path class="cls-1" d="M37.31,63.56l.24,1.92c-1.62,1.2-2.13,4.58-4.32,5-.28-.19-.4-.19-1-.24v-.72C34,68.13,34.85,64.07,37.31,63.56Z"/><path class="cls-1" d="M61.55,63.56a28.13,28.13,0,0,1-1.92,11c-.53,1.24-1.5,2.13-1.92,3.6h-.48V76.52c.38-.63-.08-1.78.24-2.64A37.27,37.27,0,0,0,60.11,63.8Z"/><path class="cls-1" d="M4.43,63.8h.72a1.47,1.47,0,0,0,.48.48c-.15.42,0,.23-.24.48C5.09,66,3.66,68.19,2.51,68.6v-.72A10.49,10.49,0,0,0,4.43,63.8Z"/><path class="cls-1" d="M24.83,64h.48l.24,3.36c-1.32,1.13-.83,2-3.6,1.92v-.48C23.16,67.57,24,65.6,24.83,64Z"/><path class="cls-1" d="M6.83,65.72c.74.25.7.23,1,1-1.28,1.07-1.21,2.56-3.36,2.88v-.48A8.18,8.18,0,0,0,6.83,65.72Z"/><path class="cls-1" d="M37.55,66.2a3.73,3.73,0,0,1,.72,2.4c-1,.74-1.27,2.31-2.4,2.88-.18-.16-.53-.32-.72-.48s-.14-.23-.24-.72A9.82,9.82,0,0,0,37.55,66.2Z"/><path class="cls-1" d="M52.43,66.44c.5.09.47.06.72.24s.15.23.24.72c-.41.53-.53,1.4-1,1.92-.17.21-.3.27-.48.48-.42-.15-.23,0-.48-.24s-.14-.23-.24-.72C51.72,68.16,52,67.11,52.43,66.44Z"/><path class="cls-1" d="M9,67.16c1,.18,1.24.18,1.44,1.2-1.61,1.6-2.5,5.2-5.52,5.28v-.48A20.75,20.75,0,0,0,9,67.16Z"/><path class="cls-1" d="M11.63,68.12a2.17,2.17,0,0,1,1.92,1c-1.41,1.41-2.15,3.42-3.36,5-.66.89-1.86,1.37-2.64,2.16-.42-.15-.23,0-.48-.24S7,76,6.83,75.56C8.38,74.54,11.29,70.23,11.63,68.12Z"/><path class="cls-1" d="M54.59,68.12c.8,5.43-2.79,9.56-5.28,13.2-.84,1.24-1.48,3.19-3.12,3.6L45.71,83c2.27-1.15,5.37-7.51,6.48-10.08C52.86,71.38,52.9,68.6,54.59,68.12Z"/><path class="cls-1" d="M25.79,68.6c.53.22.35.21.72.48v.48c-.42.15-.23,0-.48.24-.42-.15-.23,0-.48-.24h-.24Z"/><path class="cls-1" d="M9.71,77.48v-1.2c2.13-1.47,4.2-6.88,6.48-7,.25.19.07.08.48.24v.72C14.62,72,12.85,77.22,9.71,77.48Z"/><path class="cls-1" d="M19.31,70c-.21,1.59-1.26,3-1.92,4.32h.24c.84-.93,3.18-4.08,4.32-4.32.26.18.23.14.72.24-.09.5-.05.46-.24.72-.53,1.54-2.21,2.61-3.12,3.84-2.09,2.82-6.16,9-10.32,9.36v-.48c2.16-1.39,7.74-5.84,8.16-8.64h.24l-.24-.48h-.24v.24c-3,1.83-4.57,6.31-8.88,6.72v-.24c.2-.25.09-.07.24-.48a21.48,21.48,0,0,0,7-6.48c.93-1.4,1.42-4.23,3.36-4.56C18.85,70,18.82,69.94,19.31,70Z"/><path class="cls-1" d="M38.27,70h.48A7.38,7.38,0,0,0,39.23,72a1.57,1.57,0,0,0-.48.48c-.42-.15-.23,0-.48-.24-.81-.23-.74-.09-1-1A3.75,3.75,0,0,0,38.27,70Z"/><path class="cls-1" d="M50.75,70.28c.87.34.77.74.72,1.92-1.42,1.84-1.81,4.22-3.12,6.24-.78,1.21-1.94,2.28-2.64,3.6h-.48l-.48-2.16C47.66,77.76,48.3,72.88,50.75,70.28Z"/><path class="cls-1" d="M24.11,70.52l2.4.24v.48C23,73.61,19.94,81.1,15,81.56v-.24a57.55,57.55,0,0,0,6-7.2C21.92,72.9,23.54,72.1,24.11,70.52Z"/><path class="cls-1" d="M47.63,70.76a1.62,1.62,0,0,1,1,.48c-.47.73-.35,1.77-.72,2.64-.5,1.2-1.74,1.5-2.4,2.4a5,5,0,0,1-.72,2.16h-.48V78a3.66,3.66,0,0,1-.48-1.68C44.84,75.78,46.55,72.1,47.63,70.76Z"/><path class="cls-1" d="M21,80.12v.72c-1.38.49-2.41,1.89-3.6,2.64a50.43,50.43,0,0,1-4.56,2.16c-.83.42-2,1.54-2.88,1.2-.42-.15-.23,0-.48-.24h.24c1.54-2.17,4.46-2.8,7-4.08s5.86-5.1,7.68-7.2c1.52-1.74,1.8-4.27,5-4.32.22.26,0,0,.24.24v.48C27.51,73.39,23.57,79.59,21,80.12Z"/><path class="cls-1" d="M30.59,71.72h1.2a9.78,9.78,0,0,0,.72.72h-.24c-.8,1.45-6.13,7.42-7.44,8.16a1.23,1.23,0,0,1-1.92-.72C24.66,78.74,29.91,73.67,30.59,71.72Z"/><path class="cls-1" d="M33.23,72.68l1.44.24v1c-2.13,1.7-6.56,8.3-9.36,8.64a2.57,2.57,0,0,1-.48-1.2A31.13,31.13,0,0,0,33.23,72.68Z"/><path class="cls-1" d="M79.55,72.68c.17.14.58.64.72.72h-1.2v-.48C79.49,72.77,79.31,72.87,79.55,72.68Z"/><path class="cls-1" d="M53.87,81.8a9.15,9.15,0,0,1-4.56,6.48,4.43,4.43,0,0,1-2.16.24v-.24h-.24l-.48-2.64C49,84.72,54,76.36,54.83,73.4h.48v2.4c-.41.65-.28,2-.72,2.64-1.37,3-4.48,5-6,7.92h.24A59.19,59.19,0,0,1,53.87,81.8Z"/><path class="cls-1" d="M35.39,73.88c1,.23,1.55.48,1.68,1.68-3.11,2.22-5.82,7.8-9.84,9.12a4,4,0,0,0-.72-1v-.24C29,82.62,34.19,76.25,35.39,73.88Z"/><path class="cls-1" d="M78.59,73.88c.61.35.27,0,.48.72h-.48v.24h-.24V74.6c-.19-.25-.08-.07-.24-.48C78.53,74,78.35,74.07,78.59,73.88Z"/><path class="cls-1" d="M70.19,74.36h1.68c-.13,4.77-3.66,6.29-6.48,8.4-1.38,1-1.92,3.12-4.08,3.36a3.79,3.79,0,0,1-.24-1,29.94,29.94,0,0,0,5-5.28c1.07-1.68.7-4,3.12-4.32V76a9.25,9.25,0,0,0-1.92,4.08h.24c.25-.19.07-.09.48-.24C68.74,77.91,70.14,77.41,70.19,74.36Z"/><path class="cls-1" d="M37.79,75.56c1.06.28,1.41.55,1.44,1.92-1.47,1-2.27,2.68-3.36,4.08a20.25,20.25,0,0,1-4.08,3.36c-.79.57-1.7,2-2.64,1.68A1.44,1.44,0,0,1,28,85.4C30.46,84.15,37,78.28,37.79,75.56Z"/><path class="cls-1" d="M77.87,76.76c.6.31.17-.1.48.48h-.24C77.6,78.72,76,79.59,75,80.6c-2.4,2.38-4.45,6.24-7.68,7.68-.28-.19-.4-.19-1-.24-.15-.42,0-.23-.24-.48v-.48c2.41-1.19,3.44-3.15,5.28-4.8C73.49,80.4,76,78.81,77.87,76.76Z"/><path class="cls-1" d="M8.27,77.48a3,3,0,0,1,1,.24,2.87,2.87,0,0,1-2.64,1.92l-.24-.48A6.09,6.09,0,0,0,8.27,77.48Z"/><path class="cls-1" d="M40.67,77.72l.24,2.16c-1.22.5-1.86,1.89-2.64,2.88-1,1.27-5.38,5.07-7.2,5.28-.24-.19-.06-.09-.48-.24l-.24-.72c2.73-1.65,5-4.27,7.2-6.48C38.51,79.64,39.05,78,40.67,77.72Z"/><path class="cls-1" d="M77.39,79.88h.48v1c-1.78,1.17-3.13,2.93-5,4.08V84C74.24,82.67,76.24,81.39,77.39,79.88Z"/><path class="cls-1" d="M14.75,87.32V86.6c2.46-1.41,5.91-3.67,7.44-6l.72.24a3.41,3.41,0,0,1,.24,1.2C20,83.17,19.09,87.15,14.75,87.32Z"/><path class="cls-1" d="M41.39,80.84,41.63,83c-2.65,1.79-3.5,5.27-7.92,5.28.09-.5.06-.46.24-.72C34.8,86.65,40.61,81,41.39,80.84Z"/><path class="cls-1" d="M23.87,82.28c.69.27.45,0,.72.72.2.28.19.4.24,1-1.6,1-2.76,2.52-5,2.88v-.48A24.23,24.23,0,0,0,23.87,82.28Z"/><path class="cls-1" d="M76.67,83h1v.48h-1Z"/><path class="cls-1" d="M75.47,84.2c.73,0,.66-.18,1,0,.3.38.16.12,0,.48a1.68,1.68,0,0,1-1,.48Z"/><path class="cls-1" d="M37.55,88.52v-1c1.71-.87,2.79-2.71,4.56-3.36v1.92h.24v.24c-2.07.26-1.89,2.11-4.08,2.4C38,88.58,38.05,88.62,37.55,88.52Z"/><path class="cls-1" d="M25.31,84.68c.81.27.8.27,1,1.2-1.57.81-7.38,4.37-9.12,3.12-.19-.25-.08-.07-.24-.48C19.76,87.21,23.32,86.83,25.31,84.68Z"/><path class="cls-1" d="M73.31,85.4h1v.48a11.3,11.3,0,0,0-2.88,2.4h.72a10,10,0,0,1,3.12-1.2v.72c-1.63.51-1.59,1.43-4.08,1.44-.65-.43-1.73-.27-2.16-1A20,20,0,0,0,73.31,85.4Z"/><path class="cls-1" d="M26.51,86.6c.5.09.47.06.72.24s.27.3.48.48c-.15.42,0,.23-.24.48-1.33,1.29-3.09,1.94-5.76,1.92v-.48A10.33,10.33,0,0,0,26.51,86.6Z"/><path class="cls-1" d="M14,86.84c.6.31.17-.1.48.48.18.26.15.23.24.72-1.72.38-2.78,1.38-4.56,1.68L10,89A9.38,9.38,0,0,0,14,86.84Z"/><path class="cls-1" d="M58.19,86.84v.72c-3.76,1.28-5.92,5.51-10.56,6v-1.2a28.08,28.08,0,0,0,3.84-1.92C54.13,88.65,53.4,87.06,58.19,86.84Z"/><path class="cls-1" d="M41.87,87.08h.48v2.16h-.48A1.41,1.41,0,0,1,40.19,89H40v-.24A7.92,7.92,0,0,0,41.87,87.08Z"/><path class="cls-1" d="M47.63,96.44V94c1.88-.16,7.83-3.3,9.36-4.32,1.36-.9,1.74-2.44,3.84-2.64.6.51,1.74.5,2.16,1.2h-.24c-1,1-2.62,1.35-3.84,2.16C55.74,92.54,52.26,96,47.63,96.44Z"/><path class="cls-1" d="M65.63,88.76v.72c-1.8.45-3,1.65-4.8,2.16v.48h.72c.72-.48,1.78-.36,2.64-.72,1.09-.45,2.36-1.86,3.36-2.16l2.16.24v.24h-.24c-2.55,2.37-6.07,2.82-9.6,4.32-3.78,1.6-6.94,4.83-11.52,5.52l-.24-2.4c3.72-.91,7.52-3.36,10.56-5.28C60.8,90.54,62.59,88.48,65.63,88.76Z"/><path class="cls-1" d="M15.71,89.24c.82.23.75.09,1,1h-.48a7.28,7.28,0,0,1-3.84,1v-.48A12.23,12.23,0,0,0,15.71,89.24Z"/><path class="cls-1" d="M19.79,95.48v-.72a53,53,0,0,0,6-2.16c2.07-.9,3-2.33,6-2.4v.48h-.24C29.57,92.51,23,95,19.79,95.48Z"/><path class="cls-1" d="M35.39,90.44c-.09.5,0,.46-.24.72-1,.92-2.54,1.25-3.84,1.92-4,2.09-8.48,4.68-13.92,4.56v-.48l.72-.24c1.46-1.24,4.22-1,6.24-1.68a31.72,31.72,0,0,0,6.48-2.88C32.39,91.39,32.67,90.49,35.39,90.44Z"/><path class="cls-1" d="M18.35,90.68l1.92.24v.48h-.48c-.76.64-5.42,2.51-6.72,1.68h.48C14.82,91.92,17,91.78,18.35,90.68Z"/><path class="cls-1" d="M24.11,90.68h2.16v.48h-.48c-1.68,1.54-7.85,3.93-10.56,4.32V95c2.33-1.29,5-2.86,7.2-4.08C23,90.64,23.74,90.93,24.11,90.68Z"/><path class="cls-1" d="M36.59,90.92a3.38,3.38,0,0,1,1.68.48v.48c-1.88.59-2.89,1.94-5.28,2.16l-.24-.72C33.81,92.73,35.84,91.87,36.59,90.92Z"/><path class="cls-1" d="M70.19,91.16c.47.4.4.35.48,1.2h-.24c-.24-.19-.06-.09-.48-.24v-.48C70.15,91.39,70,91.57,70.19,91.16Z"/><path class="cls-1" d="M39.23,91.88c.78.17,1.13.3,1.44,1h-.24c-1.21,1.58-6.52,4-8.64,4.8-1.21.44-2.81.67-3.36-.24C32,95.35,36.5,94.75,39.23,91.88Z"/><path class="cls-1" d="M67.79,92.12h1.68v.24h-.24v.24l-8.4,4.8c-2.16.94-4.08.83-5.52,2.4l-2.16-.72v-.72c3.5-.84,6.8-3.42,10.08-4.8C64.7,92.94,66.59,93,67.79,92.12Z"/><path class="cls-1" d="M40.67,93.56h1c.16.42,0,.23.24.48a5.89,5.89,0,0,0-.24,2.4h-.24v.24c-3.1,0-4.75,1.11-7,1.92s-4.79,1.31-7,1.92c-1.82.52-4.6,1.28-5.52.24h.48c2.11-1.33,5.42-1.1,7.92-1.92C33.45,97.83,38.6,95.62,40.67,93.56Z"/><path class="cls-1" d="M32,94c.29.51.12.54,0,1.2a25.46,25.46,0,0,0-4.32,1.44c-.38.29-.34,1.19-.72,1.44l-3.12.48c-.79.27-2.92,1.37-3.6,1a1.57,1.57,0,0,1-.48-.48l.72-.24c1.08-.72,2.59-.66,3.84-1.2,1.78-.76,3.76-2.11,5.52-2.88C30.65,94.42,31.42,94.5,32,94Z"/><path class="cls-1" d="M41.15,97.4l-.24,1.92c-4.08.23-8.42,3.14-13,3.6-.18-.63-.28-.57-.48-1.2h.24v-.24C32.78,101.2,36.2,97.89,41.15,97.4Z"/><path class="cls-1" d="M40.43,100.28V101h-1v-.24c.2-.25.09-.07.24-.48Z"/><path class="cls-1" d="M24.59,102.92v-.72c.82,0,1-.22,1.44,0s.27.15.48.72h-.24c-.25.18-.22.14-.72.24C25.27,103,25.15,103,24.59,102.92Z"/></svg>