<svg id="Livello_1" data-name="Livello 1" xmlns="http://www.w3.org/2000/svg" xmlns:xlink="http://www.w3.org/1999/xlink" viewBox="0 0 1996.36 1485.82"><defs><style>.cls-1{fill:none;stroke:#cebc19;}.cls-1,.cls-2,.cls-3,.cls-4{stroke-miterlimit:10;stroke-width:25px;}.cls-2{fill:url(#Sfumatura_senza_nome_3);stroke:url(#Sfumatura_senza_nome_3-2);}.cls-3{fill:url(#Sfumatura_senza_nome_3-3);stroke:url(#Sfumatura_senza_nome_5);}.cls-4{fill:url(#Sfumatura_senza_nome_3-4);stroke:url(#Sfumatura_senza_nome_2);}.cls-5{fill:url(#Sfumatura_senza_nome_6);}.cls-6{fill:url(#Sfumatura_senza_nome_6-2);}</style><linearGradient id="Sfumatura_senza_nome_3" x1="1511.24" y1="1056.48" x2="774.78" y2="1048.67" gradientUnits="userSpaceOnUse"><stop offset="0" stop-color="#ebae09"/><stop offset="0.16" stop-color="#e7ac0a"/><stop offset="0.31" stop-color="#dca40c"/><stop offset="0.45" stop-color="#ca970f"/><stop offset="0.58" stop-color="#b08614"/><stop offset="0.72" stop-color="#8e6f1a"/><stop offset="0.85" stop-color="#655322"/><stop offset="0.98" stop-color="#35322a"/><stop offset="1" stop-color="#2c2c2c"/></linearGradient><linearGradient id="Sfumatura_senza_nome_3-2" x1="814.11" y1="1053.96" x2="1575.61" y2="1053.96" xlink:href="#Sfumatura_senza_nome_3"/><linearGradient id="Sfumatura_senza_nome_3-3" x1="853.34" y1="934.79" x2="326.02" y2="935" xlink:href="#Sfumatura_senza_nome_3"/><linearGradient id="Sfumatura_senza_nome_5" x1="419.87" y1="934.89" x2="972.29" y2="934.89" gradientUnits="userSpaceOnUse"><stop offset="0" stop-color="#ebae09"/><stop offset="0.28" stop-color="#e9ac09"/><stop offset="0.43" stop-color="#e1a70b"/><stop offset="0.55" stop-color="#d39e0d"/><stop offset="0.65" stop-color="#c09111"/><stop offset="0.74" stop-color="#a78015"/><stop offset="0.83" stop-color="#896b1b"/><stop offset="0.9" stop-color="#645222"/><stop offset="0.98" stop-color="#3c3729"/><stop offset="1" stop-color="#2c2c2c"/></linearGradient><linearGradient id="Sfumatura_senza_nome_3-4" x1="1919.96" y1="394.56" x2="-201.53" y2="403.92" xlink:href="#Sfumatura_senza_nome_3"/><linearGradient id="Sfumatura_senza_nome_2" x1="29.11" y1="400.55" x2="1967.25" y2="400.55" gradientUnits="userSpaceOnUse"><stop offset="0" stop-color="#ebae09"/><stop offset="0.1" stop-color="#e2a80b"/><stop offset="0.28" stop-color="#c9970f"/><stop offset="0.49" stop-color="#a27c16"/><stop offset="0.75" stop-color="#6a5621"/><stop offset="1" stop-color="#2c2c2c"/></linearGradient><linearGradient id="Sfumatura_senza_nome_6" x1="1001.52" y1="447.85" x2="2581.51" y2="1526.62" gradientUnits="userSpaceOnUse"><stop offset="0.19" stop-color="#fff" stop-opacity="0"/><stop offset="0.24" stop-color="#fff" stop-opacity="0.5"/><stop offset="0.3" stop-color="#fff" stop-opacity="0"/></linearGradient><linearGradient id="Sfumatura_senza_nome_6-2" x1="833" y1="345.54" x2="2428.56" y2="1401.14" xlink:href="#Sfumatura_senza_nome_6"/></defs><path class="cls-1" d="M1594.77,335.47a250.22,250.22,0,0,1-32.59-2.12C1575.18,334.2,1586.18,335,1594.77,335.47Z"/><path class="cls-2" d="M1549.75,668.66a13.32,13.32,0,0,1,12.84,17c-.07.21-.13.42-.19.64a316.78,316.78,0,0,1-249.77,223.56,13.31,13.31,0,0,0-11,12A704,704,0,0,1,1175.8,1266a711.08,711.08,0,0,1-170.39,170.85,13.36,13.36,0,0,1-15.45,0,711.14,711.14,0,0,1-160.73-157.45,13.32,13.32,0,0,1,4.91-19.95,356.28,356.28,0,0,0,163.54-158.79,352.41,352.41,0,0,0,38.26-140.51v0q-.37-7.19-.37-14.47,0-10.26.74-20.33h0a275.22,275.22,0,0,1,19.63-84.09c37.19-91.28,121.67-158.26,223-170.49a277.29,277.29,0,0,1,33.55-2Z"/><path class="cls-3" d="M959.79,945.6q0,7.3-.37,14.51c-5.56,107.77-72.74,199.25-167,239.9a13.65,13.65,0,0,1-17.4-6.07,702.89,702.89,0,0,1-81.3-271.87,13.67,13.67,0,0,0-11.27-12.29A316.79,316.79,0,0,1,433,686.26l0-.18a13.67,13.67,0,0,1,13.18-17.42H682.86a277.29,277.29,0,0,1,33.55,2c101.34,12.23,185.83,79.21,223,170.5a275.09,275.09,0,0,1,19.63,84.08h0Q959.79,935.34,959.79,945.6Z"/><path class="cls-4" d="M1954.75,261.06a336.71,336.71,0,0,1-238.12,322.21,23.16,23.16,0,0,1-6.72,1H1313.5a354.9,354.9,0,0,0-293.73,155.81q-1.35,2-2.67,4a23.22,23.22,0,0,1-38.84,0c-.89-1.35-1.78-2.69-2.69-4v0a356.4,356.4,0,0,0-64-71.35c-46.87-39.87-103.23-67.76-166.37-78.94a356.37,356.37,0,0,0-62.31-5.46H286.45a23.1,23.1,0,0,1-6.71-1A337,337,0,0,1,111.48,55.6c13.86-18,42.82-7.25,41.44,15.43q-.45,7.59-.46,15.3a249.23,249.23,0,0,0,281,247.1c.45-.05.89-.1,1.34-.13,34.77-2.23,83.63-5.06,138.72-5.77,42.39-.55,88.48.16,134.68,3.35C773.77,335.42,838.53,345,894.31,363c34.42,11.14,65,25.54,89.45,44a23.1,23.1,0,0,0,27.84,0c24.42-18.48,55-32.88,89.45-44,55.78-18.07,121.54-27.61,187.06-32.15,46.2-3.19,92.29-3.9,134.68-3.35,55.42.72,104.52,3.58,139.33,5.82h.06a250.22,250.22,0,0,0,32.59,2.12A249.15,249.15,0,0,0,1843.9,86.33q0-7.71-.46-15.3c-1.37-22.68,27.58-33.42,41.45-15.43A335.49,335.49,0,0,1,1954.75,261.06Z"/><path class="cls-5" d="M1954.75,261.06a336.71,336.71,0,0,1-238.12,322.21,22.88,22.88,0,0,1-6.72,1h-91.45l-58.6,89a13.16,13.16,0,0,1,2.72,12.34l-.18.63a316.8,316.8,0,0,1-249.78,223.57,13.3,13.3,0,0,0-11,12A704,704,0,0,1,1175.8,1266a710.9,710.9,0,0,1-170.39,170.85,13.37,13.37,0,0,1-15.46,0,711.09,711.09,0,0,1-160.72-157.45,13.31,13.31,0,0,1,4.91-19.94l-54.76-60.67h0L775,1194a702.77,702.77,0,0,1-81.3-271.87,13.69,13.69,0,0,0-11.28-12.3A316.8,316.8,0,0,1,433,686.26c0-.06,0-.12,0-.17L305,584.26h-18.5c-2.27,0-180.25-101.31-218.68-192.82A337.36,337.36,0,0,1,111.48,55.61c13.86-18,42.81-7.25,41.44,15.42q-.45,7.59-.46,15.3A249.15,249.15,0,0,0,401.59,335.47a250.84,250.84,0,0,0,31.92-2c.45-.06.89-.1,1.34-.13,34.77-2.24,83.62-5.06,138.72-5.78,42.39-.55,88.48.16,134.68,3.35C773.77,335.42,838.53,345,894.31,363c34.42,11.15,65,25.55,89.45,44a23.07,23.07,0,0,0,27.84,0c24.42-18.47,55-32.87,89.45-44,55.78-18.07,121.54-27.61,187.06-32.15,46.2-3.19,92.29-3.9,134.68-3.35,55.42.72,104.52,3.58,139.33,5.82h.06a250.22,250.22,0,0,0,32.59,2.12A249.15,249.15,0,0,0,1843.9,86.33q0-7.71-.46-15.3c-1.37-22.67,27.58-33.42,41.44-15.42A335.41,335.41,0,0,1,1954.75,261.06Z"/><path class="cls-6" d="M1954.75,261.06a336.71,336.71,0,0,1-238.12,322.21,22.88,22.88,0,0,1-6.72,1h-91.45l-58.6,89a13.16,13.16,0,0,1,2.72,12.34l-.18.63a316.8,316.8,0,0,1-249.78,223.57,13.3,13.3,0,0,0-11,12A704,704,0,0,1,1175.8,1266a710.9,710.9,0,0,1-170.39,170.85,13.37,13.37,0,0,1-15.46,0,711.09,711.09,0,0,1-160.72-157.45,13.31,13.31,0,0,1,4.91-19.94l-54.76-60.67h0L775,1194a702.77,702.77,0,0,1-81.3-271.87,13.69,13.69,0,0,0-11.28-12.3A316.8,316.8,0,0,1,433,686.26c0-.06,0-.12,0-.17L305,584.26h-18.5c-2.27,0-180.25-101.31-218.68-192.82A337.36,337.36,0,0,1,111.48,55.61c13.86-18,42.81-7.25,41.44,15.42q-.45,7.59-.46,15.3A249.15,249.15,0,0,0,401.59,335.47a250.84,250.84,0,0,0,31.92-2c.45-.06.89-.1,1.34-.13,34.77-2.24,83.62-5.06,138.72-5.78,42.39-.55,88.48.16,134.68,3.35C773.77,335.42,838.53,345,894.31,363c34.42,11.15,65,25.55,89.45,44a23.07,23.07,0,0,0,27.84,0c24.42-18.47,55-32.87,89.45-44,55.78-18.07,121.54-27.61,187.06-32.15,46.2-3.19,92.29-3.9,134.68-3.35,55.42.72,104.52,3.58,139.33,5.82h.06a250.22,250.22,0,0,0,32.59,2.12A249.15,249.15,0,0,0,1843.9,86.33q0-7.71-.46-15.3c-1.37-22.67,27.58-33.42,41.44-15.42A335.41,335.41,0,0,1,1954.75,261.06Z"/></svg>