<?xml version="1.0" encoding="utf-8"?>
<!-- Generator: Adobe Illustrator 26.0.0, SVG Export Plug-In . SVG Version: 6.00 Build 0)  -->
<svg version="1.1" id="Livello_1" xmlns="http://www.w3.org/2000/svg" xmlns:xlink="http://www.w3.org/1999/xlink" x="0px" y="0px"
	 viewBox="0 0 1986.6 1485.8" style="enable-background:new 0 0 1986.6 1485.8;" xml:space="preserve">
<style type="text/css">
	.st0{fill:url(#SVGID_1_);}
	.st1{fill:url(#SVGID_00000028325926446682075670000007292334725330203032_);}
	.st2{fill:url(#SVGID_00000181066621486726425730000002235721090887136939_);}
</style>
<g>
	<g id="Faccia">
		
			<linearGradient id="SVGID_1_" gradientUnits="userSpaceOnUse" x1="1506.4044" y1="395.4697" x2="769.9344" y2="403.2799" gradientTransform="matrix(1 0 0 -1 0 1483.8899)">
			<stop  offset="0" style="stop-color:#FFFFFF;stop-opacity:0.8"/>
			<stop  offset="1" style="stop-color:#FFFFFF;stop-opacity:0"/>
		</linearGradient>
		<path class="st0" d="M1544.9,700.6c7.4,0,13.3,5.9,13.3,13.3c0,1.3-0.2,2.5-0.5,3.7l-0.2,0.6c-33.8,116.1-130.7,202.8-249.8,223.6
			c-6,1-10.5,6-11,12c-10.8,123.8-54.2,242.6-125.8,344.2c-46.7,66.2-104.3,124-170.4,170.8c-4.6,3.3-10.8,3.3-15.5,0
			c-61.6-43.6-115.8-96.8-160.7-157.5c-4.4-5.9-3.2-14.2,2.7-18.6c0.7-0.5,1.4-0.9,2.2-1.3c70.5-33.6,127.9-89.4,163.6-158.8
			c22.4-43.7,35.4-91.5,38.3-140.5l0,0c-0.2-4.8-0.4-9.6-0.4-14.5c0-6.8,0.2-13.6,0.7-20.3l0,0c2.1-28.9,8.7-57.3,19.6-84.1
			c37.2-91.3,121.7-158.3,223-170.5c11.1-1.3,22.3-2,33.6-2L1544.9,700.6z"/>
	</g>
	<g id="Orecchio">
		
			<linearGradient id="SVGID_00000181796235786030186540000002715155045160999325_" gradientUnits="userSpaceOnUse" x1="848.4948" y1="517.1892" x2="321.1819" y2="516.9791" gradientTransform="matrix(1 0 0 -1 0 1483.8899)">
			<stop  offset="0" style="stop-color:#FFFFFF;stop-opacity:0.8"/>
			<stop  offset="1" style="stop-color:#FFFFFF;stop-opacity:0"/>
		</linearGradient>
		<path style="fill:url(#SVGID_00000181796235786030186540000002715155045160999325_);" d="M955,977.5c0,4.9-0.1,9.7-0.4,14.5
			c-5.6,107.8-72.8,199.2-167,239.9c-6.5,2.8-14,0.2-17.4-6.1c-45.3-84.2-73-176.7-81.3-271.9c-0.5-6.2-5.2-11.2-11.3-12.3
			c-119-20.8-215.7-107.5-249.5-223.5l0-0.2c-2.1-7.3,2.1-14.8,9.4-16.9c1.2-0.4,2.5-0.5,3.8-0.5l270.3,2l0,0
			c101.3,12.2,185.8,79.2,223,170.5c10.9,26.8,17.6,55.2,19.6,84.1l0,0C954.7,963.9,954.9,970.7,955,977.5z"/>
	</g>
	<g id="Corna">
		
			<linearGradient id="SVGID_00000090282643257957497570000001133727151586300579_" gradientUnits="userSpaceOnUse" x1="1915.1147" y1="1057.4062" x2="-206.3653" y2="1048.0563" gradientTransform="matrix(1 0 0 -1 0 1483.8899)">
			<stop  offset="0" style="stop-color:#FFFFFF;stop-opacity:0.8"/>
			<stop  offset="1" style="stop-color:#FFFFFF;stop-opacity:0"/>
		</linearGradient>
		<path style="fill:url(#SVGID_00000090282643257957497570000001133727151586300579_);" d="M1949.9,293
			c0.1,148.1-96.5,278.8-238.1,322.2c-2.2,0.7-4.4,1-6.7,1h-396.4c-117.7,0-227.7,58.4-293.8,155.8c-0.9,1.3-1.8,2.7-2.7,4
			c-7,10.7-21.4,13.7-32.1,6.7c-2.7-1.7-4.9-4-6.7-6.7c-0.9-1.3-1.8-2.7-2.7-4l0,0c-18-26.6-39.6-50.6-64-71.3
			c-46.9-39.9-103.2-67.8-166.4-78.9c-20.6-3.6-41.4-5.5-62.3-5.5H281.6c-2.3,0-4.5-0.3-6.7-1C96.9,560.6-3,372.1,51.6,194.1
			c11.8-38.5,30.5-74.6,55.1-106.6c13.9-18,42.8-7.2,41.4,15.4c-0.3,5.1-0.5,10.2-0.5,15.3c0.1,137.6,111.7,249.2,249.3,249.1
			c10.6,0,21.2-0.7,31.7-2c0.4,0,0.9-0.1,1.3-0.1c34.8-2.2,83.6-5.1,138.7-5.8c42.4-0.5,88.5,0.2,134.7,3.4
			c65.5,4.5,130.3,14.1,186.1,32.1c34.4,11.1,65,25.5,89.5,44c8.2,6.2,19.6,6.2,27.8,0c24.4-18.5,55-32.9,89.5-44
			c55.8-18.1,121.5-27.6,187.1-32.1c46.2-3.2,92.3-3.9,134.7-3.4c55.4,0.7,104.5,3.6,139.3,5.8h0.1c10.8,1.4,21.7,2.1,32.6,2.1
			c137.6,0,249.2-111.5,249.2-249.1c0,0,0,0,0,0c0-5.1-0.2-10.2-0.5-15.3c-1.4-22.7,27.6-33.4,41.4-15.4
			C1925.4,146.4,1950,218.6,1949.9,293z"/>
	</g>
</g>
</svg>
