<?xml version="1.0" encoding="utf-8"?>
<!-- Generator: Adobe Illustrator 26.0.0, SVG Export Plug-In . SVG Version: 6.00 Build 0)  -->
<svg version="1.1" id="Livello_1" xmlns="http://www.w3.org/2000/svg" xmlns:xlink="http://www.w3.org/1999/xlink" x="0px" y="0px"
	 viewBox="0 0 223.1 154.4" style="enable-background:new 0 0 223.1 154.4;" xml:space="preserve">
<style type="text/css">
	.st0{fill-rule:evenodd;clip-rule:evenodd;fill:#1D1D1B;}
</style>
<path class="st0" d="M14.4,98.3l-0.3,0.3c-1-0.5-1.8-2.6-0.5-3.3l0.2,0.1C14.3,96.3,14.5,97.3,14.4,98.3z"/>
<path class="st0" d="M9.8,100.9l-0.4,0.3c-0.4-0.2-0.7-0.6-0.7-1.1c0-0.1,0-0.1,0.1-0.2l0.3-0.2C9.6,99.9,9.9,100.4,9.8,100.9z"/>
<path class="st0" d="M22.6,104.3h0.3c1.4,1.9,1.7,4.2,2,7.4c-0.3,0.1-0.2,0.1-0.5-0.1c-0.6-2.1-1-5-1.8-7.1
	C22.5,104.4,22.6,104.3,22.6,104.3z"/>
<path class="st0" d="M16.7,106.2h-0.4c-0.5-0.3-0.8-0.8-0.8-1.3l0.3-0.2l0.4,0.1C16.4,105.2,16.7,105.7,16.7,106.2z"/>
<path class="st0" d="M69.1,116.3c2.8,0.7,5.7-1.1,8.9-0.4l0.2,0.4c-1.6,0.6-9.3,1.7-11.5,1.1c-1.3-0.4-2.2-1.8-3.3-2.5l-5-2.8
	c-2.5-1.8-4.1-5.2-5.9-7.7l-3.2-3.7l-1.8-1.4L47,97.2c-0.8-1.3-2.4-2.3-3.3-3.6c-1.5-2-2.1-4.1-3.2-6.6c-0.4-0.9-2.1-1.8-1.5-3.2h0
	l0.1,0.1c1.4,1,2.4,2.5,2.9,4.2c0.2,0.7,0,1.3,0.4,1.7l1.5,1.6l3.7,5.4l2.4,2.1c0.7,1.1,0.8,2.1,1.5,3l4.1,4c1.2,1.6,2.3,3.8,3.9,5
	c1.8,1.4,4,2.2,6.1,3.5C66.7,115.2,67.9,115.8,69.1,116.3z"/>
<path class="st0" d="M102.7,106c-0.5,0.2-1.8,0.9-2.4,0.5c0.6-1,1.5-1.7,2.7-2l1.4-0.2c1.2-0.6,1.3-2.5,3.7-2.7c0,0.1,0,0.1,0.1,0.2
	C106.8,103.7,104.9,105.2,102.7,106z"/>
<path class="st0" d="M20.4,97.6c1.6,0.2,1.9,2.3,1.9,4.2l-0.4,0.1C21.2,101,20,99.3,20.4,97.6z"/>
<path class="st0" d="M12.6,100.4v0.4c-0.3,0.3-0.3,0.5-0.9,0.6c-0.4-0.3-0.6-0.8-0.5-1.3c0.1-0.3,0-0.2,0.2-0.3l0.4-0.1
	C12.1,99.9,12.4,100.1,12.6,100.4z"/>
<path class="st0" d="M15,88.1c0.4,0.7,0.5,1.4,0.4,2.2c0,0.1-0.1,0.2-0.1,0.3l-0.4-0.1c-0.5-0.8-0.6-1.7-0.4-2.6
	C14.9,87.9,14.9,87.9,15,88.1z"/>
<path class="st0" d="M16.5,94.8c-0.2,0.2-0.1,0.1-0.4,0.2c-0.5-0.4-0.7-1.1-0.6-1.7l0.3-0.1C16.4,93.4,16.6,93.8,16.5,94.8z"/>
<path class="st0" d="M6,82.1c-0.3,0.2-1.1,0.4-1.4,0v-0.5l0.2-0.4h0.3l0.8,0.5C6,81.8,6,81.9,6,82.1z"/>
<path class="st0" d="M17.5,97.4l0.1,0.2c0.4,1.5,0.8,3,1.1,4.5c0.7,2.1,1.4,4.2,2.1,6.3l-0.4,0.1c-0.7-0.6-1.2-1.6-1.2-2.5v-1.6
	C18.6,102.4,15.5,100.2,17.5,97.4L17.5,97.4z"/>
<path class="st0" d="M11.4,97.1l-0.5,0.3c-0.6-0.1-0.4-0.7,0-0.9l0.2-0.1c0.1,0.1,0.2,0.2,0.3,0.4V97.1z"/>
<path class="st0" d="M108.8,76.2c0,0.3,0,0.6,0.1,0.9c-0.6,1.1-1.5,2.1-2.7,2.6l-0.3-0.1c0-1.7,1.1-3.1,2.7-3.7
	C108.7,76,108.8,76.1,108.8,76.2z"/>
<path class="st0" d="M114.6,73.9c0.5-2.3-2-3.2-1.3-5l0.1-0.3c0.5,0,0.5,0.2,0.7,0.4c0.9,1.9,1.9,3.3,1.9,6.2
	c-0.8,1.1-2,1.7-2.5,2.6c0.2,0.6,0.9,1.2,0.7,1.9c-0.4,0.7-1,1.2-1.8,1.3l0.2-3.2C113.1,76.4,114.3,75.5,114.6,73.9z"/>
<path class="st0" d="M108.9,75.6c0.1-0.7,0.8-1.6,0.3-2.3c-0.3-0.5-0.9-0.5-1.2-0.9c-0.6-1,0.3-1.7,1.3-1.7c0.8,1.2,1.2,2.6,1.2,4
	C110.2,75.2,109.6,76.1,108.9,75.6z"/>
<path class="st0" d="M93.1,95.3c0.2,0.2,0.3,0.2,0.4,0.7c-2.9,1.6-14.1,1.7-15.7-0.9c0,0,0-0.1,0.1-0.1
	C82.8,95.3,88.6,97.1,93.1,95.3z"/>
<path class="st0" d="M223.1,154.4H0V0h223.1V154.4z M123.9,6l-0.1,0.1c0.3,1.7,3.2,3.9,4.2,5.2c0.9,1.1,1.9,2.1,3,3l2.2,1.7
	c1.2,1.7,1.9,3.5,3.4,4.8c1.2,1.1,4.3,4,4.7,5.7l-0.3-0.1c-2.2-1-4.5-3.9-6.2-5.6l-10.2-10.4l-1.4-1.9l-1.3-0.4
	c-1.4-0.9-2.5-3.5-4.7-3.3v0.4c4.2,5.7,9.3,10.3,14.2,15.2l6,6.4c2.4,1.6,5.5,2.6,7.2,4.9l1.6,2.5c2.2,2.9,4.7,5.5,6.6,8.7l1.5,3.2
	c0.3,1.1,0.3,2.4,0.9,3.3c0.4,0.6,1.3,1,1.7,1.7c1,1.8,1.2,4,1.8,6.1c0.8,3,2,5.9,3.5,8.6c-0.7,2,0.6,7,1.4,8.4h0.3l0.1-0.2
	c0.1-0.9,0.3-1.7,0.4-2.6c0.1-1.4-0.1-2.8-0.4-4.1l-1.2-2.1c0-0.8,0-1.5,0.1-2.3c0-1.6-0.2-3.3-0.7-4.8c-0.6-1.4-1.9-2.2-2.4-3.6
	l-1.1-5c-0.5-1.3-1.8-1.8-2.4-3c-1.7-2.8-2.6-6-4.3-8.8s-4.5-4.9-6.4-7.6c-0.6-0.9-1.1-1.9-1.7-2.8c-0.2-0.7-0.4-1.4-0.6-2.2
	c-0.9-1.5-2.8-2.3-3.8-4c-0.8-1.5-1.7-3-2.7-4.4c-0.9-0.9-1.9-1.6-2.9-2.2l-2-2.9c-0.5-0.7-1.6-0.8-2.2-1.4
	C128.1,8.4,126.9,6.2,123.9,6z M112.5,5.5c0,2.8,2.2,2.8,3.3,4.3c0.3,0.8,0.7,1.5,1,2.3c0.8,1.2,5.5,5.7,6.8,6.2l1.7,0.3
	c1,3.4,4.7,5.1,7.2,7.1l3.3,3.5c1,1,2.1,1.7,3.2,2.6l2.8,3.2l3.2,3.3l1.9,1.5l0.9,2l2.9,4.3l0.7,3c0.5,1.3,2.1,2.3,2.5,3.2l0.4,2.8
	c0.4,1.8,1.5,3.6,1.9,5.2c0.1,1.2,0.1,2.5,0.2,3.8c0.5,2.4,1.1,7.3,2.4,9c0.4-0.1,0.8-0.2,1.1-0.5c0.1-3.1-0.4-6.2-1.4-9.2l-1.1-2
	l0.4-1.7l-1.4-2.7c-0.3-1.6-0.5-3.2-0.8-4.8c-0.3-0.7-1.1-1-1.4-1.6c-0.3-0.8-0.5-1.6-0.7-2.4c-0.5-1.2-1.4-1.9-2-2.9
	c-0.1-0.7-0.1-1.3-0.1-2c-1.3-2.6-3.5-4.7-5.3-6.9l-6.6-7.7l-3.5-2.4l-6.6-6.3c-1-0.8-2.2-1.4-3.2-2.2l-1.1-1.8l-4.1-3.5
	c-1.3-1.8-2.7-3.5-4.3-5.1C116,6.9,113.9,4.9,112.5,5.5L112.5,5.5z M166.8,75c-0.2,1,0,2.1,0.6,3c-0.2,1-0.8,2-0.6,3.5
	c0.4,1.6,0.5,3.3,0.2,4.9c-1.7,6.5-3.5,13.3-5.6,19.4c-1.1,3-2.5,5.9-4.2,8.7c-0.8,1.8-1.5,3.6-2.3,5.3l-2.1,3.2
	c-0.4,1.3-0.4,2.7-1,4c-0.3,0.6-1,1.1-1.2,1.9c-0.3,1.1-0.5,2.2-0.8,3.3c-0.7,0.9-1.5,1.6-2.4,2.2c-1.4,1.1-3.5,5.2-3.7,7.5h0.2
	c3.6-1.9,3.6-4.7,5.5-8.1c0.7-1.1,1.8-1.7,2.5-2.7c1.1-1.7,1.6-4,2.4-5.9c1-2.5,2.2-5,3.6-7.4c0.7-1.2,1.4-2.4,2.1-3.6
	c1-3.1,1.9-6.3,2.9-9.4c1-2.8,2.9-5.6,3.6-8.7c0.3-1-0.3-2-0.1-3L168,90c0.2-1.1-0.3-2.1-0.1-3.1c0.3-0.7,0.5-1.4,0.8-2.2l0.4-3.2
	c-0.1-1.2-0.5-2.5-1.1-3.6c0.5-0.6,0.9-1.3,1.1-2c0.1-0.9-0.6-1.5-0.8-2.4v-2.7c-0.5-3.2-0.5-6.3-2.4-8.2l-0.2,0.2l0.2,4.8l1.4,6.3
	L166.8,75z M159.8,74.6l-0.4,0.2c-0.2,0.9-0.6,1.8-0.7,2.8c0,2.2,0,4.3-0.1,6.5c-0.3,1.8-0.8,3.9-1.1,5.8l-0.4,4.6
	c-1,4-3.2,7.2-4.3,11.3c-0.4,1.3-1.2,3.3-1,4.8l0.4,0.1c2.1-1.6,2-4.5,3.1-7.2c0.8-1.9,1.6-3.9,2.4-5.8c0.2-1,0.3-1.9,0.5-2.9
	c0.3-0.5,0.7-0.9,1-1.4c0.4-1.1-0.2-2.5,0.1-3.5c0.5-1.2,0.9-2.5,1.4-3.8c0.2-0.9-0.4-1.4-0.6-2.1c-0.1-1.9,0.2-3.8,0.7-5.6
	C161,76.4,160.6,75.6,159.8,74.6z M132.2,7.6c-0.2,0.1-0.4,0.3-0.5,0.5c-0.3,1.5,1.4,2.5,2.2,3.2c1.5,1.2,2.3,3.2,3.5,4.7l1.8,1.4
	c0.7,1.1,1,2.4,1.8,3.4c0.6,0.7,1.7,1.1,2.2,1.9s0.3,1.3,0.7,1.9l1.6,1.5c0.2,0.6,0.4,1.3,0.6,2l1.4,1.1c0.8,0.9,1.5,1.9,2.2,2.8
	l1,0.6l0.4,1.2c0.4,0.6,0.9,1.1,1.3,1.7s0.2,1.2,0.6,1.8c0.7,1.2,1.9,2.4,2.7,3.6c1.3,2.3,2.5,4.6,3.5,7c0.6,1.2,1.1,2.3,1.7,3.5
	s1.7,2.3,2.1,3.7c0.7,2.3,0.4,5.7,2.8,6.1V61l0.4-1.4c0.1-2.8-1.3-4-2.1-5.8c-0.1-0.7-0.3-1.5-0.4-2.2c-0.7-1.5-1.8-2.5-2.4-4.1
	l-0.7-3l-1.8-1.9c-0.7-1.2-0.6-2.8-1.2-3.8c-1.8-2.9-4.4-5.1-6.4-7.8c-0.4-0.6-0.3-1.6-0.7-2.2c-1.2-1.6-2.9-2.9-4-4.5
	c-1-1.4-1.5-3.3-2.6-4.8l-3.1-3.1l-3.7-4.7c-1.4-1.5-2.9-2.8-4.5-4.1L132.2,7.6z M139.8,10.5l-0.1,0.1c0.4,3.1,3.6,7.1,5.5,8.9
	l2.5,2.4c0.3,0.7,0.5,1.5,0.8,2.2c0.9,1.1,1.9,2.2,2.8,3.3l5.3,7.7l2.7,3c0.1,0.5,0.3,1.1,0.4,1.6c2.2,3.8,4.1,8,6.1,12.2
	c0.6,1.4,1.2,2.9,1.9,4.3l1.1,2.1c0.2,1-0.4,2.6-0.1,3.9c0.3,0.9,0.6,1.8,0.9,2.7c0.3,0.7,1,3.2,1.8,3.1c0-0.3,0.1-0.7,0.1-1
	c0.1-2.6-0.4-5.2-1.5-7.5l-0.5-0.7l0.4-1.9c-0.3-0.8-0.5-1.7-0.8-2.5c0-0.5-0.1-1-0.1-1.4l-1.6-2.3c-0.4-0.9-0.2-2.1-0.6-3l-3.4-5.5
	c-1.7-2.8-2.8-5.9-4.7-8.5c-1.6-1.9-3.1-3.8-4.7-5.6c-0.6-0.9-0.9-2-1.5-2.9c-0.4-0.6-1.4-0.7-1.8-1.3c-0.8-1-1.2-2.5-2-3.6
	c-1.6-2.4-3.6-4.6-5.3-6.9C142.6,12.4,141.8,10.2,139.8,10.5L139.8,10.5z M145.7,11.3v0.1c-0.4,1.3,2,4.5,2.7,5.3l3.3,3.5
	c0.6,1.2,1.3,2.5,1.9,3.8l4.9,6.5c0.3,0.6,0.5,1.1,0.8,1.7c0.6,0.8,1.6,1.2,2.1,2.2c0.1,0.6,0.1,1.2,0.2,1.8l1.6,1.4
	c0.4,0.7,0.2,1.6,0.6,2.2c0.9,1.5,2.5,2.4,3.4,4c0.6,1.5,1.2,3,1.7,4.5c0.6,1.1,1.8,1.8,2.3,3l1.1,4.4c0.6,1.3,2.1,1.7,2.9,3
	c0.6,1,1,2,1.2,3.1c0.2,1,0,1.8,0.2,2.6c0.5,1.6,1.4,3.3,1.8,5.1c0.8,2.9,0.2,6.9,0.2,10.2c0.1,1.8,0.2,3.5,0.3,5.3
	c-0.2,1.6-1.2,2.4-0.8,4.2l0.3,0.1c1.3-0.8,0.8-2.8,1.4-4.3l1.1-1.5c0.1-6.6,0.1-13.2-1.5-18.2c-0.9-2.8-2.5-4.7-3.5-7.2
	c-1.4-3.4-2.2-7.2-4-10.3c-0.6-1.1-1.8-1.6-2.4-2.6l-4.1-8.1l-6.8-9.7l-3-5.5c-1.6-2.2-3.9-3.9-5.6-6.1
	C149,14.2,148,11.4,145.7,11.3L145.7,11.3z M173,112.2c0,2.1-2,4-1.2,5.7h0.1c2.7-0.7,1.4-2.4,1.9-4.9c0.3-0.8,0.5-1.5,0.8-2.3
	c2.5-4.7,4.6-9.7,6.2-14.8c0.3-1.9,0.6-3.8,0.9-5.7c0-0.9,0-1.8,0.1-2.7c0-0.2-0.1-0.4-0.1-0.6h-0.4c-1.4,1.8-0.5,2-1,4.5
	c-0.4,1.9-3.4,4.2-1.4,6.3v0.3c-3.5,2.7-2.9,9.6-6.4,12.3c-0.7,0.5-2.1,1.7-1.4,2.9h0.1c0.8-0.2,1-1,1.8-1.2L173,112.2z M184.1,46.7
	l-1.9-4.5c-0.6-1-1.6-2.1-1.9-3.4c-0.2-0.9,0.3-1.6,0-2.5c-0.8-2.1-2.6-3.6-3.3-5.9s-0.4-4.9-2.7-5.4l-0.1,0.1
	c-0.2,2.1,1.4,3.2,1.9,4.8s-0.1,3.3,0.4,4.7c0.7,1.2,1.4,2.5,2,3.7l2.7,6.6c0.5,1.2,1.8,2.2,2.2,3.2c0.1,0.5,0.1,1,0.2,1.6
	c0.5,1.4,1.2,2.7,1.6,4.3l0.9,9.7c0.3,1.7,1.1,3.1,1.4,4.5c0.5,2.1-0.2,3.1,0.9,4.6l-0.5,1.2l0.4,6v3.7c0,4.2-0.1,8-1.1,11.2
	c-0.4,1.4-2.2,4.7-0.8,5.6c1.8-1.1,1.4-2.4,1.9-4.9c0.3-1.5,1.1-2.1,1.4-4.2c0.5-3.2,0.1-6.3,0.5-9.3l0.1-2.4
	c0.1-4.6,0.1-9.2-0.9-12.9c-0.3-1.2-1.1-2.7-1.3-3.8c0.1-0.6,0.2-1.2,0.3-1.7c-0.4-1.2-0.9-2.3-1.3-3.5l-0.2-3.9
	c-0.4-1.1-1.4-1.7-1.7-3C184.6,49.4,184.6,48,184.1,46.7L184.1,46.7z M187.4,50.1l0.9-0.1c0.1-0.1,0.1,0,0.1-0.1l0.2-0.6
	c0.1-2.8-1.5-3.8-2.2-5.7c-0.3-0.9-0.5-1.9-0.8-2.8l-0.7-1c-0.1-0.5,0.3-0.9,0.1-1.5l-1.2-1.8l-0.4-2.2c-0.7-1.6-1.5-3.2-2.5-4.8
	c-0.9-1.8-1.4-5.2-3.7-5.5c0,0.1,0,0.1-0.1,0.2c0.9,2.5,1.3,5.2,2.3,7.6c0.5,1.2,1.5,2.2,2.1,3.3l1.1,3.5l1,1.4
	c0.1,0.8,0.3,1.7,0.4,2.5l2.5,4.7C187,48.2,187,49.3,187.4,50.1L187.4,50.1z M152.2,12.6l-0.2,0.1c-0.1,0.2-0.1,0.2-0.1,0.4
	c0.2,0.8,1,0.8,1.4,1.4c0.5,0.8,0.5,1.7,1,2.5l2.9,3.2l4.8,8.7c1.4,2.2,3.2,3.9,4.6,6s0.7,3.6,3.2,5.1c0.4,2.9,2.3,4.3,3.6,6.6
	c1.2,2.2,2.3,4.6,3.2,7c0.4,1.3,0.8,2.6,1.2,3.9c0.6,1.4,2.1,2.2,2.8,3.7c1,2.3,0.9,5.2,1.6,7.9c0.4,1.5,0.9,3,1.5,4.4
	c0.2,0.6-0.4,1.5-0.5,2.1c-0.3,1.6,0.1,6.6,1.2,6.8c0.9-0.7,0.9-1.2,1.4-2.4c0.1-1.6-0.1-3.1-0.6-4.6l-0.6-1.2
	c-0.2-0.8,0.7-2.1,0.4-3.4c-0.4-1.6-0.8-3.2-1.2-4.8v-3l-1.7-2.7c-1.1-2.1-2.2-4.3-3.3-6.4l-2.2-5c-0.4-1.5-0.9-3-1.6-4.4
	c-2.3-3.8-5.4-7.2-7.7-11.1c-0.9-1.5-1.7-3.1-2.6-4.6l-1.1-2.4l-1.8-1l-0.9-2.1l-2.9-4c-0.3-0.7-0.6-1.4-0.9-2.1l-2.1-1.9
	C154.4,14.3,153.5,12.8,152.2,12.6L152.2,12.6z M158.2,15.1c-0.1,1,0.8,1.7,1.3,2.3l4.2,5.7l2,3.5c0.5,1.5,1.1,3,1.9,4.5
	c1.8,2.6,4.3,4.5,6,7c0.8,1.1,0.8,3,1.6,4.1c0.9,1.4,2.4,2.5,3.1,4.2l0.7,3.2c0.3,1,1.2,1.4,1.5,2.3c0.4,1,0.3,2.2,0.7,3.2
	s1.1,2.6,2.2,2.5c-0.6-7.7-5-12.7-7.6-18.6c-0.7-1.9-1.4-3.8-2-5.6c0.1-0.8,0.1-1.6,0.2-2.4l-1.5-3.4c-0.8-1.9-2.6-7.9-5.2-7.4
	l-0.1,0.2c-0.5,1.1,0.9,3.2,1.4,3.9l4.4,7.8c0.5,1,0.6,2.1,0.2,3.2h-0.4c-1.4-0.6-1.3-3.4-2.1-4.6c-2.6-4.1-5.4-8.4-8.1-12.5
	C161.6,16.7,160.9,14.5,158.2,15.1L158.2,15.1z M167.8,19c0-1.1-0.9-2.1-2-1.9c-0.4,0.7-0.1,1.6,0.6,2
	C166.9,19.3,167.4,19.3,167.8,19L167.8,19z M174.3,22.4c0-1.2-1.1-3-2.3-2.5c-0.1,1.7,0.5,3.1,1.5,3.7
	C174,23.3,174.1,22.9,174.3,22.4L174.3,22.4z M184,25.6c-0.7-1-2.3-2-3.7-1.5c0,0,0,0.1-0.1,0.1c0.5,2.6,3.3,4.1,4.2,6.4
	c0.6,1.6-0.2,2.5,1.2,3.2l0.2-0.1c0.4-0.2,0.6-0.5,0.8-0.9c0.1-2.2-1.1-3.4-1.9-4.8C184.6,27.2,184.3,26.4,184,25.6L184,25.6z
	 M189.1,29.2c-1.9,1.5,1,5.6,2,6.3h0.2c0.1-0.3,0.3-0.6,0.4-0.9C191.6,32.5,190.6,30.6,189.1,29.2L189.1,29.2z M210.5,110.8
	c1.7-2.2,3.1-4.5,4.2-7l0.9-4.1c0.7-1.2,1.3-2.5,2-3.8c0.3-0.7,1.2-5,1.5-5.3c0.2-6-0.4-12.1-1.5-18v-2c-0.2-0.7-0.4-1.3-0.6-2
	c0-0.6-0.1-1.2-0.1-1.9c-0.2-0.5-0.4-1-0.6-1.6c-0.4-2-0.2-3.3-0.7-5.1c-0.6-2.1-1.7-4.2-2.2-6.3l-1-2.8l-0.7-4.2l-1.4-1.8
	c-0.3-0.5-0.8-2.4-1.2-2c-0.7,1.1-0.3,3.1,0.1,4.1l2.2,4.4c0.1,1.3,0.3,2.7,0.4,4c0.2,0.9,1,1.4,1.1,2c-0.1,0.5-0.1,0.9-0.2,1.4
	c0.3,1.3,0.9,2.5,1.9,3.5c0,2.3-0.4,4.8,0.1,6.9l1.4,4c0.4,2.3-0.8,4-0.3,6.1c0.2,0.7,0.6,1.4,1.1,2c-0.7,1.8-1.2,3.6-1.4,5.5
	c0.1,1.5,0.2,2.9,0.3,4.4l-0.9,2c-0.1,1.1-0.1,2.2-0.2,3.2c-0.4,1.2-0.8,2.3-1.1,3.5c-0.9,1.9-1.9,3.8-2.8,5.8
	c-0.5,1.4-0.4,3.8-0.6,5.1l0.1,0.1L210.5,110.8z M201.1,124.2c0.3-1.4,0.8-2.8,1.6-4c0.9-1.1,2-1.6,2.7-3s0.7-3.2,1.2-4.8
	c0.7-2.4,1.6-4.8,2.4-7.3c0.8-2.1,1.5-4.1,2.2-6.2l1.4-2.8v-2.4c0.4-2.1,0.8-4.1,1.1-6.2c0-1.1-0.2-2.3-0.5-3.4
	c-0.4-2.3,0.7-4.8,0.3-7.4s-0.4-4.9-0.9-7.2c-0.4-2-1.2-4-1.7-5.8c-0.2-0.8,0.4-1.2,0.2-1.9s-0.9-1.5-1.1-2.3
	c-0.5-1.7-0.4-3.5-1.1-5l-0.9-1.3c-0.4-1.2,0.1-2.7-0.2-3.9c-0.8-2.8-4.8-10.8-7.2-11.4c-0.1,0.1-0.1,0.2-0.2,0.2
	c0,1.5,1.3,1.9,1.7,3c0.2,1.3,0.4,2.6,0.6,3.9c0.9,2.1,2.4,3.6,3.5,5.3c-0.5,2.5,0.6,2,0.9,3.9c0.1,0.7-0.3,1.5-0.1,2.3l1.1,2
	c0.1,1.2,0.2,2.5,0.3,3.7c0.2,0.6,0.9,0.8,1,1.3c0.3,0.8-0.1,2.5,0.1,3.4s0.9,1.7,1.1,2.4s0.2,1.5,0.3,2.3c0.4,2.3,0.5,4.6,0.2,6.8
	c0,1.2,0,2.5-0.1,3.8c0.3,0.7,1.3,0.7,1.4,1.4c-2.4,1.8-1,1.8-1.7,4.8l-0.7,2.4c0.1,0.8,0.1,1.6,0.2,2.4c-0.4,2.2-2.3,2.6-0.6,4.8
	l-0.2,0.4c-0.6,0.2-1.2,0.6-1.6,1.2c-0.2,0.6,0,1.6-0.3,2.2c-0.5,1.1-1.5,2-1.7,3.3c0,0.7,0.1,1.4,0.1,2.2l-1.1,1.8
	c0.1,0.5,0.1,1.1,0.1,1.6c-0.4,1.2-1.9,3.2-2.4,4.5l-3.8,9.4c0,0,0.1,0.1,0.1,0.1L201.1,124.2z M194,127.6c2.3-1.5,3.4-5.2,4.7-7.7
	c1-1.8,2-3.6,2.7-5.5l1.4-5.6c0.8-1.7,1.5-3.4,2.2-5c0.2-0.7-0.3-1.2-0.1-1.9c0.3-0.7,0.7-1.4,1-2.1c1-2.3,1.8-4.6,2.3-7.1
	c0.8-4-0.9-8.3,0.4-11.6c0.1-7-1.1-12.6-2.4-18.3c-0.2-2.1-0.4-4.1-0.6-6.2c-0.6-1.1-1.2-2.2-1.9-3.2c-0.3-1.3-0.7-2.7-1-4
	c-0.6-0.7-1.1-1.5-1.7-2.2c-0.3-1.1,0-2.1-0.2-3c-0.8-2.8-2.6-4.9-3.9-7.2c-0.2-0.5-0.4-1-0.6-1.6c-0.7-1-1.7-1.8-2.7-2.4v0.1
	l1.1,1.9v2.5c0.3,0.9,1.4,1.1,1.8,1.9s0.2,2.2,0.5,2.9l2.7,4.5c0.2,1.4,0.4,2.8,0.6,4.3c0.4,0.9,1.3,1.4,1.7,2.5
	c0.4,2.9,0.9,5.8,1.3,8.7c0.5,1.7,1.7,2.8,2.2,4.5c0.8,3-0.5,6.2,0.1,9.5c0.3,1,0.6,2,1,3v5l0.5,1.3c-0.7,0.8-1.1,1.9-0.9,3
	c0.2,0.4,0.3,0.7,0.5,1.1c-0.9,1.2-1.3,2.6-1.2,4.1c0.1,0.6,0.4,1.2,0.3,1.7l-1.4,1.6l-0.4,2c-0.5,1.6-1,3.3-1.5,4.9
	c-1,2.3-2.1,4.7-3.1,7l-1.1,4l-1.7,2.5c-0.1,1.2-0.3,2.3-0.4,3.5c-0.5,2.2-3.2,3.7-2.4,6.7L194,127.6z M189.4,128.8
	c3.1-3.1,4.2-8.6,6-13.1l2.3-5.2c0.3-0.5,0.6-1,0.9-1.4l-0.1-0.9l0.8-2.2v-1.5l1.2-1.8v-2c0.5-1.4,1.5-2.5,1.9-4.1
	c0.3-1-0.3-2.5-0.1-3.1s0.7-0.8,0.9-1.3l0.7-2.5l0.4-5.3c0-2.8-0.6-4.5-1-6.7c-0.6-3.3,0.5-7-0.1-10.3c-0.2-1.3-0.4-3-1-4
	c-0.4-0.6-1-0.9-1.2-1.8c-0.1-0.8-0.2-1.6-0.3-2.4l-1.4-5.7c-0.6-1.8-1.7-3.3-2.3-5c-0.3-1.2-0.6-2.4-0.9-3.5
	c-1-2.1-1.8-4.2-2.4-6.4l-0.1-0.1c-0.5,0-1.1,0.1-1.5,0.4l-0.1,0.2c0.1,2.7,1.9,3.8,2.5,5.9c0,0.7,0.1,1.3,0.1,2l0.9,1.3
	c0.2,0.8-0.5,1.3-0.2,2.1c0.6,1.5,2.8,2.1,1.9,4.3c0.4,0.7,1.1,1.1,1.4,1.9c0.5,1.6,0,3.5,0.4,5.2c0.2,0.8,0.9,1.2,1.1,1.8l0.4,3.3
	c0.2,1,1.1,2.3,1.2,3.2c0.1,0.5-0.6,0.8-0.4,1.6s0.9,1.6,0.6,3c-0.1,0.8-0.7,1.3-0.5,2.4l0.9,4.9c0.4,2.2-0.6,5.3-0.9,7.3
	c-0.2,1.2,0.4,3.2,0.1,4c-0.2,0.6-0.9,1.1-1.1,1.8c-0.4,1.6,0.1,3.5-0.4,4.8l-1.4,2l-2.5,5.3c-1,2.8-2,5.7-2.9,8.5
	c-0.6,1.3-1.2,2.7-1.9,4c-0.3,0.8,0,1.9-0.2,2.6c-1.8,0.8-3,4.1-2,6.6L189.4,128.8z M186.1,126.1c0.6-2,2.5-3.1,3.2-5
	c0.1-0.9,0.3-1.8,0.4-2.7c0.8-3.5,2.6-6.7,3.9-10c0.4-1,0.2-2.4,0.6-3.5l1.1-1.9c0.2-1.2,0.4-2.4,0.6-3.5c0.4-1,1.4-1.6,1.7-2.7
	c0.5-3.9,0.9-7.8,1.4-11.8c0.1-1,0.1-2.1,0.2-3.1c0.1-3.8,0.2-7.6-0.5-10.8c-0.5-2.2-1.3-4.1-1.7-6.2l0.2-2.2
	c-0.7-1.9-1.3-3.7-2-5.6c-0.4-1.8-0.8-3.5-1.1-5.3c-0.4-1.5-1.6-2.3-2-3.8l0.1-1.6c-0.2-0.9-1.2-2-1.5-3c-0.9-2.5-1.8-7.6-4.3-8.2
	l-0.1,0.1c0.2,4.4,2.4,7.6,3.8,11c0.8,2,1,4.5,1.9,6.5l0.9,1.4c0,0.8,0.1,1.5,0.1,2.3l1.8,5.6c0,0.8,0,1.6,0.1,2.4
	c0.3,1.5,1.4,2.7,1.8,4.7c0.4,2.6-0.2,5.5,0.2,8.3l0.4,3.8c0.1,0.5,0.6,1,0.4,1.6c-0.2,0.8-0.8,1.6-0.9,2.7
	c-0.1,1.8-0.1,3.7-0.2,5.6c-0.2,1.2-1.1,1.8-1.4,2.8c0,0.5,0.1,1.1,0.1,1.6c0,1-0.1,2-0.4,3c-1.1,2.6-2.3,5.2-3.5,7.8
	c-0.5,1.2-0.2,3.3-0.8,4.6l-1.7,2.7c-0.6,1.7-1.2,3.5-1.7,5.2c-0.8,1.9-1.8,3.1-1.5,5.6c-1.5,1.4-1.9,2-2.3,4.6
	c-0.1,0.4-0.2,0.9,0,1.1C185.6,130.9,185.6,127.6,186.1,126.1L186.1,126.1z M178.1,133c2.1-1.4,3.6-5.8,4.6-8.5c0.8-2,2-3.8,2.7-5.9
	c0.1-1,0.3-2,0.4-3c0.5-1.4,1.5-2.7,2.1-4.1c0.5-1.3,0.4-3.3,0.9-4.6l-0.2-0.3c-1.9,1.2-1.8,4.3-2.8,6.4l-2.7,3.8
	c-0.7,1.2-0.7,2.9-1.3,4.3l-2.2,3.5c-0.3,0.7,0.2,1.6-0.1,2.4l-0.9,1.2c-0.6,0.9-1.5,3.5-0.9,4.9L178.1,133z M171.6,135.8l0.7-0.9
	c0-0.3,0-0.6,0.1-0.9l1.1-0.8l1.9-2.5c1.5-2.7,2.1-6,3.5-8.8l2.8-5c0.1-0.6,0.3-1.2,0.4-1.9l1.4-1.7c0.5-1.3,0.5-2.5,1.2-3.6
	c1.5-2.4,3.2-4.6,5-6.8c0.7-1,2-1.9,2.3-3.2c-0.1-0.5-0.1-1-0.1-1.5c0.3-1.5,1.3-2.5,1.6-4.3c0.1-1.8,0.1-3.6,0.2-5.3
	c0.3-1.3,0.6-2.7,0.9-4c0.1-0.9,0.3-1.9,0.4-2.8c0-1.8-0.1-3.5-0.4-5.3v-4.1l-0.9-1.2c0.7-4.9-0.7-8-1.8-11.8
	c-0.5-1.8-0.4-3.5-1.5-4.6c0.4-1.6,0.4-3.6-1.9-3c-0.3,0.4-0.5,0.5-0.6,1.2c0.6,0.6,1.2,1.1,1.9,1.6v0.5c-0.5,0.3-0.9,0.8-0.9,1.4
	c0.5,1,0.8,2.1,1.1,3.2l0.5,3.5c0.7,2.4,2.1,4.1,2.6,6.7c0.4,2-0.9,3.6-0.5,5.5l1.1,1c-0.2,0.8-0.9,1.2-1.1,1.9
	c-0.2,0.9-0.1,1.8,0.1,2.7c0.3,2.1,0.3,4.2,0,6.3l-0.9,4.9c-0.3,1.1-1,2.1-1.4,3.1c-0.2,0.7,0.1,1.4-0.1,2.1s-0.4,1.4-0.6,2.1
	c-1.5,3.5-4.9,5.5-6.8,8.7c-1.2,2-1.7,4.6-2.7,7l-1.4,2.8l-0.9,1.2l-0.4,2.1l-1.6,2.9c-1,1.8-5,9-4.5,11.5L171.6,135.8z
	 M170.8,128.7l4.2-7.1c0.1-0.8,0.2-1.5,0.3-2.3c0.7-0.9,1.4-1.8,2-2.7c0.3-1.2,0.7-2.5,1-3.7c1.3-3,3.8-5,4.8-8.4l0.7-5.8l1.3-5.2
	c0.4-2.2-0.4-4.3,0.4-6.2c0.1-1.4,0.2-3.6-1-3.8h-0.1c-2.3,3,0.2,4.3-0.4,7.8c-0.4,1.5-0.9,3-1.4,4.6c-0.3,1.2,0.5,1.9,0.2,3.2
	l-1.1,2.5c-0.3,0.8,0,1.6-0.4,2.5l-1.3,1.8l-1.6,3.6l-2.1,3.3c-0.2,0.6,0.3,1,0.1,1.7c-0.4,0.7-0.8,1.4-1.2,2.2l-0.4,2.3
	c-3.8,2.7-5.4,8.3-7.7,12.3c-0.8,1.3-1.8,3.3-1.6,5.3l0.4,0.1C168.6,134.7,169.3,131.9,170.8,128.7L170.8,128.7z M159.6,138l1.7-1.4
	l2.5-3.2c2.6-4.2,4.1-9,7.7-12.3c0.1-0.6,0-1.2-0.3-1.8h-0.1l-0.5,0.1c-0.8,0.4-1.1,1.4-1.7,2.1h-0.2l-0.1-0.1
	c-0.6-3.5,2.3-4.6,1.8-6.9h-0.1c-2.1,0.4-2.6,3.3-3.2,5.3s-1.1,4.2-1.8,6l-3.9,7.1l-1.1,3l-1.2,1.3c-0.1,0.2-0.1,0.5,0.1,0.7
	L159.6,138z M154.3,140c1.5-0.9,2-2.7,3-4c0.8-1.2,2.2-2.1,2.8-3.5c0.4-1,0.3-2.3,0.8-3.2c1-1.7,2.8-3,3.5-5.1c0-0.9,0-1.8,0.1-2.7
	c0.3-0.4,0.5-0.8,0.8-1.2c0.4-1.2,0.2-2.1,0.6-3.2l2.8-4.1c0.5-0.9,0.4-2.4,0.9-3.3c1-1.3,1.9-2.8,2.7-4.3c0.6-1.8,1.1-3.7,1.7-5.5
	c0.7-1.1,1.3-2.2,2-3.3c0.8-2.4-0.3-5.2,0.2-7.9l0.7-3.5c0.4-1.8-0.8-1.9,0.4-3.8c0.1-6.5-0.8-12.9-2.6-19.1
	c-0.7-2.1-0.8-4.3-2.6-5.3h-0.2l-0.6,0.7c-0.4,0.9,0.4,1.7,0.7,2.3c0.9,1.8,1.6,3.6,2,5.6c1.1,4.1,1,8.9,1,14.1l0.4,5.1l-0.7,2.8
	c-0.2,1.2,0.7,1.7,0.5,2.7l-1.3,3c-0.8,2.9-1.1,5.9-2.2,8.5c-0.5,1-0.9,2.2-1.4,3.2l-1.2,2c-0.1,0.6,0.1,1.3-0.1,1.9l-1.5,2.1
	l-2.2,5.8c-0.6,1-1.4,1.9-1.9,2.8c-0.1,0.4-0.1,0.9-0.1,1.3l-1.6,3.8l-2,3.7c-0.8,1.2-2,2-2.6,3.3c-0.8,1.9-1,3.9-1.6,6
	c-0.3,0.7-0.6,1.3-0.9,2H154.3z M148.5,142.2c2.7-1.2,3.8-5,5.1-7.6c0.6-0.8,1.1-1.7,1.7-2.5c0-0.6,0.1-1.3,0.1-1.9
	c0.7-1.3,2.2-2.2,3-3.5c1.4-2.3,2.1-5.3,3.1-7.9l1.9-3.1c0.1-0.7,0.1-1.4,0.2-2.1c0.4-1.1,1.5-2,2-3.2c0.6-1.9,1.1-3.8,1.7-5.8
	c0.6-2,2.1-3.3,2.8-5.3c1.2-3.4,1.6-7.6,2.2-11.3c0.2-2.2,0.4-4.4,0.6-6.6c0-2.3,0.2-10.1-0.9-10.7h-0.6c-0.7,0.6-0.4,5.9-0.1,7.5
	c0.6,4-0.4,7.9-1,11c-0.3,2-0.5,4-0.8,6c-0.6,2.4-1.8,4.4-2.6,6.6c-0.6,1.7-0.8,3.5-1.4,5l-1.7,2.7l-0.9,3.8l-4.1,7.2
	c-1.9,3.9-3.9,7.7-5.8,11.6l-4,6.9v1.3l-0.7,1.7l0.1,0.3L148.5,142.2z M137.5,144.8c0.8-0.8,1-1.7,1.7-2.6s2-1.1,2.7-2.1
	c3.5-4.9,6.2-10.4,9.5-15.4c0.1-0.6,0-1.1-0.1-1.7h-0.1c-2.5,2-4.4,4.7-5.6,7.8l-1.4,3.4l-2,1.4c-1,0.7-1.8,1.7-2.4,2.7
	c0,0.4-0.1,0.9-0.1,1.3c-0.8,1.8-3.7,2.3-3,5l0.4,0.3L137.5,144.8z M139.2,136.7l2.7-2.7c0.6-1.4,1.1-2.7,1.7-4
	c2.8-4.3,7.2-7.1,9.9-11.5c0.9-1.4,1.6-3,2.2-4.5c0.3-0.8,0.1-1.7,0.4-2.3l1.5-2c1.2-2.8,2-6,3-8.8l0.5-2.9c0.4-1,1.4-1.8,1.7-3
	s-0.2-2.7,0.1-3.6l0.6-0.8c0.3-1.2,0.6-2.4,0.9-3.7c0.4-2.6-0.4-5.7,0.5-7.9c0.2-1-0.1-2-0.7-2.7h-0.3c-1.1,1.7-1.6,3.8-1.3,5.8
	c0.3,1,0.5,2,0.4,3l-1.2,4.1c-0.2,1,0.3,1.9,0.1,2.9l-1,1.9c-0.5,1.5-0.3,3-0.9,4.3c-1.3,3.2-3,6.4-4.2,9.6c-0.4,0.9-0.4,3-0.8,3.8
	s-1.5,1.7-2,2.6c-1.1,1.9-1.7,4-3,5.6c-0.7,0.9-2,1.2-2.7,2.1c-1.9,2.7-4,5.2-5.8,7.9l-2.3,3.9c-0.9,1.1-2.4,1.6-3.2,2.9
	c-0.7,1.1-0.7,2.6-1.3,3.6c-1.4,2.1-3.5,3-4.6,5.6c0.1,0.1,0.2,0.1,0.4,0.1C134.3,143.5,136.4,140.2,139.2,136.7L139.2,136.7z
	 M129,143.3l1.1-0.5c0.2-0.6,0.4-1.2,0.6-1.7c0.5-0.8,1.5-1.5,2.2-2.3c2.3-3,4.2-6.5,6.5-9.5l2.9-3l1.4-1c0.6-1,0.8-2,1.3-2.9
	l4.8-5.8c0.6-1.2,1.2-2.3,1.7-3.5l-0.1-0.5c-1.2,0.1-1.3,1-2,1.7c-0.7,0.8-1.3,1.7-1.9,2.7c-1,1.3-2.3,2.3-3.2,3.7l-1.2,1.6
	c-0.1,0.2-0.1,0.5-0.2,0.7l-1.1,0.6c-1.2,0.9-2.2,2-3.1,3.2c-1.3,2.1-2.6,4.3-3.9,6.4l-2.6,2.7c-0.8,1.3-1,3.1-1.8,4.2
	c-1.5,2.2-4.4,3.5-5,6.5l0.2,0.1C127.4,146.2,127.7,144.3,129,143.3z M124.7,142.9c0.7-0.9,1.4-1.7,2.2-2.4c0.4-0.4,0.1-1,0.4-1.6
	l1.5-1.4c1.2-1.7,2-3.5,3.2-5.3l3.6-4l7.2-9.4l2-1.6c0.3-0.8,0.7-1.6,1-2.4c1-1.7,2.1-3.3,3.1-5c0.4-1.1,0.8-2.2,1.1-3.3
	c0.7-1.5,1.3-2.9,2-4.4c0.3-1.3,0.6-2.6,0.9-3.9c0.5-1.6,1.3-3.2,1.8-5c0.1-1.1,0.2-2.2,0.4-3.2l0.9-1.7c-0.1-0.6-0.1-1.2-0.1-1.8
	c0-1.7,0.2-3.5,0.6-5.1l-0.1-2.9l-0.5-1.2c0.1-1.2,1-2.8,0.6-4.5c-0.3-1.1-1.2-1.8-1.4-2.5c0-0.5,0.1-1,0.1-1.6c0.1-1.7,0-3.4-0.3-5
	c-0.5-2-1.1-4-2-5.9l-0.9-1.5c-0.1-0.5,0.4-1.2,0.2-1.9l-1.4-2.9c-0.7-2-1.4-4-2.2-6.1c-1.7-4-5.2-6.1-7.8-9.2
	c-2.3-2.8-5.2-5.1-7.8-7.6c-3.6-3.5-6.9-7.5-10.9-10.6l-3.7-2.1c-2-1.5-3-4.1-4.5-6.1c-0.7-0.9-2.6-1.8-3-2.4
	c-0.9-1.3-0.6-2-2.4-2.6L108,5c0.2,2.4,1.9,3.6,3,5.1c0.5,0.6,0.6,1.5,1.1,2.2l1.6,1.4c1.6,1.3,3,2.9,4.5,4.3
	c5,4.5,9.9,9.4,15.2,13.6c2.1,1.7,3.9,3.6,5.9,5.3l2.1,1.7c0.8,1.2,1.5,2.5,2.2,3.8l3.8,4.5c0.3,0.6,0.2,1.4,0.5,2.1l1.4,1.8
	c0.2,1.4,0.4,2.8,0.6,4.2l2.2,7.4c0.9,3.5,1.9,6.9,2.6,10.9c0.4,3.4,0.3,6.8-0.4,10.2c-0.3,1.8,0.2,3.8-0.3,5.5
	c-0.7,2.6-1.8,5.1-2.6,7.7c-0.6,1.9-0.9,3.4-1.5,5.1c-0.3,0.7-0.7,1.3-1,1.9v2.5c-0.6,0.8-1.1,1.6-1.7,2.4c-0.7,1.1-1,2.3-1.7,3.3
	l-2,2.2l-0.9,2.7c-0.6,0.6-1.3,1.2-1.9,1.8c-1.9,1.5-3.6,3.1-5.1,5c-1,1.4-1.5,3.2-2.4,4.6c-1.5,2.1-3.4,3.9-4.8,6.2
	c-0.4,1-0.7,2-1.1,3l-3.2,3l-5.3,7.9l0.1,0.1C122.2,148.2,123.3,145.1,124.7,142.9L124.7,142.9z M116.7,146c0.7-0.1,1.4-0.3,2.1-0.5
	c1-3.1,3.9-4.9,5.6-7.2l2.4-3.3c0-0.4-0.2-0.9-0.4-1.2h-0.3l-2.8,2.6l-3.9,4.4l-2.7,2.5c-0.4,0.8-0.3,1.3-0.7,1.9
	c-1,1.4-3,2-3.2,4.2l0.2,0.1C115.4,149.5,116.4,148.1,116.7,146L116.7,146z M111.3,146.7c4.3-3.2,7.9-7.8,11.2-12
	c1.5-1.9,4.4-2.4,5.9-4.2l1.5-2.4c1.3-1.8,3.4-3,4.8-4.8c1.7-2.1,3-4.6,4.5-6.8c0.8-1.2,2.1-2,3-3.1c0.4-1.1,0.9-2.2,1.4-3.2
	c0.9-1.9,2.4-3.6,3.2-5.4c0.3-0.6-0.2-1.2,0-1.8l1.1-1.6c0-0.6,0.1-1.2,0.1-1.8l1.1-1.7c0.7-2.8,1.4-5.6,2.2-8.4
	c0.4-1.7,0.5-3.1,0.8-4.8l0.4-3.6c0-3.5-0.3-6.9-1.1-10.3c0-1.3,0-2.6-0.1-3.9c-0.3-1.1-1.1-2.1-1.4-3.3c-0.5-2.4-0.6-4.7-1.5-6.6
	c-0.8-1.7-2.6-2.8-3.7-4.3c-0.6-0.9-0.7-2.1-1.3-3l-2.1-1.7c-0.5-0.8-0.3-1.7-0.8-2.4c-1.3-1.9-3.5-2.9-5-4.7
	c-0.8-1-0.9-2.5-1.9-3.2l-3.8-2.2l-1.9-2.8l-2.3-1.1c-0.6-0.8-1.3-1.5-1.9-2.3l-5.3-3.6l-6.5-5.6l-7.4-6.2c-2.4-1.8-5.1-3.4-7.1-5.7
	c-0.8-0.9-3-4.9-5-3.4c0.6,3.8,3.9,5.6,6.4,7.6c2.1,1.7,4,3.5,6.2,5.1c6.2,4.7,12.1,10.1,18.5,14.6c5.3,3.8,10.9,8,14.8,13.2
	c0.5,0.7,0.4,1.7,0.9,2.5s1.5,1.4,2,2.2c1.4,2.4,2.9,4.4,4.3,6.7c1.9,3.3,2.8,7.2,4,11.2c0.7,2.5,0.8,5,1.2,8c0,1.2,0.1,2.5,0.1,3.8
	c-0.1,0.9-0.2,1.9-0.3,2.8c-0.5,1.3-0.9,2.6-1.2,4l-0.3,6.4c-0.3,1.1-1.1,2.1-1.4,3c-0.4,1.3-0.2,2.2-0.6,3.3
	c-0.5,0.8-0.9,1.6-1.2,2.4c-0.2,0.8,0.3,1.2,0.4,1.8l-2.7,3.2c-0.6,1.2-0.8,2.5-1.5,3.5c-1.3,1.7-2.9,3.3-4.2,5
	c-3.6,4.9-7.1,9.7-11.6,13.7c-1.2,1-1.6,2.8-3,3.8l-1.9,0.8l-1.4,1.8c-0.9,1.1-1.9,2.1-3,3l-2.4,1.6c-0.6,0.9-1.2,1.8-2,2.5
	c-1.4,1.1-3.3,2.2-4.3,3.8c-0.6,0.8-1.4,2.6-1,3.8C108.7,149.4,110.2,147.6,111.3,146.7L111.3,146.7z M100.2,150.3
	c0.1-0.3,4.8-3.1,5.6-3.8c1.3-1.4,2.4-3.8,3.9-4.9c2.3-1.8,4.9-3.1,7-5.1l2.3-2.5c0.6-0.9,0.8-1.9,1.7-2.5c1.4-1.1,3.2-1.7,4.5-2.9
	l1.8-2.7c2.1-3,4.3-6,6.6-9l2.7-2.9l1.1-0.9c0.3-0.7,0.6-1.5,1-2.2c0.8-0.8,1.6-1.6,2.3-2.5c0.4-0.7,0.2-1.6,0.5-2.5l2-2.7
	c0.3-0.6-0.1-1.2,0.1-1.9c0.4-1,1.7-2.2,2.2-3.4l2.3-6.9c0-0.4,0-0.8-0.1-1.2c-2.9,0.3-2.7,5.2-3.5,7.6c-0.5,1.2-1.1,2.3-1.7,3.5
	c-0.3,0.5-1,0.8-1.2,1.4c-0.4,1.2-0.3,2.1-0.7,3.2c-0.9,2.2-2.6,3.8-4,5.6l-1.3,1.9c-0.6,0.2-1.2,0.1-1.7,0.4
	c-1.2,0.8-1.5,2.6-2.4,3.7c-0.7,0.9-1.9,1.4-2.6,2.4c-1.2,1.7-1.9,3.7-3.2,5.3c-1,1.3-2.8,1.9-4,3.1c-2,2-3.9,5.4-6.2,6.9
	c-1.2,0.8-2.4,1.2-3.5,2l-5.6,5.7c-1.1,0.9-2.2,1.8-3.5,2.5l-0.9,1.6c-0.9,1.3-1.7,1.9-2.3,3.8L100.2,150.3z M79.5,149.2
	c1.6,0.3,1.8-1.5,2.7-2.2l6.4-3.9c1.2-0.8,2.5-1.6,3.6-2.5l2.2-2.4l3.6-2.3l7.1-5.7c2.9-2.3,5.6-5.4,8.8-7.3l2.3-0.7
	c0.5-0.7,1-1.3,1.4-2c0.7-0.9,3.3-3.5,4.5-3.7c-0.7,3.8-7.3,7.2-10.1,9.3c-2.5,1.9-4.8,4-6.8,6.3c-0.9,1.2-1.9,2.4-3,3.4
	c-1.1,0.8-2.8,0.9-3.9,1.7c-2,1.6-3.2,4-5.3,5.4c-1,0.7-2.3,0.9-3.5,1.5c-1,0.5-1.1,1.6-1.7,2.4c-0.4,0.6-1.3,0.8-1.8,1.5v0.3
	l0.4,0.3c2.3,0.6,3.7-1.1,4.8-1.9s2.5-1.2,3.5-2l3-3.3l16.9-14.3c3.7-3,6.5-6.9,9.8-10.3c-0.3-3,0.8-3.1,2-5c0.3-0.8,0.7-1.6,1-2.4
	c1-1.6,1.9-3.2,2.9-5l2.1-2.9c0.1-0.8-0.1-1.3-0.8-1.4c-0.8,0.7-1.5,1.6-2,2.6c-0.2,0.8-0.5,1.6-0.8,2.4l-3.5,3.7l-1.7,3.1
	c-1,0.9-2.1,1.7-3.2,2.4l-5.3,5.5c-2.2,1.8-4.9,3-7.2,4.7c-1,0.7-1.8,2.4-2.7,3c-0.9,0.6-2,0.8-2.9,1.5l-4.5,4.5
	c-0.8,0.6-2,0.5-2.8,1s-1.3,1.9-2.2,2.6l-5.6,3.2l-3.2,3.6c-2.1,1.6-3.8,2.1-4.8,4.9L79.5,149.2z M62.7,146.5l0.2,0.5h0.4
	c1.8-0.9,2.1-2.9,3.5-4c0.8-0.5,1.6-0.8,2.4-1.1c0.7-2.7,4.7-5.7,6.7-7.3c2.8-2.4,5.7-4.6,8.8-6.6l4-1.9c0.5-0.6,1-1.1,1.5-1.7
	l3.6-1.9c0.8-0.6,1.2-1.6,2.1-2.1l5-2.5c2.3-1.4,4-3.4,6.1-4.9l5.9-4.4c1.9-1.3,4-2.5,5.4-4.2c2.1-2.6,3.8-5.3,5.8-8
	s4.5-5.5,5.8-8.7c0.7-1.9,1.4-3.8,2.1-5.6c0.3-1.4,0.5-2.8,0.8-4.2c0.2-3.1-0.1-6.3-0.8-9.4l-1.4-3.2c0.1-0.7,0.1-1.3,0.2-2
	c0-1.8-0.4-3.5-1.2-5c-1.8-3-3.1-3.2-5.6-5.3c-1.1-0.9-1.6-2.5-2.8-3.4c-5.4-3.8-11.4-6.6-17.8-8.2c-3.3-0.9-6.9-1.7-10.4-2.5
	c-1.6-0.3-3.1,0.3-4.3,0.6l-3,0.2c-2.5,0.5-4.9,0.8-6.7,1.9c-2,1.2-3.5,3.1-4.2,5.3c-0.1,1-0.2,2-0.3,3c-0.6,1.9-2,2.8-1.5,6
	c0.3,2,0.4,5.9,1.7,6.8l0.4,0.1c0.2-0.2,0.4-0.4,0.7-0.7c-0.1-0.9-0.3-1.8-0.5-2.7l0.4-3.5c-0.1-0.3-0.4-0.7-0.3-1.2l0.7-1.2
	l1.6-4.8c0.4-0.7,1.2-1.2,1.7-1.8c0.2-0.6,0.3-1.2,0.5-1.7c0.5-0.9,1.3-1.7,2.2-2.3c2.5-1.7,8.5-2,12.7-1.4c1.5,0.2,2.8-0.2,4.1,0.1
	l3.5,1.4l6.1,1.8c2.5,0.9,5.2,1.6,6.6,3.5c0,0.1,0,0.2-0.1,0.3c-2.4,0-3.6-1.8-5.6-2.5l-6.9-1.1l-5.3-1.8c-2-0.1-3.9,0.1-5.8,0.4
	c-3.6,0.6-6.4-0.5-9,1.2c-1.1,0.7-1.2,2.5-1.9,3.6c-0.9,1.3-2.2,2.5-2.8,4.1s0.2,3.6-0.2,5.5c-0.1,0.7-0.3,1.4-0.4,2.2l0.6,1.3
	c-3.2,3.9,0.5,5.3,2.1,7.9c0.7,1.1,1.9,3.9,4,2.9c-0.3-2.9-2.6-2.5-3.2-4L78.6,63l-0.7-1.2l0.6-2.3c0.2-1.4-0.2-2.8,0.2-4
	c0.5-1.4,1.8-2.4,2.4-3.9c0.8-1.8,1-4,2.5-5c2.7-2,7.4-0.9,10.8-0.4l4.5,0.1c3.7,0.8,7.3,1.9,10.7,3.2l3,0.7l2.2,1.5
	c1.5,0.6,3.9,0.1,5.3,0.8s2.2,2.3,3.4,3.4c0.9,0.6,1.8,1.1,2.7,1.6c0.8,0.5,2.4,4.4,2.7,5.5c2.1,7.2,2.2,17.2-0.7,23.6
	c-0.6,1.2-1.3,2.3-2.2,3.3l-1.8,1.6c-0.4,0.5-0.4,1.4-0.8,2l-2,1.7c-0.9,1.2-0.9,3.4-1.8,4.6c-0.5,0.7-1.5,0.9-2.1,1.4
	c-1.2,1.1-1.6,3.1-3.2,4.3c-2.8,2.1-6.2,3.5-9,5.6c-0.9,0.7-1.6,2-2.5,2.5l-2.1,0.8l-0.9,1.3c-0.7,0.9-1.6,1.6-2.6,2.2l-3.5,1.3
	c-2.3,1.4-4.4,3.4-6.8,4.9c-6.2,3.8-12.5,7.2-17,12.6l-3.4,2.4c-0.2,0.5-0.4,1.1-0.6,1.6c-0.7-0.1-1.2,0-1.6,0.4
	c0,0.1,0,0.1-0.1,0.2c-0.4,0.8-0.2,2.1-0.4,3l-1.1,1.7L62.7,146.5z M62.3,141.3c3.3-4.2,7.1-8,11.4-11.2c1.7-1.2,4.6-1.4,6.3-2.6
	l6.4-5.3c0.9-0.6,1.6-0.5,2.7-0.9c1-0.3,1.4-1.4,2.2-1.9c0.4-0.3,0.9,0,1.4-0.3l1.9-1.9L96,117c1-0.6,1.9-1.2,2.8-2l1.5-0.7
	c1-0.6,2.1-2.4,3.1-3.2c2.9-2.2,6.7-3.6,9.5-6c0.8-0.7,1.6-2.3,2.4-3.2l4.4-3.8c0.1-0.5-0.1-1-0.3-1.4c-2.3-0.3-5,4-6.1,5.5
	c-1,1.2-1.9,0.8-3.1,1.5c-0.8,0.5-1.2,1.7-2,2.3c-2.8,1.8-6.2,3.1-9.1,4.8c-0.6,0.4-1.2,0.6-1.9,0.6l-1.1-0.1
	c-1.1,0.3-2,1.5-3.2,1.9l-6.1,1.9c-1.8,0.7-3,1.9-4.7,2.5c-3.1,1.2-6.6,1.7-10,2.6c-1.3,0.3-4.7,1.2-6.1,0.9
	c-3.4-0.6-4.7-4.6-7.9-5.1l-0.7,0.7c0.2,2.8,3.3,3.7,5,5v0.2l-0.1,0.1c-3,0.2-3.4-1.6-4.7-3.3l-1-0.9c-0.3-0.9,0-1.7-0.4-2.4
	l-4.5-5.6l-2-3.2l-0.6-1.5c-1.5-2-4.3-2.6-5.7-4.8c-0.5-1.3-0.9-2.6-1.4-3.8L40,94.1c-0.6-1.2-0.5-2.8-2.2-2.8
	c-0.3,0.1-0.5,0.3-0.7,0.6c-0.8,2.8,3,3.7,2.6,6.4c-0.3,1.8,2.5,4.6,3.2,6.2l1.7,4.6l1.2,1.5c0.3,0.8,0,1.6,0.4,2.3l2.5,3.4l1.7,4.2
	c0.6,0.7,1.2,1.4,1.9,2.1c0,1.7,0.2,8.9,0.8,9.8h0.1c2.7-1.6,4-5.7,2.5-9.5c-0.9-2.3-2.6-4.1-3.8-6.2l-1.1-2.6
	c-1.5-1.9-3.8-3.4-4-6.8h0.4l1.1,1.3c0.5,1,0.5,2.5,1.1,3.4s1.7,1.2,2.5,1.8s0.5,1.8,1,2.5l1.8,1.4c0.4,0.6,0.2,1.4,0.4,2.2
	c0.9,1.8,2.2,3.4,3.8,4.7l2.2-0.1c0,0.1,0,0.2,0.1,0.2c-0.4,1.2-1.7,1-2.7,1.5c-0.8,3.4-3.4,6-4.8,9.3c-0.4,0.9-1.2,3-0.7,4.2h0.3
	c2-1.3,2.5-3.8,3.7-5.9c0.6-1.2,1.4-2.3,2.4-3.2l1.2-0.8c0.5-0.7,0.7-1.9,1.1-2.7c2.5,0,5.4-0.5,5.8-2.7l-0.2-0.2
	c-1.6-0.9-3.5,0.9-5.3,0.4c0.2-0.6,0.4-0.5,0.9-0.8l1.4-1c1.2-0.4,2.9,0.3,3.8,0.5c1.3,0.2,2.7,0.2,4-0.1l6.3-2.5l8.2-2.4
	c3.7-1.4,7-3.3,10.8-4.8l0.1,0.2c-0.8,2-4.2,2.7-6,3.8l-2.1,1.4l-2.6,0.7c-2.6,1.1-4.6,3.5-6.9,5c-2.9,1.8-6.3,2.8-9.1,4.8
	c-1.2,0.8-1.8,2.1-2.8,3l-1.1,0.2c-0.8,0.3-1.5,0.7-2.1,1.4c-0.3,0.5,0.2,1.1-0.1,1.7l-2.6,2.4c-1,1.3-1.9,2.7-2.7,4.2
	c-0.6,1.2-1.5,2.5-0.2,3.3C60.8,144.7,61.2,142.8,62.3,141.3L62.3,141.3z M54.5,145.3h0.2c1.1-1.6,2.8-2.6,3.8-4.3
	c0.6-1,0.1-2.1,0.5-2.9l2-1.9l1.2-2.7l2.6-2.1c0.3-0.4,0.3-0.9,0.7-1.2c3.7-1.5,6.7-3.4,10.2-5.1c2.2-1.1,4.6-1.7,6.4-3.1
	c0-0.2,0-0.4-0.1-0.7l-0.4-0.3c-2.4-0.6-4.4,2-6,2.4c-0.8,0.2-1.8-0.2-2.6,0.1c-1.6,0.7-2.6,2.2-4.1,3l-3.4,0.7
	c-3.9,2-6.2,6.4-8,10.6C57,139.4,53.5,143.2,54.5,145.3L54.5,145.3z M47.9,141.8h0.3c1.3-2.3,2.1-4.8,2.5-7.4c0.4-2.3-0.9-5,0.4-6.6
	c-0.1-1.9-0.5-3.7-1.3-5.4c-1.8-4.6-4.3-8.3-6.1-12.6c-0.5-1.2-0.7-2.5-1.2-3.9l-2.2-3.2c-0.5-1.1-1-2.2-1.5-3.3l-1.1-1.5
	c-0.2-0.7,0-1.3-0.3-2l-1.1-1.7c-0.3-0.8-0.1-1.9-0.3-3c-0.3-1.8-0.6-3.6-0.9-5.3c-1.1-4.6-2.7-7.8-3.5-12.7
	c-0.4-2.2-0.4-4.4-0.1-6.6c0-1.3,0.1-2.6,0.1-3.9c-0.1-1-0.2-2.1-0.3-3.1c-0.2-0.8-0.4-1.6-0.6-2.4c0.1-0.6,0.3-1.2,0.4-1.8
	c0-1.3,0-2.5,0.1-3.8c0.4-2,1.7-6.9-0.1-7.9c-0.9,0.2-0.6,3.8-0.9,5.2s-0.6,2.7-0.9,4.3c-0.2,1.3,0.5,2.3,0.3,3.4
	c-0.4,2.5-0.5,5-0.1,7.5c0.3,1.2,0.6,2.4,0.9,3.7c0.1,0.6-0.6,1.3-0.9,1.9c-0.3,1.1-0.4,2.3-0.1,3.5c0.3,1.5,1.5,2,1.8,3.3l-0.1,2
	c0.4,1.4,0.8,2.7,1.2,4.1l0.2,3.6c0.6,1.7,1.2,3.5,1.7,5.2l0.4,2.8l1.3,2.5c0.2,1.1,0.4,2.2,0.7,3.2l1,1.3c0,0.5,0,1.1,0.1,1.6
	l2.5,4.2c0.2,0.7-0.1,1.5,0.1,2.2c0.7,1.7,2.2,2.8,3,4.4s0.8,3.9,1.5,5.6c0.7,0.9,1.4,1.7,2.1,2.6l0.5,2.9c1.2,4.8,1.8,10-0.1,14.4
	C47.7,139.8,48,140.8,47.9,141.8L47.9,141.8z M28.7,45.6h-0.3c-1.1,0.9-1.1,2.8-2,4l0.4,1.1c0.4,1.6-0.7,3-0.9,4.1
	c0,0.5,0,1-0.1,1.4c-0.3,0.5-0.5,0.9-0.7,1.5c-0.2,1.9-0.2,3.9,0.2,5.8c0,1.1,0,2.1-0.1,3.2l1.2,0.4l0.4-0.1c1-3,0.2-7.7,0.5-10.9
	l0.4-1.2l0.4-4c0.2-0.5,0.4-1,0.6-1.6c0.1-0.8,0.2-1.5,0.3-2.2C29,46.5,28.9,46.1,28.7,45.6z M44,137.3c0.1,0.4,0.5,0.6,0.9,0.7
	c0.7-0.9,1.4-1.9,1.9-3c0.2-0.9,0.4-1.8,0.7-2.7c0.1-3.8-1.6-4.3-2.2-6.8c-0.2-1.5-0.3-2.9-0.4-4.4c-0.5-1.8-2.1-2.8-2.8-4.5
	c-0.4-1.8-0.8-3.7-1.2-5.6c-0.5-1.3-1.7-2-2.5-3.1s-0.6-3-1.1-4.4L34.6,99l-0.9-4.7c-0.5-1.2-1.7-1.9-2.1-3.5L31,84.7
	c-0.3-0.9-0.7-1.7-1.1-2.4c0.4-1.5,0.3-3.1-0.4-4.5c-0.3-0.4-0.6-0.8-0.9-1.2c0-0.5,0-1,0.1-1.5c-0.3-1.7-0.4-4.1-1.4-5.1
	c-2.4,0.9-1.3,5.7-0.1,7c-1,2.4,0.5,2.9,1,4.6c0.1,0.5-0.5,2.2-0.1,3.3s1.7,2.4,1.8,3.2s-0.5,1.7-0.2,2.7c0.8,3.2,2.5,6.3,3.6,9.2
	l2.1,6c0.1,0.8,0.3,1.6,0.4,2.4l1.7,2.2c1,1.6,1.6,3.5,2.5,5c-1,3.7,1.1,4.3,2.3,7c0.5,1-0.1,2.2,0.2,3.5s1.3,2.1,1.7,3.5
	c0.2,0.7,0.9,4.9,0.8,5.2C44.7,135.5,43.7,136.4,44,137.3z M42,136.1c0.2-0.7,0.3-1.4,0.4-2.2c0-2.4-0.4-4.7-1.1-7
	c-0.4-1.7-0.7-3.4-1.1-5.1c-0.8-1.8-1.7-3.7-2.5-5.5l-2.9-8.2c-0.8-1.6-1.6-3.3-2.4-4.9c-0.4-1.1-0.3-2-0.7-3.2
	c-0.2-0.7-1.1-1.4-1.4-2.2c-0.8-2-0.7-4.5-1.7-6.3l-1.4-2l-0.1-1.8l-0.7-1.4c-0.1-1-0.1-2.1-0.2-3.1l-1.1-3
	c-0.5-1.9,0.7-4.3-1.7-4.5l-0.1,0.2c-1,2.1,0,7.1,0.6,8.7l1.2,2c-0.4,1.9,0.9,2.6,1.5,4.3c1.2,4.1,1.8,8.2,3.3,11.6l1.6,4.3
	c0.4,1.7,0.3,3.1,0.9,4.5c0.7,0.8,1.3,1.7,1.9,2.5l1.6,6.1c1.1,3.1,2.2,6.3,3.2,9.4c0.6,1.9,0.3,4.3,0.9,6.4l1.4,0.6L42,136.1z
	 M37.3,136c0.2-0.1,0.2-0.1,0.3-0.3c0.1-0.5,0.2-1,0.3-1.4c0.1-5.2-1.5-8.2-2.6-12c-0.4-1.5-0.3-4-0.9-5.5l-2.4-4
	c-0.4-1,0-2.4-0.4-3.5c-1-2.2-2.1-4.4-3.1-6.6c-0.4-0.9-0.1-2.3-0.4-3.1c-0.5-0.7-1-1.5-1.5-2.2c0-0.8,0-1.6-0.1-2.4l-2-3l0.2-0.8
	c-0.1-0.8-0.3-1.7-0.4-2.5c0-0.4,0-0.9,0.1-1.3c-0.3-0.5-0.6-1-0.9-1.4c-0.4-1.1-0.7-2.3-0.9-3.5c-0.4-2.2-0.9-5.9-2.3-6.8l-0.3,0.2
	c-0.6,1.8-0.5,3.8,0.2,5.6l0.9,1.5c0.2,0.8-0.2,1.6,0.1,2.4s2,2.7,1.8,3.5c-0.8,4,1.1,4.6,1.9,7.6c0.3,0.9-0.3,1.7,0,2.6
	s1.3,1.5,1.7,2.6c0.6,2,0.5,4.5,1.2,6.3c0.3,0.8,1.1,1.3,1.4,2c0.4,1,0.2,2.5,0.6,3.5L32,118c0,0.9,0.1,1.9,0.1,2.8
	c0.2,1,1.2,1.6,1.5,2.4c0.1,1.2,0.3,2.4,0.4,3.6c0.3,0.9,1,1.3,1.4,2c0.6,1.4-0.1,1.9,0.9,3.2C35.9,133.8,36.2,135.2,37.3,136z
	 M16.2,119.6l2.7,3.2l0.3-0.1l-0.9-2.6c-0.2-0.9,0.3-1.6,0.1-2.3l-1.5-3L17,114c0.4-2.1-0.3-4.1-2.2-3.8c-1.2,2.2,0.6,4.6,1.3,6.3
	C16.5,117.6,15.9,118.7,16.2,119.6z M9.2,111.2c0.1-0.1,0.1-0.1,0.2-0.1c-0.1-0.8-0.1-1.2,0.5-1.5c1.8,1.1,1.2,3.4,2.2,5.3L13,116
	c0.3,0.6,0.2,1.2,0.9,1.4l0.1-0.1c-0.7-3.3-0.9-7.1-1.8-10.3l-0.2-0.1c-0.7,0.3-1.1,1.4-2,1.1c-1.1-0.5-0.8-2.2-1.8-2.7
	C5.5,106.6,8.4,110,9.2,111.2z M5.6,90.9c0.4,0.2,0.9,0.3,1.3,0.2l0.2-0.4c0-1-0.2-2-0.4-2.9l-0.2-0.1C5.3,88.4,4.9,89.7,5.6,90.9
	C5.5,90.9,5.5,90.9,5.6,90.9z M12.3,73.9c-0.3,0.4-0.6,1.5-1.1,1.7h-0.5c-0.6-0.3-0.6-1.1-0.9-1.7H9.5c-1.1,1.5-3.3,2.8-5.3,1.7
	c-0.6,0.6-0.9,1.4-0.6,2.3L4,78.4l0.2-0.1c0.6-0.3,0.7-0.9,1.4-1l0.2,0.2c0.8,1.4-1.6,2.1-2.9,2.1c0,2.2,0.3,4.4,0.9,6.6l0.1,0.1
	l0.2-0.1l0.7-1.4c1,0,2.4,0.5,2.9-0.5s-0.4-1.8-0.9-2.2v-0.4l0.9-1.2h0.2c0.5,0.5,1.2,2.3,2.2,1.9c0.3-0.2,0.4-0.3,0.6-0.6
	c0-1.1-0.7-3.4-0.1-4l0.4,0.3c0.6,1.5,1.9,3,1.4,5.5c-0.1,0.8-1.3,2.5-1.2,2.9c0.5,2,2.4,3.5,1.8,6.6l-0.3,0.1c-2.2-1.4-2-3.7-2-7.1
	c0.1-0.8,0-1.7-0.4-2.4h-0.1C8,84,8,85.8,9.2,87.1c-0.2,1.7-0.5,3.5-1.1,5.1c0.8,1.6,0.4,4.2,0.9,6.1c-0.1,0.1-0.1,0.2-0.2,0.4
	c-3.2,0-1.9-3.7-2.7-5.9H5.8c-1.2,1.7-0.2,3.9,0.1,5.7c0.2,0.9-0.2,2,0.2,2.7c0.5,0.9,2.6,1.1,3.5,1.6c0.7,0.5,1.2,1.1,1.6,1.8
	c0.6-0.1,1.2-0.1,1.8,0.1c0.4,1.3,0.9,2.9,2.1,3.4c0.8,0.2,1.3-0.4,2-0.2c1.9,0.9,1.1,4,1.6,6.3c0.3,1.3,1.2,1.9,1.6,3.1
	c1.3,4.6-0.2,7.8,4,9.8l0.1-0.1c-0.2-2-2.8-7.7-2.5-8.9c0.3-0.4,0.5-0.8,0.8-1.2c-0.3-1.8-2.2-3.5-1.9-5.3h0.1
	c2.2,0.8,2.4,4.3,3,6.7c1,4,2,10.1,5.3,11.7l0.3-0.1l-2-6.3c-0.7-3-1.4-5.9-2-8.9c0,0,0-0.1,0.1-0.1h0.3l1.5,2.2
	c1,2.3,1.1,5.2,2,7.7c0.3,0.7,0.7,1.3,1,1.9v1.5l1.3,2c0.7,1.3,0.8,3.4,2.6,3.6c0,0,0-0.1,0.1-0.1c0.7-2.3-0.8-3.8-1.4-5.6l-0.7-4.6
	c-0.3-0.9-0.7-1.7-1.1-2.5c-0.1-0.9-0.3-1.8-0.4-2.7c-1.2-3-3-6.1-4-9.3c-0.3-0.9,0.3-2,0-2.8l-1.6-2.2c-0.2-0.8-0.3-1.6-0.5-2.5
	c-0.7-2.1-1.4-4.1-2.1-6.2c-1-2.8-1.6-10.2-3.6-11.5c-1.6,0.9-0.3,3.1,0.3,4c-1.5,2.9,1.6,5.4,1,8.7h-0.3c-1.3-1.7-1.9-3.1-1.9-6.3
	v-3.3c-0.2-1.2-0.8-1.8-0.9-2.8c-0.3-1.5,0.7-2.8,0.9-4.1c0.2-1.1-0.8-1.7-0.9-2.6c0-0.7,0-1.4-0.1-2.2l-0.6-0.6
	c-1,0.2-0.8,1.2-1.2,2c-0.2,0.6-0.9,1.3-0.5,2.1L15,79c0.1,0.4-0.4,1.2-0.3,2s0.4,1.8,0.6,2.7c0.3,1.1,0.1,2.6-0.6,3h-0.4l-0.6-3
	c-0.6-3.6,0.6-7.6-1.2-9.9L12.3,73.9z M24,74.1l0.5-0.3c0.4-2.2-0.5-3.6-0.8-5.3l-0.4-5.7c-0.9-5.8,1.4-10,2.5-14.3
	c0.3-1.1-0.3-2-0.1-3s0.5-1.6,0.8-2.5c0.1-0.5,0.1-1,0.2-1.5c0.1-1.4-0.1-2.7-0.6-4l-0.4,0.1c-1.9,0.9-0.8,3.7-1.3,6l-1.1,4.5
	c0,1.2-0.1,2.5-0.1,3.7c-0.2,0.7-0.8,1.1-1,1.7c0,0-0.4,5.7-0.4,5.8c0.1,0.5,0.6,0.7,0.7,1.3c-1.1,1.1-1.2,5.7-0.7,7.9l0.7,1.9
	C22.8,72,21.9,73.9,24,74.1z M27.8,37.6c1.3-0.2,1.4-1.9,1.9-3c0.1-0.8,0-1.6-0.4-2.2h-0.1C27.8,33.7,27.2,35.7,27.8,37.6L27.8,37.6
	z M22.1,31c0,0.4,0.5,0.6,0.4,1.2c-0.2,1.3-1.2,2.2-1.6,3.6c-0.7,2.8,0,6.4-0.6,9.5c-0.2,1.2-0.8,2.2-0.9,3.2c0.1,0.5,0.1,1,0.2,1.5
	l-1.1,1.4c0,1.3,0.1,2.5,0.1,3.8c-0.4,0.8-0.6,1.8-0.6,2.7c0,3.7-1,7.2-0.4,10.8c0.2,1.5,0,3.2,1.6,3.3c2.3-1.8,0.2-10,0.8-13.8
	c0.5-4.9,1-9.7,1.5-14.5c0.3-1.3,1-2.6,1.3-4.2c0.6-3.1-0.3-5.2,1.3-7.4l-0.4-1.3c0-1.3,0.4-2.7,1.1-3.8c0-0.6-0.1-1.2-0.5-1.7
	c-0.4-0.1-0.9,0-1.2,0.2c-0.7,1.4-0.1,2.5-0.4,4.1C22.5,30.2,22.3,30.6,22.1,31z M20.7,29.8c-2.6,0.5-1.8,5.6-2.5,8.1
	c-0.2,0.7-0.9,1.6-0.6,2.5l0.5,0.6l0.2,0c2.8-1.4,1.1-7.7,2.7-10.2c0-0.2,0-0.4-0.1-0.6L20.7,29.8z M9.2,66.3L8.6,67
	c-0.1,1.2,0.2,2.4,0.9,3.3l0.1-0.1c0.4-0.2,0.6-0.8,0.9-1.1h0.3c0.6,0.5,1.3,1.4,2.2,1.5c1.5-1.2,2.2,0.9,3.9-1.2
	c0-1.2-0.2-1.7-0.9-2c-0.7,0.2-1,0.9-1.7,1.1l-0.1-0.2c-0.3-0.3-0.3-0.8,0-1.2c0.6,0,1.2,0,1.8-0.2c0.1-1.3,0.4-3.4-0.1-4.4h-0.1
	l-0.3,0.1c-1,0.5-0.8,2.1-1.7,2.7h-0.1c-1.5-1.1,0.1-3.7-0.8-5.2l-0.4-0.1c-1.4,0.7-1.3,4.1-0.5,5.4l1.2,1.2L13,66.9
	c-0.7,0-1.5,0.1-2.2,0.4C10.4,66.8,9.8,66.4,9.2,66.3z M10,61.3c0.6-2.1-0.4-2.6-0.6-4c0.4-1.4,0.8-2.7,1.2-4.1
	c0.1-0.7,0.2-1.4,0.3-2.1c0-1,0.2-2.5-0.4-2.9c-2.1,0.9-1.4,7.5-2,10c-0.3,0.9-0.4,1.9-0.2,2.8l0.5,0.7C9.2,61.7,9.7,61.6,10,61.3
	L10,61.3z M12.5,59.2c0.3-0.1,0.7-0.1,0.8-0.4l0.1-2.7l0.9-4.8c0.1-0.9,0-1.8-0.3-2.7H14c-1.6,0.2-2.1,2.4-1.7,4.3
	c0.1,0.3,0.1,0.6,0.2,0.9C12.1,55.5,10.7,58,12.5,59.2L12.5,59.2z M16.2,49.8c-0.1,0.8-0.3,1.5-0.4,2.3l-0.9,1.7
	c0.1,1.2,0.2,2.3,0.3,3.5c-0.3,1.1-0.5,2.2-0.4,3.3l0.9,0.7c0.1,0,0.2-0.1,0.2-0.2l1.9-12.8l0.4-5V43L18,42.9
	C15.8,44.1,16.7,46.8,16.2,49.8L16.2,49.8z M15.8,71.7c-0.2,0.7-0.1,1.4,0.7,0.9c0-0.1,0-0.1,0.1-0.2c0-0.3-0.1-0.6-0.2-0.9
	C16.2,71.6,16,71.6,15.8,71.7L15.8,71.7z M4.7,64C4,64.6,3,70.5,4.3,71.3c1.1,0.1,2.3,0,3.4-0.4c0.1-0.4,0.3-0.8,0.4-1.2
	c0.1-1.2-0.1-2.4-0.5-3.5H7.3l-1.4,1.6l-0.4-0.1C5,66.6,5.4,64.9,5,64H4.7z M9.8,64.5l0.5-0.7c-0.1-0.5-0.1-0.9-0.1-1.4L10,62.3
	c-0.3,0-0.7,0.1-0.9,0.4C8.8,63.4,8.7,64.4,9.8,64.5L9.8,64.5z M6.1,53.5c-0.6,0.4-0.2,1.2-0.4,2.1c-0.4,1.8-1.4,3.3-1.4,5.6
	c1.5,0.6,2,1.7,3.2,2.4c0.3-0.1,0.3-0.1,0.4-0.4l-0.2-1.6l-0.4-0.3l-1.2,0.1v-0.1c-0.6-1.8,0.7-3.8,0.7-5.5
	C7,54.8,6.9,52.9,6.1,53.5L6.1,53.5z M6.8,46.2c-0.5,2-2,3.4-0.3,5.8L7,51.7c0.2-0.5,0.4-1,0.6-1.5c0-1.3,0-2.5,0.1-3.8l1-1.9
	c0-0.4,0-0.5-0.3-0.7l-0.5-0.2C6.1,44.3,7.2,44.6,6.8,46.2L6.8,46.2z M10.8,32.4c-1,0.5-3.9,7.1-3.3,9.2l0.9,1.3h0.4
	c0-1.5,0.3-3.1,0.8-4.5c0-0.6,0-1.2-0.1-1.9C9.8,35.3,11.4,34.4,10.8,32.4L10.8,32.4z M13.8,30.7c-2.5,1.5-2,8.1-2.7,11.6
	c-0.3,0.9-0.6,1.9-1.1,2.7c-0.5,0.9-0.3,1.9,0.3,2.7c2.2-0.3,1-1.5,1.7-3.2l0.9-2.1c1-3.7,0.4-7.7,1.9-10.8c0-0.4-0.2-0.8-0.5-1.1
	L13.8,30.7z M19.7,24.9c-1.6,0.6-2,2.9-2.5,4.7c-0.4,1.6-1.6,3.1-1.9,4.5l0.1,2.2c-0.3,1.5-0.6,2.9-1.1,4.3
	c-0.3,1.1-1.1,4.3-0.1,5.2c2-1.2,1.4-4.3,2.2-6.9c0.4-1,0.7-2,1-3c-0.1-1.1-0.2-2.2-0.3-3.2c0.3-1.2,2.1-3.2,2.8-4.3
	C20,27.1,19.9,26,19.7,24.9L19.7,24.9z M30.3,18.1c-2.3,0.9-1.9,4.4-2.6,7c-0.3,0.9-0.8,1.7-1.4,2.5c-0.4,1-0.7,2.1-0.8,3.2
	c-0.3,1.5-0.5,3-0.6,4.5c0.2,0.5,1.3,1.4,1.7,0.9s0-1.7,0.3-2.5c0.5-0.7,0.9-1.4,1.4-2.1c1.1-3.1,0.9-6.3,2.3-8.9
	C30.5,21.1,30.4,19.6,30.3,18.1L30.3,18.1z M35.8,14.7c-1.4,0.7-1.5,3-2.1,4.5c-1.1,2.4-1.9,4.9-2.4,7.4c-0.2,1.2,0.3,2.4,0.2,3.4
	c-0.3,2.3-0.5,5.5-1.3,7.5l-0.9,1.2c0,0.4,0,0.8-0.1,1.2c-0.3,1.3-1.9,3-0.4,4.2l0.9-0.2c0.6-0.9,0.5-2.3,1-3.5l1.9-4.1
	c0.4-1.2-0.1-2.3,0.2-3.6l0.9-2.4l0.7-3.8c0.6-3.2,0.7-6.3,1.4-9.2c0.1-0.8,0.2-1.6,0.5-2.3l-0.2-0.4L35.8,14.7z M47.5,13.3
	c-0.5,1.9-3.2,4.1-2,6.6h0.3c1.8-1.5,1-2.2,1.7-4.8l1.5-3.5c0.1-0.4-0.1-0.8-0.4-1.1C47.5,11.1,47.8,11.8,47.5,13.3z M53.1,28.8
	c2.2-1.6,2.1-2.7,3.2-5.3c0.3-0.8,1.1-1.3,1.5-2s0.3-1.4,0.7-1.9l0.7-0.8c0.1-0.7,0.1-1.4,0.2-2.2c0.6-1.8,1.3-3.6,2.2-5.3
	c0.1-0.8,0.3-1.7,0.4-2.5C62,8.5,62,8.2,61.8,8c-2.6,1.4-2.3,4.2-3.5,7.1c-0.4,0.9-1.1,1.2-1.6,1.9c-0.2,0.9-0.4,1.8-0.7,2.7
	L54,23.7C53.6,24.5,52.3,27.8,53.1,28.8L53.1,28.8z M51.9,33.8c-1.4,3.7-1.9,9-2.8,12.9c-0.7,3.2-2.5,15.2,1.6,15.4l0.1-0.2
	c0.2-0.7-1-2.8-1.2-4c-0.7-3.8,0.1-9.6,0.9-12.6c0.8-3.2,1.9-6.2,3.2-9.2l1.8-3.2c0.4-1,0.1-2,0.6-2.7c1.4-2.3,3.3-4.3,4.5-6.9
	c0.9-2.1,2.1-4.1,2.9-6.2l1.1-3.8c0.2-0.9-0.2-1.8-0.9-2.4L63,10.9c-1.2,0.6-0.7,2.4-1,4c-0.3,1.4-0.8,2.8-1.6,4
	c-0.7,1.2-2,1.8-2.6,3.2c-0.7,1.8-0.8,3.5-1.7,4.9C54.8,29.3,52.8,31.2,51.9,33.8L51.9,33.8z M71.4,6.8c-0.5,1.4,1.7,1.7,1.2,3.1
	h-0.3c-0.7-0.7-1.6-2.5-2.7-2.7c0,0.1,0,0.1-0.1,0.2c-1.1,2.2,0.7,3.6,1.9,4.5l2.1,1.8l6.6,3.8c3.2,1.9,5.7,4.5,8.9,6.4
	c2.5,1.5,6.1,1.4,8.9,2.7c1.3,0.6,2.1,1.7,3.2,2.4c0.7,0.4,1.7,0.2,2.5,0.6c1.2,0.6,2.4,1.3,3.5,2.1c1.8,1.3,2.9,3.4,4.7,4.6
	l4.5,2.1c1.2,0.8,2.4,1.7,3.3,2.8c0,0.3,0,0.3-0.2,0.4l-3.8-2.2c-0.7-0.2-1.4,0-1.9-0.4c-1-0.6-1.3-1.8-2.4-2.2
	c-1.9-0.8-4.7-0.8-6-2.2c0.1-0.2,0-0.1,0.1-0.2c0.7-0.2,1.6,0.4,2-0.3c0.2-0.6,0.1-1.3-0.4-1.9c-1.7-0.4-3.3-0.9-4.9-1.5
	c-4.6-2.3-9-4.8-14.3-6.4c-1.8-0.5-4-0.1-6.1-0.6l-4.4-1.5c-1.8-0.3-2.9,0.7-4.1,1.1c-1.6,0.5-3.4,0.5-4.8,1.1
	c-0.7,0.4-1.3,0.8-1.8,1.4l-0.1-0.1c0-0.7,0.3-1.4,0.9-1.9c0.4-0.5,0.9-1.3,1.5-1.6c2.3-1,4.2,0.4,6-1.5c0-0.6-0.2-0.6-0.4-0.9
	c-1.1-0.5-2.2-0.6-3.4-0.4c-0.6,0.2-1.2,0.3-1.8,0.3c0.1-1.1,0.9-1.9,1.3-2.8c1.2,0.3,2.3,1.3,3.3,2c2,1.1,4.1,2.1,6.3,2.9
	c0.7,0.3,3.4,1,4,0.3v-0.3c-1-2.3-3.4-1.9-5.5-3.1c-1-0.7-2-1.4-3.1-2l-2.9-0.9c-1.4-1-1.2-2.7-3.1-3.3c-1.4,0.7-0.2,2.2-0.8,3.7
	l-1.2,1.7c-0.3,0.8,0.2,1.7-0.1,2.5c-0.5,1.6-1.7,2.5-2.3,4c-0.3,0.9,0,1.6-0.2,2.7s-1.1,1.3-1.6,2c-0.3,0.4-0.2,0.8-0.4,1.3
	c-0.5,1.1-1.8,2-2.5,3.1c-1.2,2.3-2.2,4.7-3,7.1l-1.8,3.6c-0.2,0.9-0.2,1.9-0.2,2.9c-0.3,0.9-0.5,1.8-0.8,2.7
	c-1.1,3.4-1,9.5,1.2,11.6l0.6-0.2c0.3-2.5-0.6-4.1-1-6.1c-0.4-2.2,1-4.1,1.4-5.8c0.2-1.2-0.5-1.8-0.3-2.8c0.3-0.8,0.6-1.6,1-2.4
	c1.7-4,3.9-7.9,6.4-11.4c0.8-1.3,1.6-3.5,2.9-4.3l3-0.9c1.6-0.8,3.3-1.5,5-2.1c5-1.3,14.1,2,17.5,3.5c3.8,1.7,8.9,2.3,11.8,5
	c-0.1,0.2-0.1,0.3-0.1,0.4l-0.2,0.1c-2.4,0-3.2-1.5-5.1-2.1l-5.8-1.6L90,28.8l-3.2-0.4l-1.6-1.2c-3-0.7-6.2-0.8-9.2-0.2
	c-4.1,0.7-7.3,2.2-9.4,4.9c-0.4,0.8-0.9,1.6-1.3,2.4c-1.1,0.9-2.1,1.9-3,3c-2.8,3.9-4.2,10.1-5.2,15.6c-0.3,1.5,0.4,2.9,0.6,4.3
	c0,2.2,0.1,4.3,0.1,6.5c0.4,1.8,1.7,2.7,2.5,4c0.5,0.9,0.4,2.4,0.9,3.3l3.4,3.7c0.4,0.9,0.8,1.8,1.1,2.8c2.6,0.7,4,3.7,6.1,5.1
	c0.7,0.5,1.6,0.4,2.4,0.9l1,1.1c0.9,0.7,1.8,1.3,2.8,1.7c2.2,0.8,5,1,7.7,1.4l3,0.1c1.5,0.2,5,0.8,6.6,0.6c3.5-0.8,6.8-2.3,9.8-4.3
	c0.9-0.6,2.9-2.7,3.9-2.8c-0.3,2.7-3.4,4.2-5.7,5l-4.8,2l-1.8,1.1c-2.5,0.7-5.6-0.4-8.3,0c-1,0.2-1.9,0.5-2.8,0.6
	c-0.2-0.3-0.4-0.9-0.7-1.1c-0.6-0.2-1.2,0.5-1.6,0.8l-2.2-0.9c-1.7-0.5-3.4-0.6-4.8-1.5c-0.5-0.3-0.7-1.1-1.2-1.4l-1.6-0.3l-1.7-1.3
	l-1.9-0.6c-1.6-1.2-3-2.6-4.2-4.3L62,75.6c-0.2-0.7-0.3-1.3-0.5-2c-0.8-1.6-1.7-3.3-2.5-4.9c-1.4-2.2-2.8-4.5-4.2-6.7
	c-0.7-0.9-1.3-1.9-1.7-2.9c0-0.9,0-1.9-0.1-2.8c-1-6.2,0.9-11.7,2.5-15.7l2.9-5.9c0.3-1,0.6-2,0.9-3c0.5-0.9,1.8-1.2,2.4-2.1
	c0.4-1.2,0.8-2.5,1.2-3.7l3.1-6.8c0.4-1,2.2-4.5,1.9-5.6l-0.5-1.4c-0.3-1.4,0-2-0.6-3C66.2,8.8,66,8.8,65.6,9
	c-0.4,1.4,0.4,3.1,0,4.8C64.9,16,64.1,18,63,20c-0.3,1.2-0.7,2.4-1,3.6L56.5,33c-2.3,4-3.4,8.3-4.7,13.3c-0.9,3.4-1.4,10-0.3,13.7
	c0.5,1.6,1.6,2.1,2.3,3.3l1.1,2.9c0.7,0.9,1.3,1.8,2,2.7c0.1,0.9,0.2,1.8,0.2,2.7c0.5,1.3,2.1,2,2.7,3.2c0.7,1.5,0.8,3.8,1.8,5.1
	l2,1.2c0.4,0.5,0.1,1.4,0.6,1.9c0.7,0.4,1.4,0.8,2.1,1.2c1,1,2.1,2,3.1,3l1.7,1.4c0.6,0.4,1.3,0.4,1.8,0.9s0.2,1.3,0.8,1.3
	c0.5-0.2,0.7-0.6,1.4-0.7c3.4,1.8,8,1.7,12.6,2.5c1.6,0.3,3.5,0.9,5.2,0.4c1.3-0.3,2.2-1.2,3.2-1.7s2.7-0.2,3.8-0.6
	c2-0.9,3.8-1.9,5.6-3.2l3.6-1.7c0.3-1.6,1.9-2.3,2.7-3.4c0.3-0.5,0.4-1,0.8-1.4c0.2,2.4-4.4,7.4-6.2,8.1l-2,0.2
	c-1.1,0.3-1.7,1.9-2.9,2.4c-2.8,1.3-6.2,1.5-9.7,2.1l-3.8-0.1c-2.7-0.4-5.3-0.5-7.7-0.9c-1.5-0.2-1.9,0.8-3.2,0.5
	c-1.7-0.4-2.7-2.6-5-1.9l-2.3-2.1c-0.5-0.3-1.8-0.2-2.1-0.7c-0.1-0.5-0.2-1-0.3-1.4c-0.5-0.2-0.8-0.2-1.4-0.5l-1.7-2.2
	c-1.8-2.2-4.3-3.5-5.6-6.3c-1-2.2-1.2-4.8-2.5-6.7c-0.5-0.7-1.1-1.3-1.7-2c-0.2-0.8-0.3-1.6-0.5-2.4c-0.6-1.4-2.5-3.6-4.3-3.7v0.1
	c-1.1,2.5,0,7.1,0.9,8.7l1.3,1.4c0.7,0.9,0.4,2.5,1,3.2s1.7,0.8,2.5,1.3s0.5,1.4,1,2.4c1.1,2,2.3,1.2,2.9,4.4c1.6,0.8,3,1.9,4.2,3.3
	c0.5,0.7,0.7,1.8,1.3,2.3c1.6,1.2,3.2,2.1,4.8,3.2l2.6,2.2c0.6,0.4,1.9,0,2.7,0.6s1,1.6,1.8,2.2c0.7-0.2,0.9-0.8,1.6-1l3.1,0.7
	c2.8,0.6,6.8,1.2,9.8,0.4c1.3-0.3,2.5-0.9,3.4-1.9l0.9-1.4l1.8-0.4l6.1-2.2c4.6-2,8.6-5.2,11.5-9.2l1.8-2.4c0.3-0.8,0-1.5,0.3-2.2
	c0.5-0.7,1-1.5,1.4-2.3c0.3-1.3,0.3-2.7,0.1-4c0-0.9,0-1.8-0.1-2.7c-0.3-1.7-1.1-3.3-2.1-4.6v-0.2h0.1c1.6,0.9,4.3,4.6,3.8,7.7
	l-0.7,2.2c-0.1,1.4-0.2,2.8-0.3,4.2c-0.7,2.5-1.9,4.7-3.6,6.6c-2,2.3-4.4,4.2-7.2,5.6l-2.3,0.9l-2,1.9l-2.1,0.2l-3.9,2.4
	c-0.8,0.3-1.7,0-2.6,0.3c-1.1,0.4-1.5,1.6-2.7,2c-5.6,1.5-11.4,1.6-17,0.1c-1.8-0.5-2.7-1.9-4.1-2.8l-3.8-1.4
	c-2.2-1.6-4.1-3.5-5.8-5.6l-2-1.9c-0.3-0.5-0.1-1.4-0.3-1.8L58,85.9c-0.7-4.1-4.8-6.2-6.8-9c-0.9-1.5-1.6-3.2-2.1-4.9
	c-0.7-1.3-1.3-2.7-1.8-4.1c0-1,0-2-0.1-3c-0.2-0.7-0.9-1-1.1-1.6C46,60,46,56.6,45.9,53.2c0.6-3.6,0.1-7.5,0.9-10.5
	c0.7-2.7,2.2-5,2.8-7.8c0.3-2.7,0.5-5.3,0.8-7.9c0.4-1.4,1.3-2,1.9-3.1c0.1-0.9,0.3-1.8,0.4-2.7c0.5-1.1,1.7-1.8,2.3-3
	c0.9-1.8,1-4.4,1.7-6.4c0.3-0.8,1.5-2.1,1.1-3.1c-0.1-0.1-0.1-0.1-0.1-0.2c-2.9,0.1-2.5,3.9-3.4,6l-2.5,4c-0.6,1.6-0.8,3.7-1.4,5.5
	l-1.1,1.4c-0.3,0.4,0,1.1-0.1,1.7l-1.2,2c0,1.1-0.1,2.2-0.1,3.2C47,36,45.6,39,44.9,43c-0.1,1.4-0.2,2.9-0.2,4.3
	c-0.6,2.7-0.7,5.5-0.3,8.3c0.5,2.9-0.9,6.8-0.4,8.9c0.2,0.4,0.4,0.7,0.7,1.1c0.7,1.7,0.9,3.4,1.5,5.1s2,3.2,3,4.6
	c0.1,0.5,0.2,1.1,0.3,1.6c0.2,0.9,0.6,1.7,1.2,2.5l3.3,3.4c0.1,0.7,0.2,1.3,0.3,2l1.9,2.2l0.4,1.6l0.8,0.6l2.5,2.6l1.6,0.7l1.7,2.7
	c0.8,1,1.8,1.8,3,2.4l1.7,0.5c0.3,0.5,0.5,1,0.8,1.6c0.7,0.3,1.3,0.2,1.9,0.5c0.4,0.4,0.8,0.8,1.2,1.2l2.7,0.7
	c3.8,1,9.2,2.3,14.1,1.4c3.8-0.7,6.1-2.5,9-3.9c0.7-0.4,2-0.1,2.8-0.6l1.4-1.4c1.5-1,3.9-1,5.4-1.9l2.8-2.6l4.4-2
	c2.8-2,4.3-5.6,5.6-9c1.9-4.8,3.8-8.5,1.4-14.4l-1.2-1.4l-2.2-3c0-0.1,0.1-0.1,0.1-0.2c0.3-0.2,0.6-0.4,0.9-0.4
	c1.5,0.6,1.7,2.7,2.5,4c1.2,1.6,2.1,3.4,2.7,5.4c0.8,3.2-1.2,8.5-2.2,10.7c-2.9,6.2-8,11.1-14.3,13.9l-4.7,1.8c-1.7,0.8-3,2.2-4.8,3
	c-3.5,1.5-7.2,2.6-10.9,3.5c-5.7,1.4-11.7,0.6-17-2c-0.7-0.3-4.3-1.4-4.4-1.8c0-0.5,0.1-1,0.1-1.4c-4.1-2.3-7-6.3-9.8-9.9l-3.8-4
	c-0.4-0.6-0.1-1.4-0.4-2l-1.4-0.9c-0.4-0.5-0.3-1.8-0.6-2.4l-2-2.6c-1.9-3.3-3.4-6.8-4.5-10.4l-0.4-3c-0.3-0.8-0.5-1.7-0.8-2.5
	c0.4-0.9,0.6-2,0.5-3l-0.7-3.5c-0.4-1.8,0.3-3.8,0.6-5.2c0.6-3.4,0.4-6.5,1.2-9.7c0.7-2.8,1.6-5.3,2.4-7.8l0.9-4.3
	c0.7-2.2,1.4-4.4,2.1-6.6c1.3-3.8,3.6-6.4,4-10.9l-0.2-0.1c-0.3,0-0.2,0-0.4,0.1c-1.8,0.9-2.7,4.1-3.5,6l-2.8,5.3
	c-0.5,1.2-0.9,2.4-1.1,3.6L44.9,28c-0.5,1-1.1,2-1.7,3c0,1.3-0.1,2.6-0.1,3.9c-0.7,2.4-1.3,4.8-2,7.1v4.8c-0.3,0.5-0.5,1.1-0.8,1.6
	c0.1,1.5,0.2,3,0.3,4.5c-0.3,1.8-1.2,4.7-0.8,6.7c0.2,0.6,0.4,1.2,0.6,1.8c0.2,0.9-0.6,1.7-0.4,3c0.5,2.5,1.7,4.2,2.5,6.3
	c0.2,0.7,0.4,1.3,0.7,2c0,0.6,0,1.2,0.1,1.8c0.4,1.2,1.7,2.2,2.2,3.5c0.3,1,0.5,1.9,0.8,2.9c0.9,1.6,2.5,2.9,3.5,4.5l4,6.8l2.6,2.2
	l1.1,2.4l2.2,1.5c2.1,1.7,3.5,4.1,5.8,5.6c1.2,0.8,2.6,0.8,4,1.4l2.2,1.4c3.3,1.3,6.8,1.7,10.3,1.2c1.2-0.2,2.4-0.9,3.5-1.2
	s1.8,0.2,2.7,0s2.4-1.1,3.3-0.9v0.1c-0.1,0.1-0.2,0.2-0.2,0.4c-1.1,0.4-3.2,0.7-4.3,1.3l-1.7,1.2c-1.2,0.3-2.7-0.2-4,0.2
	c-1.6,0.4-3.3,1.6-5.4,1.2c-1.1-0.2-1.6-1.1-2.5-1.3s-1.6,0.6-2.4,0.4c-1.2-0.3-1.8-1.4-2.7-2c-1.4-0.9-3.3-1.2-4.6-2.2
	c-0.8-0.6-0.8-1.9-1.4-2.4l-1.4-0.7L58.4,99c-1.8-1.3-3.4-2.9-4.7-4.8c-0.3-0.5-0.2-1.3-0.5-1.9l-2.2-2c-1-1.7-2.1-3.4-3.1-5
	l-1.4-1.4c-0.1-0.7-0.2-1.3-0.3-2s-1.5-1.9-2-2.7c-0.4-1.2-0.8-2.4-1.2-3.5c-0.3-0.8-1-1.5-1.4-2.2c-0.8-1.9,0.3-2.8-1.7-3.7
	c-0.3,0.1-0.4,0-0.5,0.3c-0.7,1.7,1,3.9,1.4,5c0.4,2.2,0.9,4.4,1.3,6.6l2.7,3.8c1.7,2.9,3.4,5.7,5.1,8.6c0.7,1,2,1.4,2.7,2.4
	l1.1,2.4l1.7,1.2l3.2,3.1c1.5,1.8,3.2,4.1,5.3,5.3l3.5,1.6l3,1.8c1.7,0.6,6.2,0.5,8.3,0.2c6.2-1,10.9-2.2,15.2-5
	c1.2-0.8,2.3-1.7,3.2-2.7l1.2-1.4l2.2-0.6c1.8-0.8,3.2-2.2,5.5-2.5l0.2,0.2v0.3c-0.7,0.7-1.8,0.5-2.7,1l-1.7,1.6l-3.5,1.8
	c-1.3,0.9-0.2,2-0.7,2.4c-0.8,0.9-2.7,1.2-3.9,1.7l-7.8,2.8c-1.1,0.4-2.3,1.5-3.5,1.7c-2.7-1.1-4.4,0.9-7.6,0.4
	c-3.9-0.6-7.2-1-10.2-2.3c-2.2-1-3.1-2.7-4.5-4.5c-0.8-1-2.4-1.3-3.2-2.2l-4.6-6.3l-3.8-4l-1.4-1c-0.7-1.1-0.9-2.8-1.6-3.9L43.2,86
	c-0.6-1.2-1.2-2.4-1.6-3.7c-1.3-2.8-2.5-5.7-3.4-8.7c-0.9-3.3,1.7-4.5,1.1-7.6c-0.4-1.7-0.8-3.3-1.2-5v-3.4c0.1-2.6,0.2-5.2,0.2-7.9
	c1.2-7.3,2.1-13.7,3.5-20.9c0.4-2.1,1.6-3,2-4.6s-0.1-3.9-0.4-5.3c-0.5-2.7,2.2-5,1.4-6.9h-0.3c-2,2-1.8,4.1-2.6,7.4l-0.4,2.3
	c-0.6,1.3-1,2.6-1.4,4l-0.7,5.8L38.5,34c-0.3,1.5,0.3,2.8-0.1,4.3c-0.5,1.8-1.1,3.7-1.7,5.5c0,1.6,0.1,3.2,0.1,4.8
	c-0.2,0.4-0.3,0.9-0.5,1.3c0.1,0.9,0.1,1.7,0.2,2.6c-0.2,1.7-0.8,3.8-0.5,5.7c0.2,0.8,1,1.8,0.7,2.7c-0.2,0.8-0.7,0.8-0.7,2l1.4,1.1
	c0,1.4-0.3,6.5-1,7.3c0.9,1.7-0.2,3.2,0.4,5.3s2.5,3.7,2,6.4L38.7,83c-1.5-0.7-1.3-2-1.8-3.8c-0.2-0.7-0.7-1-0.9-1.6
	c0-0.8,0-1.6-0.1-2.4l-0.7-6.6c-0.4-1.5-0.7-3.1-1.1-4.6c0.2-2.6,0.3-5.2,0.4-7.8c0-2,0-4,0.1-5.9c0.8-4.9,0.6-10,1.8-14.5
	c0.5-1.8,1.3-3.5,1.7-5.2c0.7-2.6,0.6-5.3,1.2-7.7s1.5-5.9,0.9-8.9H40c-1.1,0.7-0.7,2.3-1.2,3.7l-2.2,5.8c-0.3,1.4,0.1,2.8-0.1,4.3
	c-0.2,1-1,1.4-1.3,2.2L34.9,34c-0.9,4.2-1.3,8.5-2,12.9c-0.4,2.7-0.4,5.4-0.1,8.1c0.3,1.4,0.3,2.8,0.2,4.1c-0.2,1-0.3,1.9-0.5,2.9
	c0.2,0.6,0.3,1.1,0.5,1.7c-0.4,4.1-0.1,8.3,0.9,12.3l0.9,2.4c0,0.6-0.1,1.2-0.1,1.7c0.3,1.6,1.4,2.6,2,4s0.4,3.3,1,4.7
	c1,2.4,3,4.2,4.4,6.2c1.5,2.3,3.1,4.6,4.6,6.9c1,1,2,2.1,3,3.2l1.4,1c0.3,0.5,0.2,1.3,0.5,1.7l1.7,1.6c0.5,0.7,0.7,1.5,1.2,2.3
	l2.4,1.6c2.6,2,4.5,4.6,7.9,5.9c2.4,0.9,5.1,0.2,7.4-0.2c2.5-0.5,5.1-0.1,7.1-0.9c1.2-0.5,1.4-1.7,2.4-2.2c0.8-0.3,1.6-0.3,2.3-0.6
	c1.3-0.6,2.6-1.2,4-1.7l3.8-0.8c2.2-0.8,4-2.3,6.1-3.1s3.9-1,5.6-2c4.8-2.8,8.4-6.7,12.6-10L121,94c0.6-0.9,0.9-1.8,1.5-2.6
	s1.4-1,1.9-1.7c1.8-2.5,2.5-5.9,3.5-9c0.5-1.6,1.7-3.2,1.2-5.8c-0.4-1.8-0.8-3.5-1.2-5.3c-0.1-1,0-2,0.3-3c0.1-1.2-0.1-2.4-0.7-3.5
	c-1.9-4.5-5.4-8.1-9.9-10.1c-1.6-0.7-3.6-0.6-5.3-1.2l-3-1.4L99.8,48h-4.4l-0.9-0.6l-2.2,0.1c-1.3-0.2-4-0.7-5.4-0.2l-3.4,2.2
	l-1.4,3c-0.6,1.1-1.7,2.2-2,3.5c-0.6,2.8,0,7.6,0.7,9.8c0.4,1.3,1.2,3.2,2.2,3.9c0.8,0.6,2,0.6,2.4,1.5c0.2,0.6,0.1,1.4,0.4,1.9
	l2.7,1.4c1.1,0.6,2.2,1,3.4,1.4c3.1,0.9,10.3,1.4,10.9-2c-0.4-0.5-1-0.8-1.6-0.9c0.4-1.1,2.3-0.8,2.7-2.1c1-3.8-3.3-5.8-2.9-8.6h0.4
	c3.1,1.8,4,6.7,3,11c-0.1,0.9-0.2,1.7-0.5,2.5c-0.9,0.4-1.9,0.7-2.8,1l-4.5,0.5c-0.9,0.2-2.2,0.9-3.2,0.7l-1.6-0.7
	C90.3,77.2,89,77.5,88,77c-0.7-0.4-0.7-1.1-1.2-1.6c-3,0.4-5-1.4-6.9-2.6c-1.3-0.8-3.2-1.7-4-2.9s-1.1-3.1-1.7-4.3
	c-1.1-1.8-2-3.8-2.7-5.8c-0.4-1.5-0.4-3.1,0-4.7c0.2-1.1-0.6-1.9-0.3-3.2c0.6-2.3,1.4-4.5,2.3-6.6c0.1-0.5,0.2-0.9,0.3-1.4
	c1.2-2.7,4.8-4.7,8.1-5.4l5.8-0.7c2-0.4,4.5-1.3,7-0.8l5.7,1.5c1,0.6,2.1,1,3.2,1.4c2,0.5,3.6,0.4,5.3,1.1c2.4,1.1,4.6,2.4,6.8,3.9
	l6.5,3.6c2.6,2.1,5,4.3,7.3,6.8c2.1,2.1,5.2,4.3,6.3,7.3c0.8,2.2,0.7,5,1.5,7.4c0.4,0.7,0.9,1.4,1.4,2.2c1.3,4.1-0.1,9.4-1.3,12.6
	c-2.6,6.7-6.2,12-10.1,17.2l-2.8,4.1l-2.1,1.4c-1.3,1.5-2.1,3.5-3.3,5c-0.8,1.1-2.2,1.6-3.3,2.4c-0.6,0.4-1,1.4-1.6,1.8l-1.3,0.4
	l-2.4,2.1l-1.6,0.7l-0.3-0.1v-0.1c0.3-0.8,1.6-1.5,2.2-2.1c2.5-2,4.8-4.1,7-6.5c0.7-0.8,2.2-1.8,2.6-2.9c0.2-0.6-0.1-1-0.1-1.6
	c2.4-2,4.4-4.4,6.1-7.1c0.9-1.4,2.6-2.2,3.5-3.6l2.2-5.2c1.8-4,3.7-7.1,4.7-12.2c0.3-1.1,0.3-2.3,0.2-3.4c-0.3-1.5-0.7-3.1-1.2-4.6
	c-0.9-3.1-1-9.7-4-10.5l-0.2,0.4c-0.7,1.5,0.9,2.8,1.2,3.8v1.7l1.4,2c0.1,1.4,0.1,2.8,0.1,4.2c0.3,2,1.2,4.7,0.6,7.1l-1.1,2.8
	c-0.5,1.5-0.4,3.1-1.1,4.4c-0.3,0.5-1.2,0.9-1.4,1.4c0,0.4-0.1,0.9-0.1,1.3l-1.4,2.4c-0.3,1-0.2,1.6-0.8,2.2
	c-1.3,1.4-2.9,2.4-4.1,3.9c-0.7,0.9-1,2.1-1.7,3c-0.9,1.2-2.6,1.8-3.5,3.2c-0.6,0.9-0.5,2.1-1.1,3.1l-2.7,3
	c-1.9,2.5-4.2,4.6-6.8,6.2l-0.4-0.1c0-0.1,0-0.1,0.1-0.2c0.9-1.2,2-2.3,3.1-3.2c2-1.3,3.8-3,5.3-4.8c0-0.1,0-0.2-0.1-0.3
	c-4.1,0.2-9.3,6.4-12.1,8.7l-5,4.3c-0.8,0.3-1.7,0.5-2.5,0.7l-2.6,1.2c-2.6,1.6-4.7,3.9-7.2,5.7c-1.8,1.2-3.9,1.8-5.8,3
	c-1.4,0.9-1.9,2.7-3.6,3.5c-3.5,1.7-4.2,5.4-7.1,7.5c-0.8,0.6-2.4,1.9-1.7,3.3l0.2,0.1c2.8-0.4,3.9-2.2,5.6-3.8l1.1-0.9l0.2-1.6
	c0.4-0.5,0.8-1,1.2-1.4c1.5-1.9,3.9-3.3,5.8-4.8c1.5-1.3,3-2.6,4.6-3.8l3.9-1.8c1.4-0.8,3.5-3.8,5.1-3.5c0,0.1,0,0.2,0.1,0.4
	c-0.9,0.8-1.9,1.5-2.9,2.1c-0.5,0.4-0.7,1.4-1.2,1.8c-0.8,0.5-1.6,0.7-2.3,1.2l-4,3.2l-2,0.9c-0.6,0.4-0.9,1.1-1.5,1.5
	s-4.8,2.7-3.3,4c1.5-0.6,2.7-0.8,3.6-1.9l1.2-1.4l3.8-2c2.3-1.5,4.4-3.1,6.5-4.9c4-3.2,7.3-7.4,11.5-10.5l0.4,0.1
	c0.2,0.7,0.1,1.4-0.2,2l-1.7,1.3l-2.6,2.9c-0.8,0.6-1.8,0.8-2.5,1.4c-2.1,1.6-3.5,4-5.6,5.6l-2.7,1.7l-1.4,0.6l-1.4,1.6l-3.5,1.9
	c-0.6,0.4-1,1.3-1.7,1.7s-1.3,0.2-1.8,0.6l-1.2,1.3c-0.8,0.6-1.8,0.7-2.5,1.3c-1,0.9-1.9,2-2.6,3.2c-0.7,0.9-2,0.6-2,2.3l0.2,0.1
	c2.1,0.6,6-3.7,7.3-4.7c1.1-0.7,2.2-1.4,3.3-2.2l2.3-2.2c3.1-2,6.3-3.6,9.2-5.8l3.8-3.5l1-1.2c0.7-0.4,1.4-0.3,2-0.7
	c2.5-1.8,4.7-4.2,7.2-6c3.3-2.4,6.8-4.6,9.3-7.7l4.1-3.5l0.9-2.4l2.7-2.7c0.1-0.4,0.2-0.9,0.2-1.3l4-4c3.2-3.8,5.7-8.1,7.4-12.7
	c0.7-2.1,1.2-4.3,1.5-6.6c0.8-4.7,0.6-10.5-0.8-14.5c-0.5-1.4-1.6-2.2-2.1-3.4s-0.8-2.8-1.4-4c-1-1.7-3.1-2.5-4.2-4
	c-0.6-0.8-0.6-2.1-1.2-2.9c-1.2-1.6-3.6-2.3-5.2-3.5l-2.8-2.5l-2.3-0.7l-5-2.6c-3-1.8-6.2-3.5-9.4-4.9l-3.2-0.3
	c-1.7-0.7-3.1-1.7-5-2.1c-3.3-0.6-6.7-0.6-10-0.2l-2.4,0.7c-1.3,0.2-2.7-0.4-4-0.1L77,37.3c-0.9,0.3-1.9,0.5-2.9,0.6l-1.4,3
	c-1.6,3.1-5.2,7.9-4.2,13.3c0.3,1.6,0.8,3.3,1.2,5.2c0.4,2.4,0,5.4,0.9,7.3c0.5,1,1.6,1.7,2.2,2.6c0.5,0.7,0.5,1.5,0.9,2.2
	s1.7,1.3,2.4,1.8c2.4,1.9,5,3.5,7.8,4.8c1.8,0.6,3.6,1,5.4,1.3l2.9,0.1c0.9,0.4,2,0.6,3,0.6c2-0.4,4.4-1.5,6.4-1.2
	c0,0.1,0,0.2-0.1,0.3c-2.2,0.6-3.4,2.3-6,2.8c-1.7,0.3-3.4-0.5-4.8-0.7c-2.8-0.5-5.6-0.1-7.9-0.9c-0.9-0.3-1.7-0.9-2.4-1.6l-0.8-1.1
	l-1.5-0.1c-1.3-0.4-1.9-1.6-2.6-2.7l-1.4-0.1c-1.2-0.5-2-2.7-2.7-3.8s-2-2.3-2.5-3.8c-1.6-4.6-3-15.3-1.4-20.7
	c0.7-2.1,2-3.6,2.8-5.3c-0.1-0.3-0.2-0.6-0.2-0.9c0.9-0.8,1.7-1.9,2.2-3c0.2-0.4,0-0.8,0.4-1c1.1-0.4,2.1-0.3,3-0.8l1.4-1.3h2.5
	l4-0.5c2.7-0.4,5.3,1.6,7.7,0.3c0-0.1,0-0.2-0.1-0.4c-0.8-1.7-8-2.9-11.2-2.4c-0.9,0.3-1.7,0.5-2.6,0.6c-0.4,0-1.1-0.4-1.8-0.2
	l-2.7,1.1l-1.4,0.1c-0.9,0.5-2,2.9-2.6,3.8l-1.5,1.6c0,0.8,0,1.7-0.1,2.5c-0.4,1.7-0.8,3.4-1.2,5c-0.7,2.7-2.5,6.6-1.4,10.5
	c0.3,0.5,0.5,1.1,0.8,1.7c0.4,2.1,0.1,3.9,0.7,5.7l1.4,2.8c0.2,0.7,0.3,2.4-0.2,2.9c-1.4-0.9-3.5-5.8-3.8-7.9c-0.2-1.4,0.3-3.4,0-5
	c-0.4-2.2-1-5.8-0.3-8.2c0.3-0.5,0.5-1.1,0.8-1.7c0-0.6,0-1.2-0.1-1.9c0.5-1.7,2.2-2.7,1.6-5.2l-0.3-0.2c-1.9,0.3-1.7,2.1-2.4,3.7
	c-0.3,0.7-0.9,1.1-1.1,2v4c-1.6,9.6-0.1,15.4,3.8,21.8l1.9,0.2c1.2,0.6,2.8,4.2,3.7,5.5c0.7,1,1.6,0.7,2.8,1.3l3.7,3.1
	c1.6,1,4.3,1,6.3,1.5c1.3,0.3,2.2,1.1,3.3,1.4c2.4,0.8,7,0.1,9.2-0.4l4.7-1.4l3.3-1.4V81c-2.4,2.1-5.3,3.5-8.4,4l-4.8,0.4
	c-1.3,0.3-2.7,0.3-4,0.1c-1.1-0.2-1.6-1.4-2.9-1.3l-2,0.5c-2.8-0.5-5-2.3-7.1-3.6c-1.7-0.9-3.3-1.9-4.8-3c-1-0.8-1.3-2-2.1-3.1
	L66.1,73c-1.7-1.6-3.1-3.5-4.1-5.6c-1.3-2.4-3.7-9.8-2.9-14c0.5-3,1.5-5.7,2.1-8.4c0.4-1.5,0.3-3,1-4.1c1-1.6,2.9-2.2,4.1-3.6l3.7-5
	c1.2-1.1,3-1.1,4.8-1.7c0.8-0.4,1.6-0.8,2.4-1.1c1.2-0.2,2.4-0.1,3.6,0.3c3.1,0.6,5.8,0.4,8.4,1.3l5.3,2.4l3.8,0.8
	c3.2,1,6.5,1.9,9.5,3.2l6.1,2.7l3.6,2.5c0.7,0.5,2.5,1.5,3.6,1c0.1-0.5,0-1-0.2-1.5c0.1-0.1,0.2-0.2,0.2-0.3l0.7,0.4
	c1.4,4.8,6.3,4.3,8.9,7.6l1.4,2.5l2.7,2.6l1.1,2.2l3.1,5.1c0.8,1.4,0.9,3.4,1.7,4.8c0.3,0.5,1.1,0.7,1.4,1.4c0,1.9,0.1,3.8,0.1,5.8
	c0,5.5-0.1,10.3-1.5,14.3c-0.8,2.2-1.8,4.4-3.1,6.3l-1.9,2.2c-0.6,1.1-0.2,3-0.7,4.2l-2.8,4.3c-0.1,0.7-0.1,1.3-0.2,2l-2.7,3.5
	c-1.8,3-3.1,6.7-5.2,9.5l-2.4,2.1c-0.7,0.6-0.8,1.7-1.4,2.2l-4.3,3c-1.4,1.1-2.4,2.7-3.8,3.8l-4.4,3.4c-2.6,1.9-5,4-7.2,6.2
	l-2.9,3.2c-1.2,0.8-4.6,2-3.4,4.6c1.6,0.3,4.4-2.2,5.2-3.2l3.9-3.8l6.7-6c3.8-3.2,7.4-6.7,10.7-10.4c0.6-0.7,1.8-0.7,2.4-1.3
	c0.9-1.2,1.6-2.5,2.3-3.9l1-0.7l1.9-2.2l3.8-8.3c0.8-1.3,2-2.3,2.6-3.8c0.3-1.6,0.7-3.2,1-4.8c0.6-1.4,1.9-2.2,2.6-3.4
	c0.9-1.6,1.1-3.4,1.6-5.3c0.5-1.4,1-2.8,1.5-4.2l1.6-2.1c0.9-2.1,0.8-4.4,1.3-6.7c0.5-1.7,0.7-3.4,0.6-5.1c-0.4-2.3-1.4-4-2.1-5.9
	c-0.6-1.7-0.1-3.8-0.8-5.4c-1.4-3.3-3.6-6-5.6-8.7l-2.1-3.1c-1-0.6-2-0.8-2.8-1.5l-3.5-4.2l-3-1.7c-1.6-1.1-2.3-3.6-4-4.9
	c-2.5-1.9-5.7-2.8-8.2-4.6l-2.5-2.2l-0.8-1.2l-1.8-0.7c-1.2-0.8-1.9-2-3.2-2.8l-15.4-5.8l-2.2-2l-1.7-0.6l-2.3-2
	c-2.4-1.7-5-3.3-7-5.4c-1.5-1.6-1.4-4.8-4.5-4.8L71.4,6.8z M81,5c0.2,0.8-0.5,1.7,0,2.5c2.4,1,3.7,4.2,5.6,5.8
	c3.2,2.7,8.1,4.3,10.7,7.7v0.2h-0.2c-4.3-2.3-8.4-5-12.3-8l-3.7-3.6c-0.4-0.8-1-1.4-1.7-1.9l-1.6-0.3c-0.6-1.5-1.6-3.1-3.5-3.2
	l-0.1,0.2c0.1,2.6,1.7,3.8,2.8,5.4l0.9,1.6c1,1.2,2.6,1.7,3.8,2.7l1.5,1.9l2.4,1.2l5.6,3.6c1.2,0.8,5.9,3.8,7.9,2.9
	c0.1-0.8-0.4-1-0.5-1.7c1.7,0.2,1.8,1.9,2.9,2.7c3.2,2.2,6.5,4.2,9.6,6.4l8.1,5.6l3.9,2.4l1,1.4l4.4,4.2c4,3.1,8.3,6.2,11.3,10.2
	c0.5,0.7,1,1.5,1.2,2.4l0.4,1.4l1.4,1.1c0.1,0.5,0.1,1,0.2,1.6c0.6,1,1.3,2,2,3c-0.3,1.6-0.4,2.9,0.5,4.1l1,1.1
	c0.9,3,0.6,7.4-0.1,10.5c-1,4.7-3,8.8-4.6,12.8c-0.6,2-1.2,4-1.8,6c-0.5,1.1-1.5,1.4-2.1,2.3c-1.3,1.9-1.5,4.3-2.4,6.6
	c-0.5,1.4-1.3,2.4-1.8,3.9l0.1,0.3h0.4c2.2-1.7,1.6-2.7,3-5c0.9-1.4,1.8-2.8,2.5-4.2c0.2-0.8,0.4-1.5,0.6-2.2
	c0.8-1.2,1.6-2.3,2.4-3.5c0-0.7,0.1-1.4,0.1-2.1l1.2-1.8c0.1-0.7,0.1-1.3,0.2-1.9c0.7-1.2,1.4-2.4,2.1-3.5c0.9-2.1,1.6-4.4,2.1-6.6
	c0.6-2.6-0.2-5.6-0.6-7.5v-3.8c-0.3-1.7-0.9-3.5-1.4-5c-0.1-0.7-0.2-1.3-0.3-2l-1.4-1.4c-0.3-0.8-0.1-2.1-0.6-3.1l-2.3-3
	c-0.9-1.5-1.3-3.3-2.1-4.8c-0.6-1-1.9-1.2-2.4-2.2s-0.4-2.8-1.1-3.8l-2.7-2.1l-2-2c-1.8-1.6-3.3-3.6-5.2-5.1l-15.5-11.5l-3.4-2
	c-1.9-1.4-3.2-3.7-5.1-5.1l-6.2-4.4l-2.6-1.5c-0.3-0.6-0.6-1.2-0.9-1.8c-0.6-0.9-3-3.4-4.2-3.6c-0.9,0.5-1.6,1.5-1.6,2.6
	c-3.5-0.3-3.3-4.3-7.9-4.3c-0.1,0.7-0.2,1.3,0.4,1.6l0.3,0.2L81,5L81,5z M101.6,9.1c0.9,0.7,1.5,2,2.4,2.7l5.3,3.5
	c2.1,2.1,4.1,4.2,6.2,6.3c1.2,1,2.6,1.8,3.9,2.7l2.6,2.3l1.7,0.9c0.7,0.6,0.7,1.8,1.4,2.4c3.8,3,8.5,5.2,11.7,8.9
	c2.5,2.9,5.4,5.7,7.3,9.1c0.9,1.7,1.6,4.4,3.3,5.3l0.4-0.2c0.4-4.6-2.3-6-4.3-8.4l-2.2-3.2c-2.9-4.4-7.1-7.8-11.2-11l-7.4-6.4
	l-2.2-2.1l-2.2-1c-1.3-0.9-2.6-3.5-4.1-4.6l-3.5-2.7l-2.4-1.7c0.3-0.5,0.9-0.7,1.3-0.9v-0.3c-1.9-2.5-2.5-3.9-5.3-5.6
	c-0.5-0.3-1.2-0.9-1.9-0.6v0.1c0.7,2.4,3.6,3.5,3.8,5.6c-3.4-0.8-4.6-6.1-8.7-6.7C97.4,6.8,99.8,7.7,101.6,9.1L101.6,9.1z"/>
<path class="st0" d="M108.1,61.9c0.2-0.4,0.6-0.7,1-0.9c1.6-0.4,3.5,4.2,3.8,5.6c-0.2,0.1-0.4,0.1-0.6,0.1
	C110.6,65.2,109.2,63.6,108.1,61.9z"/>
<path class="st0" d="M91.3,12c1.5,1.1,3,2.1,4.7,3l2.8,1.3c1,0.8,1.3,2.3,2.3,3.1l4.6,2.7l1.9,2l1.4,0.4l2.3,2.5l4.2,3.2
	c1.7,1,3.9,1.6,5.5,2.7l1.2,1.5l2.9,2.6c3,2.2,5.8,4.7,8.4,7.5c1,1.1,2.6,1.9,3,3.6c-0.1,0.1-0.1,0.3-0.2,0.4l-0.5-0.1
	c-1.3-0.6-2.3-2.2-3.1-3.3c-1.4-1.9-3.1-3.6-5-5L125,39c-1.2-1.1-2.1-2.7-3.5-3.7l-2.3-1.2l-8.7-6.1L98,18l-6.1-4.5
	c-0.9-0.6-2-1.1-2.8-1.8c-0.6-0.5-1.9-2.2-1.7-3.1h0.3C89.2,9.3,90,11,91.3,12z"/>
<path class="st0" d="M54.1,74c-0.6-1.4-3.3-4.7-2.9-6.4h0.2c1.9,2.3,3.7,4.5,4.1,8.4C54.7,76,54.4,74.7,54.1,74z"/>
<path class="st0" d="M105.2,64l0.4-0.2c1,0.4,0.8,1.1,1.3,2.1c1.2,0.1,2.2,1.2,2.1,2.4c-0.2,0.2-0.3,0.4-0.5,0.6
	C107.5,68.6,105.6,64.9,105.2,64z"/>
<path class="st0" d="M86.9,60.9c0.1,1.2,0.2,2.5,0.5,3.7c0,0.1-0.1,0.2-0.1,0.4H87c-1.1-1.1-1.2-2.8-0.4-4.2L86.9,60.9z"/>
<path class="st0" d="M122.3,61.5l-3-2.3l-2.7-2.6c-1.7-0.8-3.5-1.4-5.3-1.9c-1.7-0.5-3.5-1.3-5.4-1.7c-1.5-0.4-2.8-0.2-4.5-0.5
	c-1.5-0.3-3-0.4-4.5-0.1l-2.6,1.4c-2.2,0.7-7.1,0.8-5.8,4.2c0.9-0.1,1.4-0.7,2.2-1c2.4-1.1,4.8-1.9,7.4-2.5c1.4-0.3,2.8,0.4,3.9,0.7
	l6.3,0.4c1.6,0.4,2.5,1.3,3.7,2c0.6,0.3,1.2,0,1.9,0.2c1.1,0.3,2.7,2.3,2.2,3.8c-2.8-0.1-3.8-2.7-5.8-3.8c-2.9-1.6-9.6-1.5-13.7-0.9
	l-2.2,0.1c-1,0.4-3.5,2.2-3.9,3.3c0.1,2.1,0.4,4.3,0.9,6.4l0.8,0.5c1.1,1,2.1,3.2,4.2,2.8c0.8-1.7-1.1-2.5-1.8-3.5s0-2.2-0.4-3.5
	c-0.3-1-1.5-1.1-2.1-1.8v-0.2l0.2-0.1c1.7-0.7,1.3-0.9,2.4-1.8c4.6,0,9.5-1.4,11.3,2.2l-0.2,0.4h-0.1c-2.4-0.3-5.4-2.8-8.2-2
	c-5.2,1.4-0.8,7.9,1,9.6c0.2,0,0.5-0.1,0.7-0.3c0.3-0.6,0.4-1.4,0.3-2.1c-0.2-0.9-2.5-3.5-1.4-4.5h0.1c1.4,1.3,3,3.1,2.4,6.2
	c-0.1,0.7-0.1,1.3-0.6,1.6c-1,0.5-2.1,0.7-3.2,0.6c-4.8,0-7-3.1-8-6.8c-0.3-1.3,0.2-3.9-0.4-4.9c-1.9-0.7-1.1-2.5-0.7-4.1
	c0.1-0.3,0.1-0.6,0.1-0.9c1.1-1.7,5.7-0.6,7.1-2.5l-0.2-0.3c-1.4-0.6-2.9-0.8-4.3-0.6c-3.1,0.7-7.5,4.7-5.6,8.1l-0.7,1.7
	c-0.2,1,0,5.2,0.4,5.7l1.5,1.3c1.7,1.7,3.1,3.9,5.8,4.7c2.4,0.7,5.7,0.3,7.8,1.4v0.2c-1.9,0.9-5.8,0.3-7.5-0.1
	c-5.3-1.4-7.7-4.5-9.4-9.5c-0.6-1.4-0.8-3-0.6-4.5c0.3-0.7,0.5-1.4,0.8-2.2c0.8-3,0.9-6.1,3.3-7.6c2.8-1.7,9,0.5,11.9,1l4.4-0.2
	c2.4,0.5,4.4,1.7,6.6,2.4c2.8,0.9,7.7,2,9.9,3.5l1.9,2.2l2,1.9l1.1,0.7c0.1,0.1,0.7,2.7,0.9,3l2.1,3.3c0.7,1.6,0.7,6.6,0.7,9
	l-0.7,3.2l-2.2,4.3c-0.4,0.9-0.3,2-0.8,2.7c-1.8,2.6-4,5-6.4,7.1c-1.2,1-4.2,2.5-5,3.7l-0.8,1.7h-0.3c-0.5-0.7-1.2-0.8-1.8-1.4
	l2.4-1.7l4-4c1.1-0.8,2.5-0.9,3.2-2l1.8-3.5c0.8-1.2,2.1-2.1,2.7-3.5c0-0.8,0.1-1.7,0.1-2.5c0.2-0.8,0.5-1.5,0.7-2.3
	c0.5-1,1-2,1.4-3c0.4-2-0.8-3.3-1.2-4.7c-0.1-1.1-0.2-2.1-0.3-3.2c-0.5-1.7-1.2-3.3-2-4.8C122.5,62.2,122.4,61.9,122.3,61.5z"/>
</svg>
