<svg id="Livello_1" data-name="Livello 1" xmlns="http://www.w3.org/2000/svg" xmlns:xlink="http://www.w3.org/1999/xlink" viewBox="0 0 1200 630"><defs><style>.cls-1{fill:#4987a5;}.cls-2{fill:url(#Sfumatura_senza_nome_4);}.cls-3{fill:url(#Sfumatura_senza_nome_2);}.cls-4{fill:url(#Sfumatura_senza_nome_3);}.cls-5{fill:url(#Sfumatura_senza_nome_12);}.cls-6{fill:url(#Sfumatura_senza_nome_12-2);}.cls-7{fill:url(#Sfumatura_senza_nome_12-3);}.cls-8{fill:url(#Sfumatura_senza_nome_12-4);}.cls-9{fill:url(#Sfumatura_senza_nome_12-5);}.cls-10{fill:url(#Sfumatura_senza_nome_12-6);}.cls-11{fill:url(#Sfumatura_senza_nome_12-7);}.cls-12{fill:url(#Sfumatura_senza_nome_12-8);}.cls-13{fill:url(#Sfumatura_senza_nome_12-9);}</style><linearGradient id="Sfumatura_senza_nome_4" x1="626.46" y1="1029.38" x2="773.12" y2="705.23" gradientTransform="translate(0 -682)" gradientUnits="userSpaceOnUse"><stop offset="0" stop-color="#fff" stop-opacity="0"/><stop offset="1" stop-color="#fff"/></linearGradient><linearGradient id="Sfumatura_senza_nome_2" x1="653.01" y1="1064.13" x2="775.11" y2="1235.4" gradientTransform="translate(0 -682)" gradientUnits="userSpaceOnUse"><stop offset="0" stop-color="#fff" stop-opacity="0"/><stop offset="1" stop-color="#fff"/></linearGradient><linearGradient id="Sfumatura_senza_nome_3" x1="513.31" y1="1095.4" x2="665.25" y2="797.08" gradientTransform="translate(0 -682)" gradientUnits="userSpaceOnUse"><stop offset="0" stop-color="#fff" stop-opacity="0"/><stop offset="0.87" stop-color="#fff"/></linearGradient><linearGradient id="Sfumatura_senza_nome_12" x1="480.93" y1="1085.75" x2="600.92" y2="992.18" gradientTransform="translate(0 -682)" gradientUnits="userSpaceOnUse"><stop offset="0.02" stop-color="#fff" stop-opacity="0"/><stop offset="1" stop-color="#fff"/></linearGradient><linearGradient id="Sfumatura_senza_nome_12-2" x1="488.87" y1="1095.93" x2="608.86" y2="1002.37" xlink:href="#Sfumatura_senza_nome_12"/><linearGradient id="Sfumatura_senza_nome_12-3" x1="492.43" y1="1100.5" x2="612.42" y2="1006.94" xlink:href="#Sfumatura_senza_nome_12"/><linearGradient id="Sfumatura_senza_nome_12-4" x1="499.52" y1="1109.59" x2="619.51" y2="1016.02" xlink:href="#Sfumatura_senza_nome_12"/><linearGradient id="Sfumatura_senza_nome_12-5" x1="509.39" y1="1122.25" x2="629.38" y2="1028.69" xlink:href="#Sfumatura_senza_nome_12"/><linearGradient id="Sfumatura_senza_nome_12-6" x1="516.68" y1="1131.6" x2="636.67" y2="1038.04" xlink:href="#Sfumatura_senza_nome_12"/><linearGradient id="Sfumatura_senza_nome_12-7" x1="517.72" y1="1132.92" x2="637.71" y2="1039.36" xlink:href="#Sfumatura_senza_nome_12"/><linearGradient id="Sfumatura_senza_nome_12-8" x1="523.71" y1="1140.61" x2="643.7" y2="1047.05" xlink:href="#Sfumatura_senza_nome_12"/><linearGradient id="Sfumatura_senza_nome_12-9" x1="529.95" y1="1148.62" x2="649.95" y2="1055.06" xlink:href="#Sfumatura_senza_nome_12"/></defs><rect id="bkg" class="cls-1" width="1200" height="630"/><g id="Logo"><path id="Corno" class="cls-2" d="M712.79,279.28c-44.94-3.2-77.81,33.22-94,65.19-2,.18-3.91.18-6,.18a12.46,12.46,0,0,0-.18-2.49s1.42-19.89-8.52-45.65c-1.43-3.73-3-7.46-5-11.37,87.75,10.31,88.64-74.78,81.53-101.78-1.06-4.26,5.33-5.33,7.82-1.6C701.59,201.48,718.47,243.05,712.79,279.28Z"/><path id="Muso" class="cls-3" d="M719.89,389.77,700.71,353c-45.48,43.52-87.58,37.66-87.58,37.66H613c-.36,16.16-.36,26.46-.36,34.28,5.69.18,12.61.35,15.28.18,5-.36,11.54-8,11.54-8,8.35,16.17,21,26.65,32.87,25.4,6.92-.71,15.09-5.5,15.09-9.94,8.53,8.17,19.72,11.72,32.33,7.28C741,432.75,749,392.79,719.89,389.77Zm-53.11,31.62c-2.49-3.56,2.84-7.46,5.51-4.09,4.44,5.51,11.9,12.08,13.67,14C684.54,429.91,671,427.43,666.78,421.39Z"/><path id="Pianta" class="cls-4" d="M745.65,291.18c-14.39,27.36-29.84,47.25-44.94,61.82-45.48,43.52-87.58,37.66-87.58,37.66H613c-.36,16.16-.36,26.46-.36,34.28,0,9.41-.18,15.1-1.24,22.56a2.69,2.69,0,0,1-2.67,2.31c-5.32-.18-10.48-.18-15.81-.36a2.49,2.49,0,0,1-2.48-3,546.83,546.83,0,0,0,5-102.31,2.45,2.45,0,0,0-1.77-2.31C577.25,336.12,443.68,286,454.69,195.09a4.34,4.34,0,0,1,5.15-3.74,3.9,3.9,0,0,1,3,2.67c4.44,13.5,20.6,28.42,41,39.08,3.91,2,7.82,3.73,11.9,5.33,1.78.71,3.56,1.42,5.15,1.95,17.41,6,34.29,7.64,47.43,5.15a2.62,2.62,0,0,1,2.31.71,144.68,144.68,0,0,1,28.42,39.08c2,3.91,3.55,7.82,5,11.37,9.94,25.76,8.52,45.65,8.52,45.65v3.2a2.63,2.63,0,0,0,5,1.06l1.06-2.13c.36-.71.71-1.24,1.07-2,16.52-31.44,48.85-66.44,92.9-63.24a89.23,89.23,0,0,1,31.62,8.35A2.48,2.48,0,0,1,745.65,291.18Z"/><g id="Testo"><path class="cls-5" d="M523.25,380.35V353.18a.39.39,0,0,1,.36-.36h5.68a8.71,8.71,0,0,1,3.2.53,4.54,4.54,0,0,1,2.13,1.42,5.56,5.56,0,0,1,1.07,2.31,13.72,13.72,0,0,1,.35,2.85,13.58,13.58,0,0,1-.35,2.66,4,4,0,0,1-1.07,2.13,6.06,6.06,0,0,1-2.13,1.25,5,5,0,0,1,2.49,1.59,6.63,6.63,0,0,1,1.24,2.49,15.52,15.52,0,0,1,.36,3,19.36,19.36,0,0,1-.36,3.2,7.12,7.12,0,0,1-1.06,2.66,9.49,9.49,0,0,1-2,1.78,8.58,8.58,0,0,1-3.2.71h-6.57C523.43,380.89,523.25,380.71,523.25,380.35Zm2.49-15.81a.39.39,0,0,0,.36.36h3.37a3.5,3.5,0,0,0,2.49-.71,3.31,3.31,0,0,0,1.24-1.78,10.62,10.62,0,0,0,.36-2.66,6.66,6.66,0,0,0-.54-2.84,3.4,3.4,0,0,0-1.6-1.6,7.67,7.67,0,0,0-3.37-.54h-2.13a.39.39,0,0,0-.36.36l.18,9.41Zm0,13.86a.39.39,0,0,0,.36.36h3.37a4.54,4.54,0,0,0,3.73-1.43,10.07,10.07,0,0,0,.89-4.61,15.33,15.33,0,0,0-.36-3,4.54,4.54,0,0,0-1.42-2.14,4.3,4.3,0,0,0-2.66-.71h-3.38a.39.39,0,0,0-.35.36l-.18,11.19Z"/><path class="cls-6" d="M539.24,380.35l5.68-27.17a.39.39,0,0,1,.36-.36h2.13a.39.39,0,0,1,.36.36l5.86,27.17c0,.18-.18.54-.36.54H551.5a.39.39,0,0,1-.36-.36l-1.24-6.93a.39.39,0,0,0-.36-.35h-6a.38.38,0,0,0-.35.35l-1.25,6.93a.38.38,0,0,1-.35.36h-1.78A.57.57,0,0,1,539.24,380.35Zm4.8-8.88h5c.18,0,.36-.18.36-.53l-2.49-12.79c0-.36-.71-.36-.71,0l-2.49,12.79C543.5,371.12,543.68,371.47,544,371.47Z"/><path class="cls-7" d="M560.73,380.35v-9.06l-6.21-18.11c0-.18.17-.54.35-.54h1.78a.38.38,0,0,1,.35.36l4.62,14.21c.18.35.71.35.71,0L566.77,353a.39.39,0,0,1,.36-.36h1.77c.18,0,.54.18.36.54l-6,18.11v9.06a.39.39,0,0,1-.35.36h-1.78C560.91,380.89,560.73,380.71,560.73,380.35Z"/><path class="cls-8" d="M572.46,380.35V353.18a.39.39,0,0,1,.35-.36h9.42a.39.39,0,0,1,.35.36v1.24a.38.38,0,0,1-.35.35h-6.75a.39.39,0,0,0-.36.36v9.77a.39.39,0,0,0,.36.36h5.33a.38.38,0,0,1,.35.35v1.24a.39.39,0,0,1-.35.36h-5.33a.39.39,0,0,0-.36.35V378.4a.38.38,0,0,0,.36.35h6.75a.39.39,0,0,1,.35.36v1.24a.39.39,0,0,1-.35.36h-9.42C572.64,380.89,572.46,380.71,572.46,380.35Z"/><path class="cls-9" d="M559.67,415.7a7.15,7.15,0,0,1-3.73-.89,6.55,6.55,0,0,1-2.31-2.66,11.67,11.67,0,0,1-.89-3.73.39.39,0,0,1,.36-.36l1.59-.53c.18,0,.54.18.54.36l.53,2.66a4.54,4.54,0,0,0,1.42,2.13,4.33,4.33,0,0,0,2.67.89,4.48,4.48,0,0,0,2.84-.89,3.91,3.91,0,0,0,1.06-3,6.12,6.12,0,0,0-.88-3.19,17.37,17.37,0,0,0-2.49-2.85l-5-4.79a8.71,8.71,0,0,1-1.95-2.67,8.47,8.47,0,0,1-.71-3,5.39,5.39,0,0,1,1.78-4.44,6.36,6.36,0,0,1,4.62-1.6,10.62,10.62,0,0,1,2.66.36,4.61,4.61,0,0,1,2,1.24,4.3,4.3,0,0,1,1.25,2.13,13,13,0,0,1,.71,3,.39.39,0,0,1-.36.36l-1.42.35c-.18,0-.53-.17-.53-.35-.18-1.07-.36-1.78-.53-2.49a4,4,0,0,0-1.43-2,4.54,4.54,0,0,0-2.48-.71,4.85,4.85,0,0,0-2.84.89,3.45,3.45,0,0,0-1.07,2.84,9.29,9.29,0,0,0,.35,2.13c.18.71.89,1.24,1.6,1.95l5,4.62a17,17,0,0,1,2.84,3.38,7,7,0,0,1,1.24,4.26,6.92,6.92,0,0,1-.89,3.55,5.36,5.36,0,0,1-2.3,2.13A4.6,4.6,0,0,1,559.67,415.7Z"/><path class="cls-10" d="M568.37,415l5.69-27.18a.38.38,0,0,1,.35-.35h2.13a.39.39,0,0,1,.36.35L582.76,415c0,.18-.18.53-.36.53h-1.77a.38.38,0,0,1-.36-.35L579,408.24a.38.38,0,0,0-.36-.35h-6a.38.38,0,0,0-.36.35L571,415.17a.38.38,0,0,1-.36.35H568.9C568.55,415.35,568.37,415.17,568.37,415Zm4.8-9.06h5c.18,0,.36-.18.36-.53L576,392.61c0-.36-.71-.36-.71,0l-2.49,12.79C572.64,405.75,572.81,405.93,573.17,405.93Z"/><path class="cls-11" d="M529.83,449.63V422.45a.37.37,0,0,1,.35-.35H536a8.26,8.26,0,0,1,4.09.88,4.24,4.24,0,0,1,2.13,2.49,11.72,11.72,0,0,1,.71,3.91,18.28,18.28,0,0,1-.35,3,4.8,4.8,0,0,1-1.25,2.31,5.2,5.2,0,0,1-2,1.24c-.18,0-.36.36-.36.53l4.09,13.5c0,.18-.18.54-.36.54H541a.39.39,0,0,1-.36-.36L536.75,437a.38.38,0,0,0-.35-.36h-3.73a.39.39,0,0,0-.36.36v13a.38.38,0,0,1-.35.36h-1.78C530,450,529.83,449.81,529.83,449.63ZM532.49,434a.38.38,0,0,0,.36.35H536a5,5,0,0,0,2.67-.53,2.93,2.93,0,0,0,1.42-1.78,7,7,0,0,0,.35-2.84,7.53,7.53,0,0,0-.88-3.91c-.54-.88-1.78-1.24-3.56-1.24h-3.19a.39.39,0,0,0-.36.36Z"/><path class="cls-12" d="M547.59,449.63V422.45a.38.38,0,0,1,.35-.35h9.42a.37.37,0,0,1,.35.35v1.25a.38.38,0,0,1-.35.35h-6.75a.39.39,0,0,0-.36.36v9.77a.39.39,0,0,0,.36.35h5.33a.38.38,0,0,1,.35.36v1.24a.37.37,0,0,1-.35.35h-5.33a.39.39,0,0,0-.36.36v10.84a.39.39,0,0,0,.36.35h6.75a.38.38,0,0,1,.35.36v1.24a.37.37,0,0,1-.35.35h-9.42A.38.38,0,0,1,547.59,449.63Z"/><path class="cls-13" d="M565,449.63l-4.62-27.18c0-.18.18-.53.35-.53h1.42a.39.39,0,0,1,.36.35l3.38,20.25c0,.36.71.36.71,0l3.73-19.89a.38.38,0,0,1,.35-.36h1.6a.39.39,0,0,1,.36.36l3.9,19.89c0,.36.71.36.71,0l3-20.25a.39.39,0,0,1,.36-.35h1.42c.18,0,.35.18.35.53l-4.26,27.18a.38.38,0,0,1-.35.35h-1.42a.38.38,0,0,1-.36-.35l-3.91-20.78c0-.36-.71-.36-.71,0l-3.91,20.78a.37.37,0,0,1-.35.35h-1.42C565.17,450,565,449.81,565,449.63Z"/></g></g><g id="Logo-2" data-name="Logo"><path id="Corno-2" data-name="Corno" class="cls-2" d="M712.79,279.28c-44.94-3.2-77.81,33.22-94,65.19-2,.18-3.91.18-6,.18a12.46,12.46,0,0,0-.18-2.49s1.42-19.89-8.52-45.65c-1.43-3.73-3-7.46-5-11.37,87.75,10.31,88.64-74.78,81.53-101.78-1.06-4.26,5.33-5.33,7.82-1.6C701.59,201.48,718.47,243.05,712.79,279.28Z"/><path id="Muso-2" data-name="Muso" class="cls-3" d="M719.89,389.77,700.71,353c-45.48,43.52-87.58,37.66-87.58,37.66H613c-.36,16.16-.36,26.46-.36,34.28,5.69.18,12.61.35,15.28.18,5-.36,11.54-8,11.54-8,8.35,16.17,21,26.65,32.87,25.4,6.92-.71,15.09-5.5,15.09-9.94,8.53,8.17,19.72,11.72,32.33,7.28C741,432.75,749,392.79,719.89,389.77Zm-53.11,31.62c-2.49-3.56,2.84-7.46,5.51-4.09,4.44,5.51,11.9,12.08,13.67,14C684.54,429.91,671,427.43,666.78,421.39Z"/><path id="Pianta-2" data-name="Pianta" class="cls-4" d="M745.65,291.18c-14.39,27.36-29.84,47.25-44.94,61.82-45.48,43.52-87.58,37.66-87.58,37.66H613c-.36,16.16-.36,26.46-.36,34.28,0,9.41-.18,15.1-1.24,22.56a2.69,2.69,0,0,1-2.67,2.31c-5.32-.18-10.48-.18-15.81-.36a2.49,2.49,0,0,1-2.48-3,546.83,546.83,0,0,0,5-102.31,2.45,2.45,0,0,0-1.77-2.31C577.25,336.12,443.68,286,454.69,195.09a4.34,4.34,0,0,1,5.15-3.74,3.9,3.9,0,0,1,3,2.67c4.44,13.5,20.6,28.42,41,39.08,3.91,2,7.82,3.73,11.9,5.33,1.78.71,3.56,1.42,5.15,1.95,17.41,6,34.29,7.64,47.43,5.15a2.62,2.62,0,0,1,2.31.71,144.68,144.68,0,0,1,28.42,39.08c2,3.91,3.55,7.82,5,11.37,9.94,25.76,8.52,45.65,8.52,45.65v3.2a2.63,2.63,0,0,0,5,1.06l1.06-2.13c.36-.71.71-1.24,1.07-2,16.52-31.44,48.85-66.44,92.9-63.24a89.23,89.23,0,0,1,31.62,8.35A2.48,2.48,0,0,1,745.65,291.18Z"/><g id="Testo-2" data-name="Testo"><path class="cls-5" d="M523.25,380.35V353.18a.39.39,0,0,1,.36-.36h5.68a8.71,8.71,0,0,1,3.2.53,4.54,4.54,0,0,1,2.13,1.42,5.56,5.56,0,0,1,1.07,2.31,13.72,13.72,0,0,1,.35,2.85,13.58,13.58,0,0,1-.35,2.66,4,4,0,0,1-1.07,2.13,6.06,6.06,0,0,1-2.13,1.25,5,5,0,0,1,2.49,1.59,6.63,6.63,0,0,1,1.24,2.49,15.52,15.52,0,0,1,.36,3,19.36,19.36,0,0,1-.36,3.2,7.12,7.12,0,0,1-1.06,2.66,9.49,9.49,0,0,1-2,1.78,8.58,8.58,0,0,1-3.2.71h-6.57C523.43,380.89,523.25,380.71,523.25,380.35Zm2.49-15.81a.39.39,0,0,0,.36.36h3.37a3.5,3.5,0,0,0,2.49-.71,3.31,3.31,0,0,0,1.24-1.78,10.62,10.62,0,0,0,.36-2.66,6.66,6.66,0,0,0-.54-2.84,3.4,3.4,0,0,0-1.6-1.6,7.67,7.67,0,0,0-3.37-.54h-2.13a.39.39,0,0,0-.36.36l.18,9.41Zm0,13.86a.39.39,0,0,0,.36.36h3.37a4.54,4.54,0,0,0,3.73-1.43,10.07,10.07,0,0,0,.89-4.61,15.33,15.33,0,0,0-.36-3,4.54,4.54,0,0,0-1.42-2.14,4.3,4.3,0,0,0-2.66-.71h-3.38a.39.39,0,0,0-.35.36l-.18,11.19Z"/><path class="cls-6" d="M539.24,380.35l5.68-27.17a.39.39,0,0,1,.36-.36h2.13a.39.39,0,0,1,.36.36l5.86,27.17c0,.18-.18.54-.36.54H551.5a.39.39,0,0,1-.36-.36l-1.24-6.93a.39.39,0,0,0-.36-.35h-6a.38.38,0,0,0-.35.35l-1.25,6.93a.38.38,0,0,1-.35.36h-1.78A.57.57,0,0,1,539.24,380.35Zm4.8-8.88h5c.18,0,.36-.18.36-.53l-2.49-12.79c0-.36-.71-.36-.71,0l-2.49,12.79C543.5,371.12,543.68,371.47,544,371.47Z"/><path class="cls-7" d="M560.73,380.35v-9.06l-6.21-18.11c0-.18.17-.54.35-.54h1.78a.38.38,0,0,1,.35.36l4.62,14.21c.18.35.71.35.71,0L566.77,353a.39.39,0,0,1,.36-.36h1.77c.18,0,.54.18.36.54l-6,18.11v9.06a.39.39,0,0,1-.35.36h-1.78C560.91,380.89,560.73,380.71,560.73,380.35Z"/><path class="cls-8" d="M572.46,380.35V353.18a.39.39,0,0,1,.35-.36h9.42a.39.39,0,0,1,.35.36v1.24a.38.38,0,0,1-.35.35h-6.75a.39.39,0,0,0-.36.36v9.77a.39.39,0,0,0,.36.36h5.33a.38.38,0,0,1,.35.35v1.24a.39.39,0,0,1-.35.36h-5.33a.39.39,0,0,0-.36.35V378.4a.38.38,0,0,0,.36.35h6.75a.39.39,0,0,1,.35.36v1.24a.39.39,0,0,1-.35.36h-9.42C572.64,380.89,572.46,380.71,572.46,380.35Z"/><path class="cls-9" d="M559.67,415.7a7.15,7.15,0,0,1-3.73-.89,6.55,6.55,0,0,1-2.31-2.66,11.67,11.67,0,0,1-.89-3.73.39.39,0,0,1,.36-.36l1.59-.53c.18,0,.54.18.54.36l.53,2.66a4.54,4.54,0,0,0,1.42,2.13,4.33,4.33,0,0,0,2.67.89,4.48,4.48,0,0,0,2.84-.89,3.91,3.91,0,0,0,1.06-3,6.12,6.12,0,0,0-.88-3.19,17.37,17.37,0,0,0-2.49-2.85l-5-4.79a8.71,8.71,0,0,1-1.95-2.67,8.47,8.47,0,0,1-.71-3,5.39,5.39,0,0,1,1.78-4.44,6.36,6.36,0,0,1,4.62-1.6,10.62,10.62,0,0,1,2.66.36,4.61,4.61,0,0,1,2,1.24,4.3,4.3,0,0,1,1.25,2.13,13,13,0,0,1,.71,3,.39.39,0,0,1-.36.36l-1.42.35c-.18,0-.53-.17-.53-.35-.18-1.07-.36-1.78-.53-2.49a4,4,0,0,0-1.43-2,4.54,4.54,0,0,0-2.48-.71,4.85,4.85,0,0,0-2.84.89,3.45,3.45,0,0,0-1.07,2.84,9.29,9.29,0,0,0,.35,2.13c.18.71.89,1.24,1.6,1.95l5,4.62a17,17,0,0,1,2.84,3.38,7,7,0,0,1,1.24,4.26,6.92,6.92,0,0,1-.89,3.55,5.36,5.36,0,0,1-2.3,2.13A4.6,4.6,0,0,1,559.67,415.7Z"/><path class="cls-10" d="M568.37,415l5.69-27.18a.38.38,0,0,1,.35-.35h2.13a.39.39,0,0,1,.36.35L582.76,415c0,.18-.18.53-.36.53h-1.77a.38.38,0,0,1-.36-.35L579,408.24a.38.38,0,0,0-.36-.35h-6a.38.38,0,0,0-.36.35L571,415.17a.38.38,0,0,1-.36.35H568.9C568.55,415.35,568.37,415.17,568.37,415Zm4.8-9.06h5c.18,0,.36-.18.36-.53L576,392.61c0-.36-.71-.36-.71,0l-2.49,12.79C572.64,405.75,572.81,405.93,573.17,405.93Z"/><path class="cls-11" d="M529.83,449.63V422.45a.37.37,0,0,1,.35-.35H536a8.26,8.26,0,0,1,4.09.88,4.24,4.24,0,0,1,2.13,2.49,11.72,11.72,0,0,1,.71,3.91,18.28,18.28,0,0,1-.35,3,4.8,4.8,0,0,1-1.25,2.31,5.2,5.2,0,0,1-2,1.24c-.18,0-.36.36-.36.53l4.09,13.5c0,.18-.18.54-.36.54H541a.39.39,0,0,1-.36-.36L536.75,437a.38.38,0,0,0-.35-.36h-3.73a.39.39,0,0,0-.36.36v13a.38.38,0,0,1-.35.36h-1.78C530,450,529.83,449.81,529.83,449.63ZM532.49,434a.38.38,0,0,0,.36.35H536a5,5,0,0,0,2.67-.53,2.93,2.93,0,0,0,1.42-1.78,7,7,0,0,0,.35-2.84,7.53,7.53,0,0,0-.88-3.91c-.54-.88-1.78-1.24-3.56-1.24h-3.19a.39.39,0,0,0-.36.36Z"/><path class="cls-12" d="M547.59,449.63V422.45a.38.38,0,0,1,.35-.35h9.42a.37.37,0,0,1,.35.35v1.25a.38.38,0,0,1-.35.35h-6.75a.39.39,0,0,0-.36.36v9.77a.39.39,0,0,0,.36.35h5.33a.38.38,0,0,1,.35.36v1.24a.37.37,0,0,1-.35.35h-5.33a.39.39,0,0,0-.36.36v10.84a.39.39,0,0,0,.36.35h6.75a.38.38,0,0,1,.35.36v1.24a.37.37,0,0,1-.35.35h-9.42A.38.38,0,0,1,547.59,449.63Z"/><path class="cls-13" d="M565,449.63l-4.62-27.18c0-.18.18-.53.35-.53h1.42a.39.39,0,0,1,.36.35l3.38,20.25c0,.36.71.36.71,0l3.73-19.89a.38.38,0,0,1,.35-.36h1.6a.39.39,0,0,1,.36.36l3.9,19.89c0,.36.71.36.71,0l3-20.25a.39.39,0,0,1,.36-.35h1.42c.18,0,.35.18.35.53l-4.26,27.18a.38.38,0,0,1-.35.35h-1.42a.38.38,0,0,1-.36-.35l-3.91-20.78c0-.36-.71-.36-.71,0l-3.91,20.78a.37.37,0,0,1-.35.35h-1.42C565.17,450,565,449.81,565,449.63Z"/></g></g></svg>